<?xml version="1.0" encoding="utf-8"?>
<!-- Generator: Adobe Illustrator 22.1.0, SVG Export Plug-In . SVG Version: 6.00 Build 0)  -->
<svg version="1.1" id="Layer_1" xmlns="http://www.w3.org/2000/svg" xmlns:xlink="http://www.w3.org/1999/xlink" x="0px" y="0px"
	 width="1403.9px" height="2696.2px" viewBox="0 0 1403.9 2696.2" style="enable-background:new 0 0 1403.9 2696.2;"
	 xml:space="preserve">
<style type="text/css">
	.st0{fill:#ECECEC;}
</style>
<path class="st0" d="M1403.9,1741.1l-56.1-56.1l28.3-28.3l27.8-27.8l-56.3-56.3l28.5-28.5l0,0l27.8-27.8l-56.1-56.1l28.3-28.3l0,0
	l27.8-27.8l-56.1-56.1l28.3-28.3l0,0l27.8-27.8l-56.1-56.1l28.3-28.3l0,0l27.8-27.8l-56.2-56.2l28.4-28.4l0,0l27.8-27.8l-56.1-56.1
	l28.3-28.3l0,0l27.8-27.8l-56.1-56.1l28.3-28.3l0,0l27.8-27.8l-56.1-56.1l28.3-28.3l0,0l27.8-27.8l-56.2-56.2L1376,646h0l27.8-27.8
	l-56.1-56.1l28.3-28.3h0l27.8-27.8l-56.1-56.1l28.3-28.3l0,0l27.8-27.8l-56.1-56.1l28.3-28.3l0,0l27.8-27.8l-56.2-56.2L1376,197h0
	l27.8-27.8l-56.1-56.1l28.3-28.3h0l27.8-27.8L1346.9,0l-56.1,56.1l0,0l-56,56l0,0l-56.1,56.1v0l-56,56v0l-56.1,56.1l0,0l-56,56v0
	l-56.1,56.1l0,0l-56,56l0,0l-56.1,56.1v0l-56,56v0l-56.1,56.1l0,0L673.9,673l0,0l-56.1,56.1v0l-56,56v0l-56.1,56.1v0l-56,56v0
	l-56.1,56.1l0,0l-56,56l0,0l-56.1,56.1v0l-56,56v0l-56.1,56.1l0,0l-56,56l0,0l-56.1,56.1l0,0L0,1346.9l27.8,27.8l29.1,29.1l0,0
	l27,27l28.4,28.4l-0.1,0.1l27.8,27.8l29.1,29.1l0,0l27,27l28.3,28.3l-0.1,0.1l27.8,27.8l29.1,29.1v0l27,27l28.4,28.4l-0.2,0.2
	l27.8,27.8l29.1,29.1l0,0l27,27l28.3,28.3l-0.1,0.1l27.8,27.8l29.1,29.1v0l27,27l28.4,28.4l-0.1,0.1l27.8,27.8l29.1,29.1v0l27,27
	L673,2021l0,0l27.8,27.8l29.1,29.1l0,0l27,27l28.5,28.5l-0.2,0.2l27.8,27.8l29.1,29.1v0l27,27l28.4,28.4l-0.1,0.1l27.8,27.8
	l29.1,29.1l0,0l27,27l28.3,28.3l-0.1,0.1l27.8,27.8l29.1,29.1l0,0l27,27l28.4,28.4l-0.2,0.2l27.8,27.8l29.1,29.1v0l27,27l28.3,28.3
	l-0.1,0.1l27.8,27.8l29.1,29.1l0,0l27,27l29.1,29.1l29.1-29.1l27.8-27.8l-56.1-56.1l28.3-28.3l27.8-27.8l-56.1-56.1l0,0l28.3-28.3v0
	l27.8-27.8l-56.1-56.1l0,0l28.3-28.3v0l27.8-27.8l-56.2-56.2l28.4-28.4l27.8-27.8l-56.1-56.1l28.3-28.3l27.8-27.8l-56.1-56.1l0,0
	l28.3-28.3l27.8-27.8l-56.1-56.1l0,0l28.3-28.3l27.8-27.8l-56.2-56.2l28.4-28.4L1403.9,1741.1z M1319.9,2386.5l26.4-26.4v54
	l-27.7,27.7l-27-27l27.8-27.8L1319.9,2386.5L1319.9,2386.5z M1319.9,2498.7l26.4-26.4v54l-27.7,27.7l-27-27l27.8-27.8L1319.9,2498.7
	L1319.9,2498.7z M1346.1,2583.2l-27,27l-27.7-27.7v-54l43.9,43.9L1346.1,2583.2z M85.3,1373.8l-27.7-27.7v-54l41,41l13.7,13.7
	L94.1,1365L85.3,1373.8z M113.6,1236.2l26.3,26.3l28.3,28.3l-26.9,26.9l-27.7-27.7V1236.2z M338,1011.9l26.3,26.3l28.3,28.3
	l-26.9,26.9l-27.7-27.7V1011.9z M534.2,869.9l27.5-27.5l27.5,27.5l-27.5,27.5L548,883.7L534.2,869.9z M898.8,451l26.3,26.3
	l28.3,28.3l-26.9,26.9l-27.7-27.7V451z M1123.1,226.7l26.3,26.3l28.3,28.3l-26.9,26.9l-27.7-27.7V226.7z M1235.3,114.5l26.3,26.3
	l28.3,28.3l-26.9,26.9l-27.7-27.7V114.5z M450.4,1684.1l27.6-27.6l0.7-0.7l0,0l17.6-17.6l8.7-8.7v54l-27.7,27.7L450.4,1684.1z
	 M197.4,1261.7l-27.7-27.7v-54l54.7,54.7L197.4,1261.7z M421.7,1037.4l-27.7-27.7v-54l54.7,54.7L421.7,1037.4z M533.9,925.2
	l-27.7-27.7v-54l54.7,54.7L533.9,925.2z M646.1,813l-27.7-27.7v-54l54.7,54.7L646.1,813z M758.3,700.9l-27.7-27.7v-54l54.7,54.7
	L758.3,700.9z M982.6,476.5l-27.7-27.7v-54l54.7,54.7L982.6,476.5z M1094.7,364.4l-27.7-27.7v-54l54.7,54.7L1094.7,364.4z
	 M1206.9,252.2l-27.7-27.7v-54l54.7,54.7l-18.2,18.2L1206.9,252.2z M1319.1,140l-27.7-27.7v-54l54.7,54.7L1319.1,140z
	 M1235.6,2470.9l54.6-54.6v54l-27.7,27.7L1235.6,2470.9z M1234.2,2360v54l-27.7,27.7l-27-27L1234.2,2360z M1011.3,2246.1l28-28
	l0.4-0.4l0,0l26.3-26.3v54l-27.7,27.7L1011.3,2246.1z M1009.9,2135.2v54l-27.7,27.7l-27-27L1009.9,2135.2z M899.1,2133.7l27.6-27.6
	l0.7-0.7l0,0l17.6-17.6l8.7-8.7v54l-27.7,27.7L899.1,2133.7z M897.7,2022.9v54l-27.7,27.7l-27-27L897.7,2022.9z M674.7,1908.8
	l22.1-22.1l6.2-6.2l0,0l15.9-15.9l10.4-10.4v54l-27.7,27.7L674.7,1908.8z M673.3,1797.9v54l-27.7,27.7l-27-27L673.3,1797.9z
	 M562.5,1796.4l51.8-51.8l2.8-2.8v54l-27.7,27.7L562.5,1796.4z M226,1459.3l28-28l0.4-0.4l0,0l26.3-26.3v54l-27.7,27.7L226,1459.3z
	 M280.7,1180.1v54l-27.7,27.7l-27-27L280.7,1180.1z M309.9,1206.5l27.5-27.5l27.5,27.5l-27.5,27.5L309.9,1206.5z M422.6,1038.2
	L422.6,1038.2l12.7-12.7l13.7-13.7v54l-27.7,27.7l-27-27l27.7-27.7L422.6,1038.2z M478.7,982.1l12.6-12.6l13.7-13.7v54l-27.7,27.7
	l-27-27l20.7-20.7L478.7,982.1L478.7,982.1z M534.7,926l26.4-26.4v54l-27.7,27.7l-27-27l23.8-23.8L534.7,926L534.7,926z M703,757.7
	l26.3-26.3v54L701.7,813l-27-27l23.8-23.8L703,757.7L703,757.7z M815.2,645.6l12.6-12.6l13.7-13.7v54l-27.7,27.7l-27-27l20.7-20.7
	L815.2,645.6L815.2,645.6z M1039.5,421.2l26.3-26.3v54l-27.7,27.7l-27-27l23.8-23.8L1039.5,421.2L1039.5,421.2z M1095.6,365.2
	l26.4-26.4v54l-27.7,27.7l-27-27l24.8-24.8L1095.6,365.2L1095.6,365.2z M1318.2,253.1l-27.4,27.4l-27.5-27.5l27.4-27.4L1318.2,253.1
	z M1291.3,224.5v-54l54.7,54.7l-27,27L1291.3,224.5z M1318.2,1263.6l-27.4,27.4l-27.5-27.5l27.4-27.4L1318.2,1263.6z M1291.3,1235
	v-54l54.7,54.7l-27,27L1291.3,1235z M1318.2,1375.8l-27.4,27.4l-27.5-27.5l27.4-27.4L1318.2,1375.8z M1291.3,1347.2v-54l54.7,54.7
	l-27,27L1291.3,1347.2z M1318.2,1488l-27.4,27.4l-27.5-27.5l27.4-27.4L1318.2,1488z M1291.3,1459.5v-54l54.7,54.7l-27,27
	L1291.3,1459.5z M1318.2,1600.3l-27.4,27.4l-27.5-27.5l27.4-27.4L1318.2,1600.3z M1291.3,1571.7v-54l54.7,54.7l-27,27L1291.3,1571.7
	z M281.9,1180.1l41,41l13.7,13.7l-27,27l-27.7-27.7V1180.1z M534.2,982.1l27.5-27.5l27.5,27.5l-27.5,27.5L548,995.9L534.2,982.1z
	 M870.7,645.6l27.5-27.5l27.5,27.5l-27.5,27.5l-13.7-13.7L870.7,645.6z M1095.1,421.3l27.5-27.5l27.5,27.5l-27.5,27.5l-10.9-10.9
	L1095.1,421.3z M1123.4,2246.1l23.8-23.8l4.5-4.5h0l8.1-8.1l18.2-18.2v54l-27.7,27.7L1123.4,2246.1z M1011.3,2133.8l54.6-54.6v54
	l-27.7,27.7L1011.3,2133.8z M674.7,1796.5l54.7-54.7v54l-27.7,27.7L674.7,1796.5z M562.5,1684.1l51.8-51.8l2.8-2.8v54l-27.7,27.7
	L562.5,1684.1z M450.4,1571.8l54.6-54.6v54l-27.7,27.7L450.4,1571.8z M338.2,1459.3l54.6-54.6v54l-27.7,27.7L338.2,1459.3z
	 M1067,394.9l54.7,54.7l-27,27l-27.7-27.7V394.9z M870.4,1935.8l-27.7-27.7v-54l54.7,54.7l-10.7,10.7L870.4,1935.8z M786.9,1908.8
	l27.6-27.6l0.7-0.7l0,0l17.6-17.6l8.7-8.7v54l-27.7,27.7L786.9,1908.8z M1233.9,674.2l-18.2,18.2l-8.8,8.8l-27.7-27.7v-54l41,41
	L1233.9,674.2z M1233.9,1684.6l-27,27l-27.7-27.7v-54l43.9,43.9L1233.9,1684.6z M1206.1,1937.2l-27.4,27.4l-27.5-27.5l27.4-27.4
	L1206.1,1937.2z M1179.2,1908.7v-54l54.7,54.7l-27,27L1179.2,1908.7z M1123.4,2133.9l23.8-23.8l4.5-4.5h0l8.1-8.1l18.2-18.2v54
	l-27.7,27.7L1123.4,2133.9z M1011.3,2021.5l23.8-23.8l4.5-4.5l0,0l26.3-26.3v54l-27.7,27.7L1011.3,2021.5z M899,1908.9l23.8-23.8
	l4.5-4.5v0l23.5-23.5l2.8-2.8v54l-27.7,27.7L899,1908.9z M786.9,1796.6l27.6-27.6l0.7-0.7l0,0l17.6-17.6l8.7-8.7v54l-27.7,27.7
	L786.9,1796.6z M562.5,1571.9l23.8-23.8l4.5-4.5v0l23.5-23.5l2.8-2.8v54l-27.7,27.7L562.5,1571.9z M338.2,1347.1l54.6-54.6v54
	l-27.7,27.7L338.2,1347.1z M282.1,1291l54.7-54.7v54l-27.7,27.7L282.1,1291z M309.9,1318.8l27.5-27.5l27.5,27.5l-27.5,27.5
	l-13.7-13.7L309.9,1318.8z M421.7,1261.9l-27.7-27.7v-54l54.7,54.7L421.7,1261.9z M506.4,1066.7l54.7-54.7v54l-27.7,27.7
	L506.4,1066.7z M758.3,925.4l-27.7-27.7v-54l54.7,54.7L758.3,925.4z M842.9,730.1l54.7-54.7v54l-27.7,27.7L842.9,730.1z M870.7,758
	l27.5-27.5l27.5,27.5l-27.5,27.5l-13.7-13.7L870.7,758z M982.6,701.1l-27.7-27.7v-54l54.7,54.7L982.6,701.1z M1094.7,588.9
	l-27.7-27.7v-54l54.7,54.7L1094.7,588.9z M1123.1,451.3l26.3,26.3l28.3,28.3l-26.9,26.9l-27.7-27.7V451.3z M1233.9,562l-13.4,13.4
	l-13.6,13.6l-27.7-27.7v-54l41,41L1233.9,562z M1122,2023.1v54l-27.7,27.7l-27-27L1122,2023.1z M1009.9,1910.7v54l-27.7,27.7l-27-27
	L1009.9,1910.7z M870.4,1823.6l-27.7-27.7v-54l54.7,54.7l-10.7,10.7L870.4,1823.6z M785.5,1685.7v54l-27.7,27.7l-27-27L785.5,1685.7
	z M674.7,1684.2l22.1-22.1l6.2-6.2l0,0l15.9-15.9l10.4-10.4v54l-27.7,27.7L674.7,1684.2z M478.7,1206.6l26.3-26.3v54l-27.7,27.7
	l-27-27l23.8-23.8L478.7,1206.6L478.7,1206.6z M646.1,1037.6l-27.7-27.7v-54l54.7,54.7L646.1,1037.6z M1039.5,645.8l26.3-26.3v54
	l-27.7,27.7l-27-27l22.1-22.1L1039.5,645.8L1039.5,645.8z M562.5,1459.7l54.6-54.6v54l-27.7,27.7L562.5,1459.7z M534.2,1206.7
	l27.5-27.5l27.5,27.5l-27.5,27.5l-13.7-13.7L534.2,1206.7z M703,982.3l26.3-26.3v54l-27.7,27.7l-27-27l22.1-22.1L703,982.3
	L703,982.3z M815.2,870.1l26.3-26.3v54l-27.7,27.7l-27-27l23.8-23.8L815.2,870.1L815.2,870.1z M870.7,870.2l27.5-27.5l27.5,27.5
	l-27.5,27.5l-13.7-13.7L870.7,870.2z M1095.1,645.9l27.5-27.5l27.5,27.5l-27.5,27.5l-10.9-10.9L1095.1,645.9z M1149.5,589.8
	l28.3,28.3l-26.9,26.9l-27.7-27.7v-53.8L1149.5,589.8z M1095.1,1937.7l0.5-0.5l0,0l26.4-26.4v54l-27.7,27.7l-27-27L1095.1,1937.7z
	 M1011.3,1909.3l54.6-54.6v54l-27.7,27.7L1011.3,1909.3z M899,1796.6l23.8-23.8l4.5-4.5v0l23.5-23.5l2.8-2.8v54l-27.7,27.7
	L899,1796.6z M870.4,1711.4l-27.7-27.7v-54l54.7,54.7l-10.7,10.7L870.4,1711.4z M786.9,1684.3l54.6-54.6v54l-27.7,27.7L786.9,1684.3
	z M674.7,1572l22.1-22.1l6.2-6.2l0,0l15.9-15.9l10.4-10.4v54l-27.7,27.7L674.7,1572z M450.4,1347.2l23.8-23.8l4.5-4.5l0,0l26.3-26.3
	v54l-27.7,27.7L450.4,1347.2z M506.2,1292.5l54.7,54.7l-27,27l-27.7-27.7V1292.5z M506.4,1291.1l23.8-23.8l4.5-4.5l0,0l26.4-26.4v54
	l-27.7,27.7L506.4,1291.1z M646.1,1149.8l-27.7-27.7v-54l54.7,54.7L646.1,1149.8z M815.2,982.3l26.3-26.3v54l-27.7,27.7l-27-27
	l23.8-23.8L815.2,982.3L815.2,982.3z M1039.5,758l26.3-26.3v54l-27.7,27.7l-27-27l23.8-23.8L1039.5,758L1039.5,758z M1095.6,702
	l26.4-26.4v54l-27.7,27.7l-27-27l23.8-23.8L1095.6,702L1095.6,702z M899,1684.4l28-28l0.4-0.4l0,0l26.3-26.3v54l-27.7,27.7
	L899,1684.4z M674.7,1459.7l22.1-22.1l6.2-6.2l0,0l15.9-15.9l10.4-10.4v54l-27.7,27.7L674.7,1459.7z M562.5,1347.2l54.6-54.6v54
	l-27.7,27.7L562.5,1347.2z M562.3,1236.6l26.3,26.3l28.3,28.3l-26.9,26.9l-27.7-27.7V1236.6z M703,1094.5l26.3-26.3v54l-27.7,27.7
	l-27-27l22.1-22.1L703,1094.5L703,1094.5z M1067,731.7l54.7,54.7l-27,27l-27.7-27.7V731.7z M1093.9,814.2l-27.4,27.4l-27.5-27.5
	l27.4-27.4L1093.9,814.2z M1093.9,1375.6l-27.4,27.4l-27.5-27.5l27.4-27.4L1093.9,1375.6z M1067,1347v-54l54.7,54.7l-27,27
	L1067,1347z M786.9,1572l22.1-22.1l6.2-6.2l0,0l26.3-26.3v54l-27.7,27.7L786.9,1572z M870.7,982.4l27.5-27.5l27.5,27.5l-27.5,27.5
	l-13.7-13.7L870.7,982.4z M899,1572.2l54.6-54.6v54l-27.7,27.7L899,1572.2z M674.7,1347.5l54.7-54.7v54l-27.7,27.7L674.7,1347.5z
	 M815.2,1094.6l26.3-26.3v54l-27.7,27.7l-27-27l23.8-23.8L815.2,1094.6L815.2,1094.6z M703,1206.8l26.3-26.3v54l-27.7,27.7l-27-27
	l23.8-23.8L703,1206.8L703,1206.8z M870.7,1094.7l27.5-27.5l27.5,27.5l-27.5,27.5l-13.7-13.7L870.7,1094.7z M870.4,1486.8
	l-27.7-27.7v-54l54.7,54.7l-10.7,10.7L870.4,1486.8z M786.9,1459.8l27.6-27.6l0.7-0.7l0,0l17.6-17.6l8.7-8.7v54l-27.7,27.7
	L786.9,1459.8z M814.4,1430.6l-27.7-27.7v-53.8l26.3,26.3l28.3,28.3l-13.4,13.4L814.4,1430.6z M982.6,1486.9l-27.7-27.7v-54
	l54.7,54.7L982.6,1486.9z M981.7,1487.7l-27.4,27.4l-27.5-27.5l27.4-27.4L981.7,1487.7z M953.7,1459.2l-27.7,27.7l-27-27l51.8-51.8
	l2.8-2.8V1459.2z M786.9,1347.5l27.6-27.6l0.7-0.7l0,0l17.6-17.6l8.7-8.7v54l-27.7,27.7L786.9,1347.5z M814.4,1318.4l-27.7-27.7
	v-53.8l26.3,26.3l28.3,28.3l-13.4,13.4L814.4,1318.4z M842.9,1179.3l54.7-54.7v54l-27.7,27.7L842.9,1179.3z M870.7,1207.1l27.5-27.5
	l27.5,27.5l-27.5,27.5L870.7,1207.1z M899,1123.1l54.6-54.6v54l-27.7,27.7L899,1123.1z M870.4,1374.6l-27.7-27.7v-54l54.7,54.7
	l-10.7,10.7L870.4,1374.6z M870.4,1262.4l-27.7-27.7v-54l54.7,54.7l-10.7,10.7L870.4,1262.4z M898,1346.5l-27.2-27.2l27.5-27.5
	l27.5,27.5l-27.5,27.5L898,1346.5z M871.2,1263.2l15.9-15.9l10.5-10.5v54l-27.7,27.7l-27-27l22.1-22.1L871.2,1263.2L871.2,1263.2z
	 M898.8,1290.8v-53.8l26.3,26.3l28.3,28.3l-26.9,26.9L898.8,1290.8z M899,1235.4l51.8-51.8l2.8-2.8v54l-27.7,27.7L899,1235.4z
	 M925.1,1151l28.3,28.3l-26.9,26.9l-27.7-27.7v-53.8L925.1,1151z M869.6,1263.2l-27.4,27.4l-27.5-27.5l27.4-27.4L869.6,1263.2z
	 M841.5,1234.6l-27.7,27.7l-27-27l54.6-54.6V1234.6z M842.1,1347.9l27.5,27.5l-27.4,27.4l-27.5-27.5L842.1,1347.9z M865,1381.6
	l6.2-6.2l0,0l15.9-15.9l10.5-10.5v54l-27.7,27.7l-27-27L865,1381.6z M898.8,1349.2l26.3,26.3l28.3,28.3l-26.9,26.9l-27.7-27.7
	V1349.2z M926.9,1375.4l27.4-27.4l27.5,27.5l-27.4,27.4L926.9,1375.4z M953.7,1346.9l-27.7,27.7l-27-27l51.8-51.8l2.8-2.8V1346.9z
	 M926.9,1263.2l27.4-27.4l27.5,27.5l-27.4,27.4L926.9,1263.2z M954.8,1234.7v-54l54.7,54.7l-27,27L954.8,1234.7z M926.9,1151
	l27.4-27.4l27.5,27.5l-27.4,27.4L926.9,1151z M954.8,1122.5v-54l54.7,54.7l-27,27L954.8,1122.5z M785.5,1236.7v54l-27.7,27.7l-27-27
	L785.5,1236.7z M786.1,1291.7l27.5,27.5l-27.5,27.5l-27.5-27.5L786.1,1291.7z M870.7,1431.5l27.5-27.5l27.5,27.5l-27.5,27.5
	l-0.3-0.3L870.7,1431.5z M982.6,1374.7l-27.7-27.7v-54l54.7,54.7L982.6,1374.7z M955.1,1179.3l27.8-27.8l0.5-0.5l0,0l26.4-26.4v54
	l-27.7,27.7L955.1,1179.3z M785.5,1178.3l-27.7,27.7l-27-27l54.7-54.7V1178.3z M786.1,1179.3l27.5,27.5l-27.5,27.5l-27.5-27.5
	L786.1,1179.3z M730.5,1180.4l54.7,54.7l-27,27l-27.7-27.7V1180.4z M757.4,1262.9l-27.4,27.4l-27.5-27.5l27.4-27.4L757.4,1262.9z
	 M982.9,1543.9l27.5-27.5l27.5,27.5l-27.5,27.5L982.9,1543.9z M1009.8,1515.4l-27.7,27.7l-27-27l54.7-54.7V1515.4z M1009.8,1349.1
	v54l-27.7,27.7l-27-27L1009.8,1349.1z M955.1,1291.6l27.8-27.8l0.5-0.5l0,0l26.4-26.4v54l-27.7,27.7L955.1,1291.6z M982.9,1207.1
	l27.5-27.5l27.5,27.5l-27.5,27.5L982.9,1207.1z M1011,1178.6v-53.8l26.3,26.3l28.3,28.3l-26.9,26.9L1011,1178.6z M982.9,1094.9
	l27.5-27.5l27.5,27.5l-27.5,27.5L982.9,1094.9z M1009.8,1066.4l-27.7,27.7l-27-27l54.7-54.7V1066.4z M954.8,956.1l54.7,54.7l-27,27
	l-27.7-27.7V956.1z M981.7,1038.6l-27.4,27.4l-27.5-27.5l27.4-27.4L981.7,1038.6z M925.1,1038.6l28.3,28.3l-26.9,26.9l-27.7-27.7
	v-53.8L925.1,1038.6z M842.7,1068.3l43.9,43.9l10.9,10.9l-27,27l-27.7-27.7V1068.3z M869.6,1150.8l-27.4,27.4l-27.5-27.5l27.4-27.4
	L869.6,1150.8z M813,1150.8l28.3,28.3l-26.9,26.9l-27.7-27.7v-53.8L813,1150.8z M700.8,1262.9l28.3,28.3l-26.9,26.9l-27.7-27.7
	v-53.9L700.8,1262.9z M701.4,1319l-27.5,27.5l-27.5-27.5l27.5-27.5L701.4,1319z M730.5,1292.8l54.7,54.7l-27,27l-27.7-27.7V1292.8z
	 M785.5,1349v54l-27.7,27.7l-27-27L785.5,1349z M786.1,1404l27.5,27.5l-27.5,27.5l-27.5-27.5L786.1,1404z M842.1,1460.2l27.5,27.5
	l-27.4,27.4l-27.5-27.5L842.1,1460.2z M865,1493.9l6.2-6.2l0,0l15.9-15.9l10.5-10.5v54l-27.7,27.7l-27-27L865,1493.9z M898.8,1461.4
	l26.3,26.3l28.3,28.3l-26.9,26.9l-27.7-27.7V1461.4z M954.8,1517.5l54.7,54.7l-27,27l-27.7-27.7V1517.5z M982.9,1600.5l0.5-0.5l0,0
	l26.4-26.4v54l-27.7,27.7l-27-27L982.9,1600.5z M1011,1573.8l26.3,26.3l28.3,28.3l-26.9,26.9l-27.7-27.7V1573.8z M1011,1515.4v-53.8
	l26.3,26.3l28.3,28.3l-26.9,26.9L1011,1515.4z M982.9,1431.6l27.5-27.5l27.5,27.5l-27.5,27.5L982.9,1431.6z M1011,1403.1v-53.8
	l26.3,26.3l28.3,28.3l-26.9,26.9L1011,1403.1z M982.9,1319.4l27.5-27.5l27.5,27.5l-27.5,27.5L982.9,1319.4z M1011,1290.8V1237
	l26.3,26.3l28.3,28.3l-26.9,26.9L1011,1290.8z M1011,1066.4v-53.8l26.3,26.3l28.3,28.3l-26.9,26.9L1011,1066.4z M982.9,982.5
	l27.5-27.5l27.5,27.5l-27.5,27.5L982.9,982.5z M1009.8,953.9l-27.7,27.7l-27-27l54.7-54.7V953.9z M953.7,1010.1l-27.7,27.7l-27-27
	l54.6-54.6V1010.1z M871.2,1038.5l26.4-26.4v54l-27.7,27.7l-27-27l23.8-23.8L871.2,1038.5L871.2,1038.5z M673.3,1290.4l-27.7,27.7
	l-27-27l54.7-54.7V1290.4z M729.9,1347.9l27.5,27.5l-27.4,27.4l-27.5-27.5L729.9,1347.9z M786.6,1461.3l26.3,26.3l28.3,28.3
	l-26.9,26.9l-27.7-27.7V1461.3z M870.7,1543.8l27.5-27.5l27.5,27.5l-27.5,27.5l-13.7-13.7L870.7,1543.8z M954.3,1572.6l27.5,27.5
	l-27.4,27.4l-27.5-27.5L954.3,1572.6z M982.9,1656.2l27.5-27.5l27.5,27.5l-27.5,27.5L982.9,1656.2z M1011.2,1572.2l27.6-27.6
	l0.7-0.7l0,0l17.6-17.6l8.7-8.7v54l-27.7,27.7L1011.2,1572.2z M1039,1263.3l27.4-27.4l27.5,27.5l-27.4,27.4L1039,1263.3z
	 M1065.8,1234.8l-27.7,27.7l-27-27l27.6-27.6l0.7-0.7l0,0l17.6-17.6l8.7-8.7V1234.8z M1039,1151l27.4-27.4l27.5,27.5l-27.4,27.4
	L1039,1151z M1065.8,1122.5l-27.7,27.7l-27-27l27.6-27.6l0.7-0.7l0,0l17.6-17.6l8.7-8.7V1122.5z M1038.7,981.7l-27.7-27.7v-53.8
	l26.3,26.3l28.3,28.3L1038.7,981.7z M1011.2,898.6l23.8-23.8l4.5-4.5l0,0l26.3-26.3v54l-27.7,27.7L1011.2,898.6z M730.5,1068.2
	l54.7,54.7l-27,27l-27.7-27.7V1068.2z M757.4,1150.7l-27.4,27.4l-27.5-27.5l27.4-27.4L757.4,1150.7z M700.8,1150.7l28.3,28.3
	l-26.9,26.9l-27.7-27.7v-53.9L700.8,1150.7z M701.4,1206.8l-27.5,27.5l-27.5-27.5l27.5-27.5L701.4,1206.8z M618.3,1180.4l54.7,54.7
	l-27,27l-27.7-27.7V1180.4z M618.3,1292.6l54.7,54.7l-27,27l-27.7-27.7V1292.6z M730.5,1405.1l54.7,54.7l-27,27l-27.7-27.7V1405.1z
	 M785.5,1461.2v54l-27.7,27.7l-27-27L785.5,1461.2z M786.1,1516.2l27.5,27.5l-27.5,27.5l-27.5-27.5L786.1,1516.2z M842.7,1517.4
	l43.9,43.9l10.9,10.9l-27,27l-27.7-27.7V1517.4z M954.8,1629.8l54.7,54.7l-27,27l-27.7-27.7V1629.8z M982.9,1712.8l0.5-0.5l0,0
	l26.4-26.4v54l-27.7,27.7l-27-27L982.9,1712.8z M1011,1686l26.3,26.3l28.3,28.3l-26.9,26.9l-27.7-27.7V1686z M1011.2,1684.5
	l27.6-27.6l0.7-0.7l0,0l17.6-17.6l8.7-8.7v54l-27.7,27.7L1011.2,1684.5z M1039,1600l27.4-27.4l27.5,27.5l-27.4,27.4L1039,1600z
	 M1067,1571.6v-54l54.7,54.7l-27,27L1067,1571.6z M1039,1487.8l27.4-27.4l27.5,27.5l-27.4,27.4L1039,1487.8z M1065.8,1459.3
	l-27.7,27.7l-27-27l54.6-54.6V1459.3z M1065.8,1347l-27.7,27.7l-27-27l27.6-27.6l0.7-0.7l0,0l17.6-17.6l8.7-8.7V1347z
	 M1094.7,1262.5l-27.7-27.7v-54l54.7,54.7L1094.7,1262.5z M1094.7,1150.3l-27.7-27.7v-54l54.7,54.7L1094.7,1150.3z M1039,1038.8
	l27.4-27.4l27.5,27.5l-27.4,27.4L1039,1038.8z M1065.8,1010.3l-27.7,27.7l-27-27l54.6-54.6V1010.3z M1039,926.4l27.4-27.4l27.5,27.5
	l-27.4,27.4L1039,926.4z M1067,897.9v-54l54.7,54.7l-27,27L1067,897.9z M1037.3,814.2l28.3,28.3l-26.9,26.9l-27.7-27.7v-53.8
	L1037.3,814.2z M1037.9,870.3l-27.5,27.5l-27.5-27.5l27.5-27.5L1037.9,870.3z M1009.8,841.7l-27.7,27.7l-27-27l54.7-54.7V841.7z
	 M954.8,843.9l54.7,54.7l-27,27l-27.7-27.7V843.9z M981.7,926.4l-27.4,27.4l-27.5-27.5l27.4-27.4L981.7,926.4z M925.1,926.4
	l28.3,28.3l-26.9,26.9l-27.7-27.7V900L925.1,926.4z M871.2,926.3l26.4-26.4v54l-27.7,27.7l-27-27l23.8-23.8L871.2,926.3L871.2,926.3
	z M842.7,956l43.9,43.9l10.9,10.9l-27,27l-27.7-27.7V956z M869.6,1038.5l-27.4,27.4l-27.5-27.5l27.4-27.4L869.6,1038.5z M813,1038.5
	l28.3,28.3l-26.9,26.9l-27.7-27.7v-53.8L813,1038.5z M813.5,1094.6l-27.5,27.5l-27.5-27.5l27.5-27.5L813.5,1094.6z M785.5,1066
	l-27.7,27.7l-27-27l54.7-54.7V1066z M673.3,1178.2l-27.7,27.7l-27-27l54.7-54.7V1178.2z M645.2,1262.9l-27.4,27.4l-27.5-27.5
	l27.4-27.4L645.2,1262.9z M617.8,1347.6l27.5,27.5l-27.4,27.4l-27.5-27.5L617.8,1347.6z M673.3,1348.9v54l-27.7,27.7l-27-27
	L673.3,1348.9z M674.5,1349l26.3,26.3l28.3,28.3l-26.9,26.9l-27.7-27.7V1349z M729.9,1460.1l27.5,27.5L730,1515l-27.5-27.5
	L729.9,1460.1z M814.7,1599.8l27.4-27.4l27.5,27.5l-27.4,27.4L814.7,1599.8z M897.6,1573.6v54l-27.7,27.7l-27-27L897.6,1573.6z
	 M898.8,1573.7l26.3,26.3l28.3,28.3l-26.9,26.9l-27.7-27.7V1573.7z M954.3,1684.8l27.5,27.5l-27.4,27.4l-27.5-27.5L954.3,1684.8z
	 M982.9,1768.4l27.5-27.5l27.5,27.5l-27.5,27.5L982.9,1768.4z M1039,1712.3l27.4-27.4l27.5,27.5l-27.4,27.4L1039,1712.3z
	 M1067,1683.8v-54l54.7,54.7l-27,27L1067,1683.8z M1067.3,1516.2l28-28l0.3-0.3l0,0l26.4-26.4v54l-27.7,27.7L1067.3,1516.2z
	 M1094.7,1487.1l-27.7-27.7v-54l54.7,54.7L1094.7,1487.1z M1091.1,1267.8l4.5-4.5l0,0l15.9-15.9l10.5-10.5v54l-27.7,27.7l-27-27
	L1091.1,1267.8z M1067.3,1179.4l23.8-23.8l4.5-4.5l0,0l15.9-15.9l10.5-10.5v54l-27.7,27.7L1067.3,1179.4z M1067.3,1067.2l23.8-23.8
	l4.5-4.5l0,0l15.9-15.9l10.5-10.5v54l-27.7,27.7L1067.3,1067.2z M1094.7,1038l-27.7-27.7v-54l54.7,54.7L1094.7,1038z M1067.3,842.5
	l23.8-23.8l4.5-4.5l0,0l26.4-26.4v54l-27.7,27.7L1067.3,842.5z M953.7,897.8L926,925.5l-27-27l54.6-54.6V897.8z M617.2,1180.4v54
	l-27.7,27.7l-27-27l51.8-51.8L617.2,1180.4z M534.2,1318.9l27.5-27.5l27.5,27.5l-27.5,27.5l-13.7-13.7L534.2,1318.9z M646.4,1431.4
	l27.5-27.5l27.5,27.5l-27.5,27.5L646.4,1431.4z M730.5,1517.3l54.7,54.7l-27,27l-27.7-27.7V1517.3z M786.6,1573.6l26.3,26.3
	l28.3,28.3l-26.9,26.9l-27.7-27.7V1573.6z M870.7,1656.1l27.5-27.5l27.5,27.5l-27.5,27.5L870.7,1656.1z M954.8,1742l54.7,54.7
	l-27,27l-27.7-27.7V1742z M1094.7,1823.8L1067,1796v-54l54.7,54.7L1094.7,1823.8z M1093.9,1824.6l-27.4,27.4l-27.5-27.5l27.4-27.4
	L1093.9,1824.6z M1065.8,1796l-27.7,27.7l-27-27l27.6-27.6l0.7-0.7l0,0l17.6-17.6l8.7-8.7V1796z M1067.3,1628.4l28-28l0.3-0.3l0,0
	l26.4-26.4v54l-27.7,27.7L1067.3,1628.4z M1095.1,1544l27.5-27.5l27.5,27.5l-27.5,27.5L1095.1,1544z M1067.3,1404l54.7-54.7v54
	l-27.7,27.7L1067.3,1404z M1095.1,1319.4l27.5-27.5l27.5,27.5l-27.5,27.5L1095.1,1319.4z M1095.1,1207.2l27.5-27.5l27.5,27.5
	l-27.5,27.5L1095.1,1207.2z M1095.1,1095l27.5-27.5l27.5,27.5l-27.5,27.5L1095.1,1095z M1067.3,954.9l54.7-54.7v54l-27.7,27.7
	L1067.3,954.9z M1111.6,886.9l-16.6-16.6l27.5-27.5l27.5,27.5l-27.5,27.5L1111.6,886.9z M1111.6,774.7l-16.6-16.6l27.5-27.5
	l27.5,27.5l-27.5,27.5L1111.6,774.7z M982.6,813.3l-27.7-27.7v-54l54.7,54.7L982.6,813.3z M981.7,814.1l-27.4,27.4l-27.5-27.5
	l27.4-27.4L981.7,814.1z M897.4,898.5l-27,27l-27.7-27.7v-54l43.9,43.9L897.4,898.5z M869.6,926.3l-27.4,27.4l-27.5-27.5l27.4-27.4
	L869.6,926.3z M758.3,1037.6l-27.7-27.7v-54l54.7,54.7L758.3,1037.6z M757.4,1038.5l-27.4,27.4l-27.5-27.5l27.4-27.4L757.4,1038.5z
	 M700.8,1038.5l28.3,28.3l-26.9,26.9l-27.7-27.7v-53.9L700.8,1038.5z M701.4,1094.5l-27.5,27.5l-27.5-27.5l27.5-27.5L701.4,1094.5z
	 M645.2,1150.7l-27.4,27.4l-27.5-27.5l27.4-27.4L645.2,1150.7z M505.6,1347.6l27.5,27.5l-27.4,27.4l-27.5-27.5L505.6,1347.6z
	 M562.3,1348.8l26.3,26.3l28.3,28.3l-26.9,26.9l-27.7-27.7V1348.8z M618.3,1405l54.7,54.7l-27,27l-27.7-27.7V1405z M646.4,1488
	l0.5-0.5l0,0l26.4-26.4v54l-27.7,27.7l-27-27L646.4,1488z M674.5,1461.2l26.3,26.3l28.3,28.3l-26.9,26.9l-27.7-27.7V1461.2z
	 M729.9,1572.3l27.5,27.5l-27.4,27.4l-27.5-27.5L729.9,1572.3z M785.5,1573.4v54l-27.7,27.7l-27-27L785.5,1573.4z M786.1,1628.4
	l27.5,27.5l-27.5,27.5l-27.5-27.5L786.1,1628.4z M865,1718.4l6.2-6.2l0,0l15.9-15.9l10.5-10.5v54l-27.7,27.7l-27-27L865,1718.4z
	 M898.8,1686l26.3,26.3l28.3,28.3l-26.9,26.9l-27.7-27.7V1686z M954.3,1797l27.5,27.5l-27.4,27.4l-27.5-27.5L954.3,1797z
	 M982.9,1825l0.5-0.5l0,0l26.4-26.4v54l-27.7,27.7l-27-27L982.9,1825z M1011,1798.3l26.3,26.3l28.3,28.3l-26.9,26.9l-27.7-27.7
	V1798.3z M1066.5,1909.7l27.5,27.5l-27.4,27.4l-27.5-27.5L1066.5,1909.7z M1121.8,1909.4l-27,27l-27.7-27.7v-54l43.9,43.9
	L1121.8,1909.4z M1067.3,1853.2l54.7-54.7v54l-27.7,27.7L1067.3,1853.2z M1095.2,1712.7l0.3-0.3l0,0l26.4-26.4v54l-27.7,27.7l-27-27
	L1095.2,1712.7z M1095.1,1656.2l27.5-27.5l27.5,27.5l-27.5,27.5L1095.1,1656.2z M1123.1,1627.7v-53.8l26.3,26.3l28.3,28.3
	l-26.9,26.9L1123.1,1627.7z M1123.4,1572.3l28-28l0.4-0.4l0,0l26.3-26.3v54l-27.7,27.7L1123.4,1572.3z M1123.1,1515.4v-53.8
	l26.3,26.3l28.3,28.3l-26.9,26.9L1123.1,1515.4z M1095.1,1431.8l27.5-27.5l27.5,27.5l-27.5,27.5L1095.1,1431.8z M1123.1,1403.2
	v-53.8l26.3,26.3l28.3,28.3l-26.9,26.9L1123.1,1403.2z M1123.1,1290.9v-53.8l26.3,26.3l28.3,28.3l-26.9,26.9L1123.1,1290.9z
	 M1123.1,1178.7v-53.8l26.3,26.3l28.3,28.3l-26.9,26.9L1123.1,1178.7z M1123.1,1066.4v-53.8l26.3,26.3l28.3,28.3l-26.9,26.9
	L1123.1,1066.4z M1095.1,982.7l27.5-27.5l27.5,27.5l-27.5,27.5L1095.1,982.7z M1123.1,954.2v-53.8l26.3,26.3l28.3,28.3l-26.9,26.9
	L1123.1,954.2z M1150.9,869.5l-27.7-27.7V788l26.3,26.3l28.3,28.3L1150.9,869.5z M1123.1,729.5v-53.8l26.3,26.3l28.3,28.3
	l-26.9,26.9L1123.1,729.5z M1067,619.5l54.7,54.7l-27,27l-27.7-27.7V619.5z M1093.9,702l-27.4,27.4l-27.5-27.5l27.4-27.4L1093.9,702
	z M1037.3,702l28.3,28.3l-26.9,26.9l-27.7-27.7v-53.8L1037.3,702z M1037.9,758l-27.5,27.5L982.9,758l27.5-27.5L1037.9,758z
	 M953.7,731.6v54L926,813.2l-27-27l51.8-51.8L953.7,731.6z M925.1,814.1l28.3,28.3l-26.9,26.9l-27.7-27.7v-53.8L925.1,814.1z
	 M813,926.3l28.3,28.3l-26.9,26.9l-27.7-27.7V900L813,926.3z M813.5,982.3l-27.5,27.5l-27.5-27.5l27.5-27.5L813.5,982.3z
	 M785.5,953.8l-27.7,27.7l-27-27l54.7-54.7V953.8z M673.3,1066l-27.7,27.7l-27-27l54.7-54.7V1066z M617.2,1068.1v54l-27.7,27.7
	l-27-27l51.8-51.8L617.2,1068.1z M588.6,1150.7l28.3,28.3l-26.9,26.9l-27.7-27.7v-53.8L588.6,1150.7z M506.2,1180.3l54.7,54.7
	l-27,27l-27.7-27.7V1180.3z M533.1,1262.8l-27.4,27.4l-27.5-27.5l27.4-27.4L533.1,1262.8z M476.5,1262.8l28.3,28.3l-26.9,26.9
	l-27.7-27.7v-53.8L476.5,1262.8z M477,1318.9l-27.5,27.5l-27.5-27.5l27.5-27.5L477,1318.9z M450.1,1348.7l26.3,26.3l28.3,28.3
	l-26.9,26.9l-27.7-27.7V1348.7z M506.4,1403.4l23.8-23.8l4.5-4.5l0,0l26.4-26.4v54l-27.7,27.7L506.4,1403.4z M534.2,1431.2
	l27.5-27.5l27.5,27.5l-27.5,27.5l-13.7-13.7L534.2,1431.2z M617.8,1460.1l27.5,27.5l-27.4,27.4l-27.5-27.5L617.8,1460.1z
	 M646.4,1543.7l27.5-27.5l27.5,27.5l-27.5,27.5L646.4,1543.7z M842.1,1684.7l27.5,27.5l-27.4,27.4l-27.5-27.5L842.1,1684.7z
	 M870.7,1768.3l27.5-27.5l27.5,27.5l-27.5,27.5L870.7,1768.3z M982.9,1880.6l27.5-27.5l27.5,27.5l-27.5,27.5L982.9,1880.6z
	 M1095.1,1993.3l27.5-27.5l27.5,27.5l-27.5,27.5l-13.7-13.7L1095.1,1993.3z M1123.2,1964.7v-53.8l26.3,26.3l28.3,28.3l-26.9,26.9
	L1123.2,1964.7z M1108.9,1894.8l-13.7-13.7l27.5-27.5l27.5,27.5l-27.5,27.5L1108.9,1894.8z M1123.2,1852.5v-53.8l26.3,26.3
	l28.3,28.3l-26.9,26.9L1123.2,1852.5z M1095.1,1768.5l27.5-27.5l27.5,27.5l-27.5,27.5L1095.1,1768.5z M1151.2,1600.1l27.4-27.4
	l27.5,27.5l-27.4,27.4L1151.2,1600.1z M1123.4,1460.1l28-28l0.4-0.4l0,0l26.3-26.3v54l-27.7,27.7L1123.4,1460.1z M1123.4,1347.8
	l54.6-54.6v54l-27.7,27.7L1123.4,1347.8z M1123.4,1235.5l23.8-23.8l4.5-4.5l0,0l26.3-26.3v54l-27.7,27.7L1123.4,1235.5z
	 M1123.4,1123.3l23.8-23.8l4.5-4.5l0,0l26.3-26.3v54l-27.7,27.7L1123.4,1123.3z M1123.4,1011.1l28-28l0.4-0.4l0,0l26.3-26.3v54
	l-27.7,27.7L1123.4,1011.1z M1123.4,898.8l54.6-54.6v54l-27.7,27.7L1123.4,898.8z M1123.4,786.4l54.6-54.6v54l-27.7,27.7
	L1123.4,786.4z M1123.4,674.2l54.6-54.6v54l-27.7,27.7L1123.4,674.2z M1151.2,589.7l27.4-27.4l27.5,27.5l-27.4,27.4L1151.2,589.7z
	 M1178,561.3l-27.7,27.7l-27-27l54.6-54.6V561.3z M1095.6,589.7l26.4-26.4v54l-27.7,27.7l-27-27l23.8-23.8L1095.6,589.7
	L1095.6,589.7z M1009.8,729.5l-27.7,27.7l-27-27l54.7-54.7V729.5z M871.2,814.1l26.4-26.4v54l-27.7,27.7l-27-27l23.8-23.8
	L871.2,814.1L871.2,814.1z M534.7,1150.6l26.4-26.4v54l-27.7,27.7l-27-27l23.8-23.8L534.7,1150.6L534.7,1150.6z M449,1290.3
	l-27.7,27.7l-27-27l54.7-54.7V1290.3z M394,1292.5l54.7,54.7l-27,27l-27.7-27.7V1292.5z M449,1348.6v54l-27.7,27.7l-27-27
	L449,1348.6z M449.5,1403.6l27.5,27.5l-27.5,27.5l-27.5-27.5L449.5,1403.6z M506.2,1404.8l54.7,54.7l-27,27l-27.7-27.7V1404.8z
	 M618.3,1517.3L673,1572l-27,27l-27.7-27.7V1517.3z M646.4,1600.3l0.5-0.5l0,0l26.4-26.4v54l-27.7,27.7l-27-27L646.4,1600.3z
	 M674.5,1573.5l26.3,26.3l28.3,28.3l-26.9,26.9l-27.7-27.7V1573.5z M730.5,1629.5l54.7,54.7l-27,27l-27.7-27.7V1629.5z
	 M786.6,1685.9l26.3,26.3l28.3,28.3l-26.9,26.9l-27.7-27.7V1685.9z M865,1830.6l6.2-6.2l0,0l15.9-15.9l10.5-10.5v54l-27.7,27.7
	l-27-27L865,1830.6z M898.8,1798.2l26.3,26.3l28.3,28.3l-26.9,26.9l-27.7-27.7V1798.2z M954.8,1854.2l54.7,54.7l-27,27l-27.7-27.7
	V1854.2z M1011,1910.8l26.3,26.3l28.3,28.3l-26.9,26.9l-27.7-27.7V1910.8z M1067.1,1966.9l41,41l13.7,13.7l-27,27l-27.7-27.7V1966.9
	z M1123.2,2023.2l26.3,26.3l28.3,28.3l-26.9,26.9l-27.7-27.7V2023.2z M1151.2,2049.5l27.4-27.4l27.5,27.5l-27.4,27.4L1151.2,2049.5z
	 M1178.1,2021l-27.7,27.7l-27-27l54.6-54.6V2021z M1150.9,1767.6l-27.7-27.7v-53.8l26.3,26.3l28.3,28.3L1150.9,1767.6z
	 M1123.4,1684.5l28-28l0.4-0.4l0,0l26.3-26.3v54l-27.7,27.7L1123.4,1684.5z M1233.9,1572.4l-27,27l-27.7-27.7v-54l43.9,43.9
	L1233.9,1572.4z M1151.2,1487.9l27.4-27.4l27.5,27.5l-27.4,27.4L1151.2,1487.9z M1151.2,1375.6l27.4-27.4l27.5,27.5l-27.4,27.4
	L1151.2,1375.6z M1151.2,1263.3l27.4-27.4l27.5,27.5l-27.4,27.4L1151.2,1263.3z M1151.2,1151.1l27.4-27.4l27.5,27.5l-27.4,27.4
	L1151.2,1151.1z M1151.2,1038.9l27.4-27.4l27.5,27.5l-27.4,27.4L1151.2,1038.9z M1151.2,926.6l27.4-27.4l27.5,27.5l-27.4,27.4
	L1151.2,926.6z M1178.7,841.7l-27.5-27.5l27.4-27.4l27.5,27.5L1178.7,841.7z M1151.2,702l27.4-27.4l27.5,27.5l-27.4,27.4L1151.2,702
	z M925.1,701.9l28.3,28.3l-26.9,26.9l-27.7-27.7v-53.8L925.1,701.9z M897.4,786.3l-27,27l-27.7-27.7v-54l43.9,43.9L897.4,786.3z
	 M813,814.1l28.3,28.3l-26.9,26.9l-27.7-27.7v-53.8L813,814.1z M813.5,870.1l-27.5,27.5l-27.5-27.5l27.5-27.5L813.5,870.1z
	 M785.5,841.6l-27.7,27.7l-27-27l54.7-54.7V841.6z M700.8,926.2l28.3,28.3l-26.9,26.9l-27.7-27.7v-53.9L700.8,926.2z M701.4,982.3
	l-27.5,27.5l-27.5-27.5l27.5-27.5L701.4,982.3z M673.3,953.7l-27.7,27.7l-27-27l54.7-54.7V953.7z M645.2,1038.4l-27.4,27.4
	l-27.5-27.5l27.4-27.4L645.2,1038.4z M617.2,1009.9l-27.7,27.7l-27-27l54.6-54.6V1009.9z M588.6,1038.4l28.3,28.3l-26.9,26.9
	l-27.7-27.7v-53.8L588.6,1038.4z M589.2,1094.5l-27.5,27.5l-13.7-13.7l-13.7-13.7l27.5-27.5L589.2,1094.5z M533.9,1149.8l-27.7-27.7
	v-54l54.7,54.7L533.9,1149.8z M393.4,1347.5l27.5,27.5l-27.4,27.4l-27.5-27.5L393.4,1347.5z M450.4,1459.4l23.8-23.8l4.5-4.5l0,0
	l26.3-26.3v54l-27.7,27.7L450.4,1459.4z M505.6,1459.8l27.5,27.5l-27.4,27.4l-27.5-27.5L505.6,1459.8z M561.1,1461.1v54l-27.7,27.7
	l-27-27L561.1,1461.1z M562.3,1461.2l26.3,26.3l28.3,28.3l-26.9,26.9l-27.7-27.7V1461.2z M617.8,1572.3l27.5,27.5l-27.4,27.4
	l-27.5-27.5L617.8,1572.3z M646.4,1655.9l27.5-27.5l27.5,27.5l-27.5,27.5L646.4,1655.9z M702.5,1712l27.4-27.4l27.5,27.5l-27.4,27.4
	L702.5,1712z M758.6,1768.3l27.5-27.5l27.5,27.5l-27.5,27.5L758.6,1768.3z M842.1,1797l27.5,27.5l-27.4,27.4l-27.5-27.5L842.1,1797z
	 M870.7,1880.6l27.5-27.5l27.5,27.5l-27.5,27.5L870.7,1880.6z M954.3,1909.3l27.5,27.5l-27.4,27.4l-27.5-27.5L954.3,1909.3z
	 M983,1993.2l27.5-27.5l27.5,27.5l-27.5,27.5L983,1993.2z M1039.1,2049.3l27.4-27.4l27.5,27.5l-27.4,27.4L1039.1,2049.3z
	 M1095.1,2105.6l27.5-27.5l27.5,27.5l-27.5,27.5l-13.7-13.7L1095.1,2105.6z M1178.6,2134.3l27.5,27.5l-27.4,27.4l-27.5-27.5
	L1178.6,2134.3z M1207,2161l-27.7-27.7v-54l54.7,54.7L1207,2161z M1207,2048.7l-27.7-27.7v-54l54.7,54.7L1207,2048.7z
	 M1178.1,1908.7l-27.7,27.7l-27-27l23.8-23.8l4.5-4.5l0,0l15.9-15.9l10.4-10.4V1908.7z M1151.2,1824.9l27.4-27.4l27.5,27.5
	l-27.4,27.4L1151.2,1824.9z M1178.1,1796.4l-27.7,27.7l-27-27l54.6-54.6V1796.4z M1151.2,1712.4l27.4-27.4l27.5,27.5l-27.4,27.4
	L1151.2,1712.4z M1179.4,1628.5l27.8-27.8l0.5-0.5l0,0l26.4-26.4v54l-27.7,27.7L1179.4,1628.5z M1221,1557.8l-13.7-13.7l27.5-27.5
	l27.5,27.5l-27.5,27.5L1221,1557.8z M1234.1,1515.5l-27.7,27.7l-27-27l27.8-27.8l0.5-0.5l0,0l26.4-26.4V1515.5z M1233.9,1460.1
	l-27,27l-27.7-27.7v-54l43.9,43.9L1233.9,1460.1z M1179.4,1404l27.8-27.8l0.5-0.5l0,0l26.4-26.4v54l-27.7,27.7L1179.4,1404z
	 M1233.9,1347.9l-27,27l-27.7-27.7v-54l43.9,43.9L1233.9,1347.9z M1179.4,1291.8l54.7-54.7v54l-27.7,27.7L1179.4,1291.8z
	 M1233.9,1235.6l-27,27l-27.7-27.7v-54l41,41L1233.9,1235.6z M1179.4,1179.5l27.8-27.8l0.5-0.5l0,0l26.4-26.4v54l-27.7,27.7
	L1179.4,1179.5z M1233.9,1123.4l-27,27l-27.7-27.7v-54l41,41L1233.9,1123.4z M1179.4,1067.2l27.8-27.8l0.5-0.5l0,0l26.4-26.4v54
	l-27.7,27.7L1179.4,1067.2z M1233.9,1011.1l-27,27l-27.7-27.7v-54l43.9,43.9L1233.9,1011.1z M1179.4,955l27.8-27.8l0.5-0.5l0,0
	l26.4-26.4v54l-27.7,27.7L1179.4,955z M1233.9,898.9l-27,27l-27.7-27.7v-54L1223,888L1233.9,898.9z M1179.4,842.8l54.7-54.7v54
	l-27.7,27.7L1179.4,842.8z M1233.9,786.5l-27,27l-27.7-27.7v-54l41,41L1233.9,786.5z M1179.4,618.1l54.7-54.7v54l-27.7,27.7
	L1179.4,618.1z M1207.2,533.7l27.5-27.5l27.5,27.5l-27.5,27.5L1207.2,533.7z M1234.1,505.1l-27.7,27.7l-27-27l54.7-54.7V505.1z
	 M1233.9,449.8l-13.4,13.4l-13.6,13.6l-27.7-27.7v-54l41,41L1233.9,449.8z M1206.1,477.6l-27.4,27.4l-27.5-27.5l27.4-27.4
	L1206.1,477.6z M1178,449l-27.7,27.7l-27-27l54.6-54.6V449z M1122,451.1v54l-27.7,27.7l-27-27L1122,451.1z M1095.1,533.6l27.5-27.5
	l27.5,27.5l-27.5,27.5l-10.9-10.9L1095.1,533.6z M1093.9,589.7l-27.4,27.4l-27.5-27.5l27.4-27.4L1093.9,589.7z M1065.8,561.2
	l-27.7,27.7l-27-27l54.6-54.6V561.2z M1037.3,589.7l28.3,28.3l-26.9,26.9l-27.7-27.7v-53.8L1037.3,589.7z M1037.9,645.8l-27.5,27.5
	l-27.5-27.5l27.5-27.5L1037.9,645.8z M1009.8,617.2L982.1,645l-27-27l54.7-54.7V617.2z M981.7,701.9l-27.4,27.4l-27.5-27.5
	l27.4-27.4L981.7,701.9z M953.7,673.4L926,701l-27-27l54.6-54.6V673.4z M869.6,814.1l-27.4,27.4L814.7,814l27.4-27.4L869.6,814.1z
	 M841.5,785.5l-27.7,27.7l-27-27l54.6-54.6V785.5z M757.4,926.2L730,953.7l-27.5-27.5l27.4-27.4L757.4,926.2z M729.4,897.7
	l-27.7,27.7l-27-27l54.7-54.7V897.7z M533.1,1150.6l-27.4,27.4l-27.5-27.5l27.4-27.4L533.1,1150.6z M505,1122l-27.7,27.7l-27-27
	l54.6-54.6V1122z M476.5,1150.6l28.3,28.3l-26.9,26.9l-27.7-27.7v-53.8L476.5,1150.6z M477,1206.6l-27.5,27.5l-27.5-27.5l27.5-27.5
	L477,1206.6z M449,1178.1l-27.7,27.7l-27-27l54.7-54.7V1178.1z M420.9,1262.7l-27.4,27.4l-27.5-27.5l27.4-27.4L420.9,1262.7z
	 M392.8,1234.2l-27.7,27.7l-27-27l54.6-54.6V1234.2z M364.3,1262.7l28.3,28.3l-26.9,26.9l-27.7-27.7v-53.8L364.3,1262.7z
	 M281.9,1292.4l43.9,43.9l10.9,10.9l-27,27l-27.7-27.7V1292.4z M394,1404.7l54.7,54.7l-27,27l-27.7-27.7V1404.7z M450.1,1461
	l26.3,26.3l28.3,28.3l-26.9,26.9l-27.7-27.7V1461z M534.2,1543.6l27.5-27.5l27.5,27.5l-27.5,27.5L534.2,1543.6z M618.3,1629.5
	l54.7,54.7l-27,27l-27.7-27.7V1629.5z M674.5,1685.7l26.3,26.3l28.3,28.3l-26.9,26.9l-27.7-27.7V1685.7z M730.5,1741.9l54.7,54.7
	l-27,27l-27.7-27.7V1741.9z M954.9,1966.8l54.7,54.7l-27,27l-27.7-27.7V1966.8z M1067.1,2079.2l43.9,43.9l10.9,10.9l-27,27
	l-27.7-27.7V2079.2z M1179.2,2191.5l54.7,54.7l-27,27l-27.7-27.7V2191.5z M1179.5,2190.1l28-28l0.3-0.3l0,0l26.4-26.4v54l-27.7,27.7
	L1179.5,2190.1z M1179.5,2077.9l28-28l0.3-0.3l0,0l26.4-26.4v54l-27.7,27.7L1179.5,2077.9z M1207.5,1825.3l0.3-0.3l0,0l26.4-26.4v54
	l-27.7,27.7l-27-27L1207.5,1825.3z M1207,1824.2l-27.7-27.7v-54l54.7,54.7L1207,1824.2z M1221,1670l-13.7-13.7l27.5-27.5l27.5,27.5
	l-27.5,27.5L1221,1670z M1235.3,1515.5v-53.8l26.3,26.3l28.3,28.3l-26.9,26.9L1235.3,1515.5z M1221,1445.6l-13.7-13.7l27.5-27.5
	l27.5,27.5l-27.5,27.5L1221,1445.6z M1235.3,1403.3v-53.8l26.3,26.3l28.3,28.3L1263,1431L1235.3,1403.3z M1221,1333.3l-13.7-13.7
	l27.5-27.5l27.5,27.5l-27.5,27.5L1221,1333.3z M1235.3,1291.1v-53.8l26.3,26.3l28.3,28.3l-26.9,26.9L1235.3,1291.1z M1221,1221
	l-13.7-13.7l27.5-27.5l27.5,27.5l-27.5,27.5L1221,1221z M1221,1108.8l-13.7-13.7l27.5-27.5l27.5,27.5l-27.5,27.5L1221,1108.8z
	 M1221,996.6l-13.7-13.7l27.5-27.5l27.5,27.5l-27.5,27.5L1221,996.6z M1221,884.3l-13.7-13.7l27.5-27.5l27.5,27.5l-27.5,27.5
	L1221,884.3z M1179.4,730.4l54.7-54.7v54l-27.7,27.7L1179.4,730.4z M1207.2,645.9l27.5-27.5l27.5,27.5l-27.5,27.5L1207.2,645.9z
	 M1263,532.9l-27.7-27.7v-53.8l26.3,26.3l28.3,28.3l-13.4,13.4L1263,532.9z M1235.3,339.1l26.3,26.3l28.3,28.3l-26.9,26.9
	l-27.7-27.7V339.1z M1262.2,421.5l-27.5,27.5l-27.5-27.5l27.5-27.5L1262.2,421.5z M1234.1,392.9l-27.7,27.7l-27-27l54.7-54.7V392.9z
	 M226,1347l54.6-54.6v54L253,1374L226,1347z M281.3,1347.4l27.5,27.5l-27.4,27.4l-27.5-27.5L281.3,1347.4z M305.9,1379.4l4.5-4.5
	l0,0l26.4-26.4v54l-27.7,27.7l-27-27L305.9,1379.4z M338,1348.7l26.3,26.3l28.3,28.3l-26.9,26.9l-27.7-27.7V1348.7z M393.4,1459.7
	l27.5,27.5l-27.4,27.4l-27.5-27.5L393.4,1459.7z M449,1460.8v54l-27.7,27.7l-27-27L449,1460.8z M449.5,1515.8l27.5,27.5l-27.5,27.5
	l-27.5-27.5L449.5,1515.8z M506.2,1517.2l54.7,54.7l-27,27l-27.7-27.7V1517.2z M528.5,1605.9l6.2-6.2l0,0l15.9-15.9l10.5-10.5v54
	l-27.7,27.7l-27-27L528.5,1605.9z M562.3,1573.4l26.3,26.3l28.3,28.3L590,1655l-27.7-27.7V1573.4z M617.8,1684.5l27.5,27.5
	l-27.4,27.4l-27.5-27.5L617.8,1684.5z M646.4,1712.5l0.5-0.5l0,0l26.4-26.4v54l-27.7,27.7l-27-27L646.4,1712.5z M673.9,1740.6
	l27.5,27.5l-27.5,27.5l-27.5-27.5L673.9,1740.6z M729.9,1796.9l27.5,27.5l-27.4,27.4l-27.5-27.5L729.9,1796.9z M785.5,1798v54
	l-27.7,27.7l-27-27L785.5,1798z M786.6,1798.1l26.3,26.3l28.3,28.3l-26.9,26.9l-27.7-27.7V1798.1z M842.1,1909.2l27.5,27.5
	l-27.4,27.4l-27.5-27.5L842.1,1909.2z M865,1942.9l6.2-6.2l0,0l15.9-15.9l10.5-10.5v54l-27.7,27.7l-27-27L865,1942.9z M898.8,1910.4
	l26.3,26.3l28.3,28.3l-26.9,26.9l-27.7-27.7V1910.4z M899.1,2021.4l54.6-54.6v54l-27.7,27.7L899.1,2021.4z M954.3,2021.8l27.5,27.5
	l-27.4,27.4l-27.5-27.5L954.3,2021.8z M977.3,2055.5l6.2-6.2l0,0l15.9-15.9l10.5-10.5v54l-27.7,27.7l-27-27L977.3,2055.5z
	 M1011,2023.1l26.3,26.3l28.3,28.3l-26.9,26.9l-27.7-27.7V2023.1z M1066.5,2134.2l27.5,27.5l-27.4,27.4l-27.5-27.5L1066.5,2134.2z
	 M1095,2162.4l0.7-0.7l0,0l26.4-26.4v54l-27.7,27.7l-27-27L1095,2162.4z M1123.2,2135.5l26.3,26.3l28.3,28.3l-26.9,26.9l-27.7-27.7
	V2135.5z M1178.6,2246.5l27.5,27.5l-27.4,27.4l-27.5-27.5L1178.6,2246.5z M1207.5,2274.3l0.3-0.3l0,0l26.4-26.4v54l-27.7,27.7
	l-27-27L1207.5,2274.3z M1207.3,2217.9l27.5-27.5l27.5,27.5l-27.5,27.5L1207.3,2217.9z M1207.3,2105.7l27.5-27.5l27.5,27.5
	l-27.5,27.5L1207.3,2105.7z M1207.3,1993.4l27.5-27.5l27.5,27.5l-27.5,27.5L1207.3,1993.4z M1234.2,1964.9l-27.7,27.7l-27-27
	l54.7-54.7V1964.9z M1207.3,1881.1l27.5-27.5l27.5,27.5l-27.5,27.5L1207.3,1881.1z M1179.5,1741.1l54.7-54.7v54l-27.7,27.7
	L1179.5,1741.1z M1263,1655.5l-27.7-27.7v-53.8l26.3,26.3l28.3,28.3L1263,1655.5z M1235.5,1572.4l23.8-23.8l4.5-4.5l0,0l26.3-26.3
	v54l-27.7,27.7L1235.5,1572.4z M1235.3,1178.7v-53.8l26.3,26.3l28.3,28.3l-26.9,26.9L1235.3,1178.7z M1235.3,1066.5v-53.8l26.3,26.3
	l28.3,28.3l-26.9,26.9L1235.3,1066.5z M1235.3,954.3v-53.8l26.3,26.3l28.3,28.3L1263,982L1235.3,954.3z M1235.3,842v-53.8l26.3,26.3
	l28.3,28.3l-26.9,26.9L1235.3,842z M1234.7,785.7l-27.5-27.5l27.5-27.5l27.5,27.5L1234.7,785.7z M1263,645.1l-27.7-27.7v-53.8
	l26.3,26.3l28.3,28.3l-13.4,13.4L1263,645.1z M1235.5,562l23.8-23.8l4.5-4.5l0,0l26.3-26.3v54l-27.7,27.7L1235.5,562z M1235.5,449.8
	l23.8-23.8l4.5-4.5l0,0l26.3-26.3v54l-27.7,27.7L1235.5,449.8z M1179.2,282.7l54.7,54.7l-27,27l-27.7-27.7V282.7z M1093.9,477.4
	l-27.4,27.4l-27.5-27.5l27.4-27.4L1093.9,477.4z M842.7,619.2l41,41l13.7,13.7l-27,27l-27.7-27.7V619.2z M869.6,701.7l-27.4,27.4
	l-27.5-27.5l27.4-27.4L869.6,701.7z M730.5,731.4l54.7,54.7l-27,27l-27.7-27.7V731.4z M757.4,813.9L730,841.3l-27.5-27.5l27.4-27.4
	L757.4,813.9z M618.3,843.6l54.7,54.7l-27,27l-27.7-27.7V843.6z M645.2,926.1l-27.4,27.4L590.3,926l27.4-27.4L645.2,926.1z
	 M588.6,926.1l28.3,28.3L590,981.3l-27.7-27.7v-53.8L588.6,926.1z M506.2,955.7l54.7,54.7l-27,27l-27.7-27.7V955.7z M533.1,1038.3
	l-27.4,27.4l-27.5-27.5l27.4-27.4L533.1,1038.3z M308.8,1262.6l-27.4,27.4l-27.5-27.5l27.4-27.4L308.8,1262.6z M225.8,1348.6
	l26.3,26.3l28.3,28.3l-26.9,26.9l-27.7-27.7V1348.6z M309.9,1431l27.5-27.5l27.5,27.5l-27.5,27.5l-13.7-13.7L309.9,1431z
	 M505.6,1572.2l27.5,27.5l-27.4,27.4l-27.5-27.5L505.6,1572.2z M534.2,1655.8l27.5-27.5l27.5,27.5l-27.5,27.5L534.2,1655.8z
	 M758.6,1880.5l27.5-27.5l27.5,27.5l-27.5,27.5L758.6,1880.5z M786.6,1910.4l26.3,26.3l28.3,28.3l-26.9,26.9l-27.7-27.7V1910.4z
	 M870.7,1992.8l27.5-27.5l27.5,27.5l-27.5,27.5L870.7,1992.8z M983,2105.4l27.5-27.5l27.5,27.5l-27.5,27.5L983,2105.4z
	 M1095.1,2217.8l27.5-27.5l27.5,27.5l-27.5,27.5l-13.7-13.7L1095.1,2217.8z M1234.8,2357.6l-27.5-27.5l27.5-27.5l27.5,27.5
	L1234.8,2357.6z M1235.3,2189.3v-53.8l26.3,26.3l28.3,28.3l-26.9,26.9L1235.3,2189.3z M1235.3,2077.1v-53.8l26.3,26.3l28.3,28.3
	l-26.9,26.9L1235.3,2077.1z M1263.1,1992.6l-27.7-27.7v-53.8l26.3,26.3l28.3,28.3l-13.4,13.4L1263.1,1992.6z M1235.3,1852.6v-53.8
	l26.3,26.3l28.3,28.3l-26.9,26.9L1235.3,1852.6z M1207.3,1768.9l27.5-27.5l27.5,27.5l-27.5,27.5L1207.3,1768.9z M1235.3,1740.3
	v-53.8l26.3,26.3l28.3,28.3l-26.9,26.9L1235.3,1740.3z M1235.6,1685l54.6-54.6v54l-27.7,27.7L1235.6,1685z M1290.2,1459.5
	l-27.7,27.7l-27-27l23.8-23.8l4.5-4.5l0,0l23.5-23.5l2.8-2.8V1459.5z M1290.2,1347.2l-27.7,27.7l-27-27l23.8-23.8l4.5-4.5l0,0
	l23.5-23.5l2.8-2.8V1347.2z M1290.2,1235l-27.7,27.7l-27-27l54.6-54.6V1235z M1235.5,1123.4l23.8-23.8l4.5-4.5l0,0l26.3-26.3v54
	l-27.7,27.7L1235.5,1123.4z M1235.5,1011.1l23.8-23.8l4.5-4.5l0,0l26.3-26.3v54l-27.7,27.7L1235.5,1011.1z M1235.5,898.9l23.8-23.8
	l4.5-4.5l0,0l26.3-26.3v54l-27.7,27.7L1235.5,898.9z M1235.5,786.7l54.6-54.6v54l-27.7,27.7L1235.5,786.7z M1263,757.3l-27.7-27.7
	v-53.8l26.3,26.3l28.3,28.3L1263,757.3z M1235.5,674.2l23.8-23.8l4.5-4.5l0,0l26.3-26.3v54l-27.7,27.7L1235.5,674.2z M1263.3,589.8
	l27.4-27.4l27.5,27.5l-27.4,27.4L1263.3,589.8z M1263.3,477.6l27.4-27.4l27.5,27.5l-27.4,27.4L1263.3,477.6z M1263.3,365.3
	l27.4-27.4l27.5,27.5l-27.4,27.4L1263.3,365.3z M1290.2,336.9l-27.7,27.7l-27-27l54.6-54.6V336.9z M1261.6,253.1l28.3,28.3
	l-26.9,26.9l-27.7-27.7v-53.8L1261.6,253.1z M1262.2,309.1l-27.5,27.5l-27.5-27.5l27.5-27.5L1262.2,309.1z M1234.1,280.6l-27.7,27.7
	l-27-27l54.7-54.7V280.6z M1206.1,365.3l-27.4,27.4l-27.5-27.5l27.4-27.4L1206.1,365.3z M1178,336.7l-27.7,27.7l-27-27l54.6-54.6
	V336.7z M1149.5,365.3l28.3,28.3l-26.9,26.9l-27.7-27.7v-53.8L1149.5,365.3z M1037.3,477.4l28.3,28.3l-26.9,26.9l-27.7-27.7v-53.8
	L1037.3,477.4z M1037.9,533.5l-27.5,27.5l-27.5-27.5l27.5-27.5L1037.9,533.5z M1009.8,504.9l-27.7,27.7l-27-27l54.7-54.7V504.9z
	 M954.8,507.1l54.7,54.7l-27,27L954.8,561V507.1z M981.7,589.6L954.3,617l-27.5-27.5l27.4-27.4L981.7,589.6z M925.1,589.6l28.3,28.3
	l-26.9,26.9l-27.7-27.7v-53.8L925.1,589.6z M871.2,589.5l26.4-26.4v54l-27.7,27.7l-27-27l23.8-23.8L871.2,589.5L871.2,589.5z
	 M813,701.7l28.3,28.3L814.4,757l-27.7-27.7v-53.8L813,701.7z M813.5,757.8l-27.5,27.5l-27.5-27.5l27.5-27.5L813.5,757.8z
	 M785.5,729.2L757.7,757l-27-27l54.7-54.7V729.2z M700.8,813.9l28.3,28.3l-26.9,26.9l-27.7-27.7v-53.9L700.8,813.9z M701.4,870
	l-27.5,27.5L646.4,870l27.5-27.5L701.4,870z M673.3,841.4l-27.7,27.7l-27-27l54.7-54.7V841.4z M617.2,897.5l-27.7,27.7l-27-27
	l54.6-54.6V897.5z M476.5,1038.3l28.3,28.3l-26.9,26.9l-27.7-27.7v-53.8L476.5,1038.3z M477,1094.3l-27.5,27.5l-27.5-27.5l27.5-27.5
	L477,1094.3z M394,1067.9l54.7,54.7l-27,27l-27.7-27.7V1067.9z M420.9,1150.4l-27.4,27.4l-27.5-27.5l27.4-27.4L420.9,1150.4z
	 M364.3,1150.4l28.3,28.3l-26.9,26.9l-27.7-27.7v-53.8L364.3,1150.4z M252.1,1262.6l28.3,28.3l-26.9,26.9l-27.7-27.7v-53.8
	L252.1,1262.6z M252.7,1318.6l-27.5,27.5l-27.5-27.5l27.5-27.5L252.7,1318.6z M224.6,1290.1l-27.7,27.7l-27-27l54.7-54.7V1290.1z
	 M169.7,1292.2l54.7,54.7l-27,27l-27.7-27.7V1292.2z M224.6,1348.4v54l-27.7,27.7l-27-27L224.6,1348.4z M225.2,1403.5l27.5,27.5
	l-27.5,27.5l-27.5-27.5L225.2,1403.5z M281.9,1404.6l43.9,43.9l10.9,10.9l-27,27l-27.7-27.7V1404.6z M305.9,1491.6l4.5-4.5l0,0
	l26.4-26.4v54l-27.7,27.7l-27-27L305.9,1491.6z M338,1460.9l26.3,26.3l28.3,28.3l-26.9,26.9l-27.7-27.7V1460.9z M394,1516.9
	l54.7,54.7l-27,27l-27.7-27.7V1516.9z M449,1573.2v54l-27.7,27.7l-27-27L449,1573.2z M449.5,1628.3l27.5,27.5l-27.5,27.5l-27.5-27.5
	L449.5,1628.3z M450.1,1627.2v-53.8l26.3,26.3l28.3,28.3l-26.9,26.9L450.1,1627.2z M506.2,1629.4l54.7,54.7l-27,27l-27.7-27.7
	V1629.4z M528.5,1718.1l6.2-6.2l0,0l15.9-15.9l10.5-10.5v54l-27.7,27.7l-27-27L528.5,1718.1z M562.3,1685.7l26.3,26.3l28.3,28.3
	l-26.9,26.9l-27.7-27.7V1685.7z M618.3,1741.7l54.7,54.7l-27,27l-27.7-27.7V1741.7z M674.5,1798l26.3,26.3l28.3,28.3l-26.9,26.9
	l-27.7-27.7V1798z M730.5,1854.1l54.7,54.7l-27,27l-27.7-27.7V1854.1z M785.5,1910.2v54l-27.7,27.7l-27-27L785.5,1910.2z
	 M786.1,1965.2l27.5,27.5l-27.5,27.5l-27.5-27.5L786.1,1965.2z M842.7,1966.4l54.7,54.7l-27,27l-27.7-27.7V1966.4z M898.9,2023
	l26.3,26.3l28.3,28.3l-26.9,26.9l-27.7-27.7V2023z M954.9,2079l54.7,54.7l-27,27l-27.7-27.7V2079z M1011,2135.4l26.3,26.3l28.3,28.3
	l-26.9,26.9l-27.7-27.7V2135.4z M1067.1,2191.4l43.9,43.9l10.9,10.9l-27,27l-27.7-27.7V2191.4z M1095.1,2274.4l0.5-0.5l0,0
	l26.4-26.4v54l-27.7,27.7l-27-27L1095.1,2274.4z M1123.2,2247.7l26.3,26.3l28.3,28.3l-26.9,26.9l-27.7-27.7V2247.7z M1179.2,2303.7
	l54.7,54.7l-27,27l-27.7-27.7V2303.7z M1235.3,2360.2l26.3,26.3l28.3,28.3l-26.9,26.9l-27.7-27.7V2360.2z M1235.6,2358.6l54.6-54.6
	v54l-27.7,27.7L1235.6,2358.6z M1263.1,2329.3l-27.7-27.7v-53.8l26.3,26.3l28.3,28.3L1263.1,2329.3z M1235.6,2246.2l27.8-27.8
	l0.5-0.5l0,0l26.3-26.3v54l-27.7,27.7L1235.6,2246.2z M1235.6,2134l27.8-27.8l0.5-0.5l0,0l26.3-26.3v54l-27.7,27.7L1235.6,2134z
	 M1235.6,2021.7l54.6-54.6v54l-27.7,27.7L1235.6,2021.7z M1235.6,1909.5l54.6-54.6v54l-27.7,27.7L1235.6,1909.5z M1235.6,1797.2
	l28-28l0.4-0.4l0,0l26.3-26.3v54l-27.7,27.7L1235.6,1797.2z M1263.4,1712.8l27.4-27.4l27.5,27.5l-27.4,27.4L1263.4,1712.8z
	 M1263.3,1151.2l27.4-27.4l27.5,27.5l-27.4,27.4L1263.3,1151.2z M1291.3,1122.7v-54l54.7,54.7l-27,27L1291.3,1122.7z M1263.3,1038.9
	l27.4-27.4l27.5,27.5l-27.4,27.4L1263.3,1038.9z M1291.3,1010.5v-54l54.7,54.7l-27,27L1291.3,1010.5z M1263.3,926.7l27.4-27.4
	l27.5,27.5l-27.4,27.4L1263.3,926.7z M1291.3,898.2v-54L1346,899l-27,27L1291.3,898.2z M1263.3,814.5l27.4-27.4l27.5,27.5
	l-27.4,27.4L1263.3,814.5z M1291.3,786v-54l54.7,54.7l-27,27L1291.3,786z M1263.3,702l27.4-27.4l27.5,27.5l-27.4,27.4L1263.3,702z
	 M1291.3,673.6v-54l54.7,54.7l-27,27L1291.3,673.6z M1319.1,589.1l-27.7-27.7v-54l54.7,54.7L1319.1,589.1z M1319.1,476.8l-27.7-27.7
	v-54l54.7,54.7L1319.1,476.8z M1319.1,364.6l-27.7-27.7v-54l54.7,54.7L1319.1,364.6z M1263.8,196.9l26.3-26.3v54l-27.7,27.7l-27-27
	l20.9-20.9L1263.8,196.9L1263.8,196.9z M953.7,561L926,588.7l-27-27l54.6-54.6V561z M392.8,1121.9l-27.7,27.7l-27-27l54.6-54.6
	V1121.9z M336.8,1177.9l-27.7,27.7l-27-27l54.7-54.7V1177.9z M142.2,1318.6l26.3-26.3v54l-27.7,27.7l-27-27l18.4-18.4L142.2,1318.6
	L142.2,1318.6z M141.7,1374.7l27.4-27.4l27.5,27.5l-27.4,27.4L141.7,1374.7z M281.3,1459.7l27.5,27.5l-27.4,27.4l-27.5-27.5
	L281.3,1459.7z M309.9,1543.3l27.5-27.5l27.5,27.5l-27.5,27.5l-13.7-13.7L309.9,1543.3z M338.2,1571.6l54.6-54.6v54l-27.7,27.7
	L338.2,1571.6z M393.4,1572l27.5,27.5l-27.4,27.4l-27.5-27.5L393.4,1572z M505.6,1684.4l27.5,27.5l-27.4,27.4l-27.5-27.5
	L505.6,1684.4z M534.2,1768l27.5-27.5l27.5,27.5l-27.5,27.5l-0.3-0.3L534.2,1768z M590.3,1824.2l27.4-27.4l27.5,27.5l-27.4,27.4
	L590.3,1824.2z M646.4,1880.4l27.5-27.5l27.5,27.5l-27.5,27.5L646.4,1880.4z M729.9,1909.1l27.5,27.5L730,1964l-27.5-27.5
	L729.9,1909.1z M786.9,2021l27.6-27.6l0.7-0.7l0,0l17.6-17.6l8.7-8.7v54l-27.7,27.7L786.9,2021z M842.1,2021.4l27.5,27.5l-27.4,27.4
	l-27.5-27.5L842.1,2021.4z M870.8,2105.4l27.5-27.5l27.5,27.5l-27.5,27.5L870.8,2105.4z M926.9,2161.5l27.4-27.4l27.5,27.5
	l-27.4,27.4L926.9,2161.5z M983,2217.8l27.5-27.5l27.5,27.5l-27.5,27.5L983,2217.8z M1066.5,2246.5l27.5,27.5l-27.4,27.4l-27.5-27.5
	L1066.5,2246.5z M1095.1,2330.1l27.5-27.5l27.5,27.5l-27.5,27.5l-13.7-13.7L1095.1,2330.1z M1123.4,2358.4l23.8-23.8l4.5-4.5h0
	l8.1-8.1l18.2-18.2v54l-27.7,27.7L1123.4,2358.4z M1178.6,2358.8l27.5,27.5l-27.4,27.4l-27.5-27.5L1178.6,2358.8z M1207.3,2442.6
	l27.5-27.5l27.5,27.5l-27.5,27.5L1207.3,2442.6z M1290.8,2471.3l27.5,27.5l-27.4,27.4l-27.5-27.5L1290.8,2471.3z M1263.4,2386.4
	l27.4-27.4l27.5,27.5l-27.4,27.4L1263.4,2386.4z M1263.4,2274l27.4-27.4l27.5,27.5l-27.4,27.4L1263.4,2274z M1290.9,2189.3
	l-27.5-27.5l27.4-27.4l27.5,27.5L1290.9,2189.3z M1263.4,2049.6l27.4-27.4l27.5,27.5l-27.4,27.4L1263.4,2049.6z M1263.4,1937.3
	l27.4-27.4l27.5,27.5l-27.4,27.4L1263.4,1937.3z M1263.4,1825l27.4-27.4l27.5,27.5l-27.4,27.4L1263.4,1825z M1346.1,1685l-27,27
	l-27.7-27.7v-54l43.9,43.9L1346.1,1685z M1291.6,1628.9l54.7-54.7v54l-27.7,27.7L1291.6,1628.9z M1291.6,1516.3l28-28l0.3-0.3l0,0
	l26.4-26.4v54l-27.7,27.7L1291.6,1516.3z M1291.6,1404.1l28-28l0.3-0.3l0,0l26.4-26.4v54l-27.7,27.7L1291.6,1404.1z M1291.6,1291.9
	l28-28l0.3-0.3l0,0l26.4-26.4v54l-27.7,27.7L1291.6,1291.9z M1291.6,1179.6l54.7-54.7v54l-27.7,27.7L1291.6,1179.6z M1291.6,1067.3
	l28-28l0.3-0.3l0,0l26.4-26.4v54l-27.7,27.7L1291.6,1067.3z M1291.6,955.1l28-28l0.3-0.3l0,0l26.4-26.4v54l-27.7,27.7L1291.6,955.1z
	 M1291.6,842.8l28-28l0.3-0.3l0,0l26.4-26.4v54l-27.7,27.7L1291.6,842.8z M1291.6,730.6l54.7-54.7v54l-27.7,27.7L1291.6,730.6z
	 M1291.6,618.2l23.8-23.8l4.5-4.5l0,0l26.4-26.4v54l-27.7,27.7L1291.6,618.2z M1291.6,506l23.8-23.8l4.5-4.5l0,0l26.4-26.4v54
	l-27.7,27.7L1291.6,506z M1291.6,393.7l23.8-23.8l4.5-4.5l0,0l26.4-26.4v54l-27.7,27.7L1291.6,393.7z M1291.6,281.5l54.7-54.7v54
	l-27.7,27.7L1291.6,281.5z M1291.6,169.2l23.8-23.8l4.5-4.5l0,0l26.4-26.4v54l-27.7,27.7L1291.6,169.2z M1318.2,140.9l-27.4,27.4
	l-27.5-27.5l27.4-27.4L1318.2,140.9z M1206.1,253l-27.4,27.4l-27.5-27.5l27.4-27.4L1206.1,253z M1093.9,365.2l-27.4,27.4l-27.5-27.5
	l27.4-27.4L1093.9,365.2z M1037.3,365.2l28.3,28.3l-26.9,26.9l-27.7-27.7v-53.8L1037.3,365.2z M1037.9,421.2l-27.5,27.5l-27.5-27.5
	l27.5-27.5L1037.9,421.2z M981.7,477.4l-27.4,27.4l-27.5-27.5l27.4-27.4L981.7,477.4z M897.4,561.7l-27,27L842.7,561v-54l41,41
	L897.4,561.7z M869.6,589.5l-27.4,27.4l-27.5-27.5l27.4-27.4L869.6,589.5z M813,589.5l28.3,28.3l-26.9,26.9L786.6,617v-53.8
	L813,589.5z M813.5,645.6L786.1,673l-27.5-27.5l27.5-27.5L813.5,645.6z M757.4,701.7L730,729.1l-27.5-27.5l27.4-27.4L757.4,701.7z
	 M700.8,701.7l28.3,28.3l-26.9,26.9l-27.7-27.7v-53.9L700.8,701.7z M701.4,757.7l-27.5,27.5l-27.5-27.5l27.5-27.5L701.4,757.7z
	 M645.2,813.9l-27.4,27.4l-27.5-27.5l27.4-27.4L645.2,813.9z M588.6,813.9l28.3,28.3L590,869.1l-27.7-27.7v-53.8L588.6,813.9z
	 M533.1,926l-27.4,27.4L478.2,926l27.4-27.4L533.1,926z M476.5,926l28.3,28.3l-26.9,26.9l-27.7-27.7v-53.8L476.5,926z M477,982.1
	l-27.5,27.5l-27.5-27.5l27.5-27.5L477,982.1z M420.9,1038.2l-27.4,27.4l-27.5-27.5l27.4-27.4L420.9,1038.2z M336.6,1122.5
	l-13.4,13.4l-13.6,13.6l-27.7-27.7v-54l41,41L336.6,1122.5z M308.8,1150.3l-27.4,27.4l-27.5-27.5l27.4-27.4L308.8,1150.3z
	 M252.1,1150.3l28.3,28.3l-26.9,26.9l-27.7-27.7V1124L252.1,1150.3z M252.7,1206.4l-27.5,27.5l-27.5-27.5l27.5-27.5L252.7,1206.4z
	 M196.6,1262.5l-27.4,27.4l-27.5-27.5l27.4-27.4L196.6,1262.5z M113.6,1348.4l26.3,26.3l28.3,28.3l-26.9,26.9l-27.7-27.7V1348.4z
	 M169.7,1404.6l54.7,54.7l-27,27l-27.7-27.7V1404.6z M225.8,1460.8l26.3,26.3l28.3,28.3l-26.9,26.9l-27.7-27.7V1460.8z
	 M281.9,1516.9l41,41l13.7,13.7l-27,27l-27.7-27.7V1516.9z M338,1573.1l26.3,26.3l28.3,28.3l-26.9,26.9l-27.7-27.7V1573.1z
	 M394,1629.3l54.7,54.7l-27,27l-27.7-27.7V1629.3z M506.2,1741.7l54.7,54.7l-27,27l-27.7-27.7V1741.7z M562.3,1797.9l26.3,26.3
	l28.3,28.3l-26.9,26.9l-27.7-27.7V1797.9z M618.3,1854l54.7,54.7l-27,27l-27.7-27.7V1854z M674.5,1910.3l26.3,26.3l28.3,28.3
	l-26.9,26.9l-27.7-27.7V1910.3z M730.5,1966.3l54.7,54.7l-27,27l-27.7-27.7V1966.3z M786.6,2022.6l26.3,26.3l28.3,28.3l-26.9,26.9
	l-27.7-27.7V2022.6z M842.7,2079l54.7,54.7l-27,27l-27.7-27.7V2079z M898.9,2135.2l26.3,26.3l28.3,28.3l-26.9,26.9l-27.7-27.7
	V2135.2z M954.9,2191.4l54.7,54.7l-27,27l-27.7-27.7V2191.4z M1011,2247.6l26.3,26.3l28.3,28.3l-26.9,26.9l-27.7-27.7V2247.6z
	 M1067.1,2303.7l43.9,43.9l10.9,10.9l-27,27l-27.7-27.7V2303.7z M1123.2,2359.9l26.3,26.3l28.3,28.3l-26.9,26.9l-27.7-27.7V2359.9z
	 M1179.2,2416.2l54.7,54.7l-27,27l-27.7-27.7V2416.2z M1235.3,2472.4l26.3,26.3l28.3,28.3l-26.9,26.9l-27.7-27.7V2472.4z
	 M1319.1,2497.9l-27.7-27.7v-54l54.7,54.7l-18.2,18.2L1319.1,2497.9z M1319.1,2385.7l-27.7-27.7v-54l54.7,54.7l-18.2,18.2
	L1319.1,2385.7z M1291.6,2302.6l54.7-54.7v54l-27.7,27.7L1291.6,2302.6z M1346.1,2246.3l-27,27l-27.7-27.7v-54l43.9,43.9
	L1346.1,2246.3z M1291.6,2190.2l22.1-22.1l6.2-6.2l0,0l26.4-26.4v54l-27.7,27.7L1291.6,2190.2z M1346.1,2134l-27,27l-27.7-27.7v-54
	l43.9,43.9L1346.1,2134z M1319.1,2048.8l-27.7-27.7v-54l54.7,54.7l-18.2,18.2L1319.1,2048.8z M1319.1,1936.6l-27.7-27.7v-54
	l54.7,54.7l-18.2,18.2L1319.1,1936.6z M1291.6,1853.5l54.7-54.7v54l-27.7,27.7L1291.6,1853.5z M1346.1,1797.3l-27,27l-27.7-27.7v-54
	l43.9,43.9L1346.1,1797.3z M1291.6,1741.1l23.8-23.8l4.5-4.5l0,0l26.4-26.4v54l-27.7,27.7L1291.6,1741.1z M1346.9,1684.2l-13.7-13.7
	l-13.7-13.7l27.5-27.5l27.5,27.5L1346.9,1684.2z M1375.2,1655.9l-27.7-27.7v-54l54.7,54.7L1375.2,1655.9z M1346.9,1571.6l-27.5-27.5
	l27.5-27.5l27.5,27.5L1346.9,1571.6z M1375.2,1543.3l-27.7-27.7v-54l54.7,54.7L1375.2,1543.3z M1346.9,1459.4l-27.5-27.5l27.5-27.5
	l27.5,27.5L1346.9,1459.4z M1375.2,1431.1l-27.7-27.7v-54l54.7,54.7L1375.2,1431.1z M1346.9,1347.2l-27.5-27.5l27.5-27.5l27.5,27.5
	L1346.9,1347.2z M1375.2,1318.8l-27.7-27.7v-54l54.7,54.7L1375.2,1318.8z M1346.9,1234.9l-27.5-27.5l27.5-27.5l27.5,27.5
	L1346.9,1234.9z M1375.2,1206.6l-27.7-27.7v-54l54.7,54.7L1375.2,1206.6z M1346.9,1122.6l-27.5-27.5l27.5-27.5l27.5,27.5
	L1346.9,1122.6z M1375.2,1094.3l-27.7-27.7v-54l54.7,54.7L1375.2,1094.3z M1346.9,1010.4l-27.5-27.5l27.5-27.5l27.5,27.5
	L1346.9,1010.4z M1375.2,982.1l-27.7-27.7v-54l54.7,54.7L1375.2,982.1z M1346.9,898.1l-27.5-27.5l27.5-27.5l27.5,27.5L1346.9,898.1z
	 M1375.2,869.8l-27.7-27.7v-54l54.7,54.7L1375.2,869.8z M1346.9,785.9l-27.5-27.5l27.5-27.5l27.5,27.5L1346.9,785.9z M1375.2,757.6
	l-27.7-27.7v-54l54.7,54.7L1375.2,757.6z M1346.9,673.5l-27.5-27.5l27.5-27.5l27.5,27.5L1346.9,673.5z M1375.2,645.2l-27.7-27.7v-54
	l54.7,54.7L1375.2,645.2z M1346.9,561.3l-27.5-27.5l27.5-27.5l27.5,27.5L1346.9,561.3z M1375.2,532.9l-27.7-27.7v-54l54.7,54.7
	L1375.2,532.9z M1346.9,449l-27.5-27.5l27.5-27.5l27.5,27.5L1346.9,449z M1375.2,420.7l-27.7-27.7v-54l54.7,54.7L1375.2,420.7z
	 M1346.9,336.8l-27.5-27.5l27.5-27.5l27.5,27.5L1346.9,336.8z M1375.2,308.5l-27.7-27.7v-54l54.7,54.7L1375.2,308.5z M1346.9,224.5
	l-27.5-27.5l27.5-27.5l27.5,27.5L1346.9,224.5z M1375.2,196.2l-27.7-27.7v-54l54.7,54.7L1375.2,196.2z M1347.5,2.2l54.7,54.7l-27,27
	l-27.7-27.7V2.2z M1346.3,2.2v54l-27.7,27.7l-27-27L1346.3,2.2z M1319.4,84.7l27.5-27.5l27.5,27.5l-27.5,27.5L1319.4,84.7z
	 M1290.2,58.4v54l-27.7,27.7l-27-27L1290.2,58.4z M1234.1,114.4v54l-27.7,27.7l-27-27L1234.1,114.4z M1207.2,196.9l27.5-27.5
	l27.5,27.5l-27.5,27.5L1207.2,196.9z M1178,170.5v54l-27.7,27.7l-27-27L1178,170.5z M1122,226.6v54l-27.7,27.7l-27-27L1122,226.6z
	 M1095.1,309.1l27.5-27.5l27.5,27.5l-27.5,27.5l-10.9-10.9L1095.1,309.1z M1065.8,282.7v54l-27.7,27.7l-27-27L1065.8,282.7z
	 M1009.8,338.7v54l-27.7,27.7l-27-27L1009.8,338.7z M953.7,394.8v54L926,476.5l-27-27L953.7,394.8z M897.6,450.9v54l-27.7,27.7
	l-27-27L897.6,450.9z M870.7,533.4l27.5-27.5l27.5,27.5l-27.5,27.5l-13.7-13.7L870.7,533.4z M841.5,507v54l-27.7,27.7l-27-27
	L841.5,507z M785.5,563v54l-27.7,27.7l-27-27L785.5,563z M729.4,619.2v54l-27.7,27.7l-27-27L729.4,619.2z M673.3,675.2v54
	l-27.7,27.7l-27-27L673.3,675.2z M617.2,731.4v54L589.5,813l-27-27L617.2,731.4z M506.4,842.1l54.7-54.7v54l-27.7,27.7L506.4,842.1z
	 M505,843.5v54l-27.7,27.7l-27-27L505,843.5z M449,899.6v54l-27.7,27.7l-27-27L449,899.6z M392.8,955.7v54l-27.7,27.7l-27-27
	L392.8,955.7z M336.8,1011.7v54l-27.7,27.7l-27-27L336.8,1011.7z M309.9,1094.2l27.5-27.5l27.5,27.5l-27.5,27.5L309.9,1094.2z
	 M280.7,1067.8v54l-27.7,27.7l-27-27L280.7,1067.8z M224.6,1123.9v54l-27.7,27.7l-27-27L224.6,1123.9z M168.5,1180v54l-27.7,27.7
	l-27-27L168.5,1180z M112.5,1236v54l-27.7,27.7l-27-27L112.5,1236z M85.6,1318.6l27.5-27.5l27.5,27.5l-27.5,27.5L85.6,1318.6z
	 M1.7,1346.9l54.7-54.7v54l-27.7,27.7L1.7,1346.9z M56.9,1347.2l27.5,27.5l-27.5,27.5l-27.5-27.5L56.9,1347.2z M57.8,1403l27.8-27.8
	l0.5-0.5l0,0l26.4-26.4v54L84.7,1430L57.8,1403z M113.1,1403.3l27.5,27.5l-27.5,27.5l-27.5-27.5L113.1,1403.3z M113.8,1459.3
	l54.7-54.7v54l-27.7,27.7L113.8,1459.3z M169.1,1459.6l27.5,27.5l-27.5,27.5l-27.5-27.5L169.1,1459.6z M169.9,1515.4l54.7-54.7v54
	l-27.7,27.7L169.9,1515.4z M225.2,1515.7l27.5,27.5l-27.5,27.5l-27.5-27.5L225.2,1515.7z M226,1571.6l23.9-23.9l4.5-4.5l0,0
	l26.3-26.3v54l-27.7,27.7L226,1571.6z M281.3,1571.9l27.5,27.5l-27.5,27.5l-27.5-27.5L281.3,1571.9z M282.1,1627.7l23.8-23.8
	l4.5-4.5l0,0l26.4-26.4v54l-27.7,27.7L282.1,1627.7z M337.4,1628l27.5,27.5l-27.5,27.5l-27.5-27.5L337.4,1628z M338.1,1684.1
	l54.7-54.7v54l-27.7,27.7L338.1,1684.1z M393.4,1684.4l27.5,27.5l-27.5,27.5l-27.5-27.5L393.4,1684.4z M394.3,1740.2l53.3-53.3
	l1.4-1.4v54l-27.7,27.7L394.3,1740.2z M449.5,1740.5L477,1768l-27.5,27.5l-27.5-27.5L449.5,1740.5z M477.9,1767.2l-27.7-27.7v-53.8
	l26.3,26.3l28.3,28.3l-8.8,8.8L477.9,1767.2z M450.3,1796.4l27.7-27.7l0.7-0.7l0,0l17.6-17.6l8.7-8.7v54l-27.7,27.7L450.3,1796.4z
	 M505.6,1796.7l27.5,27.5l-27.5,27.5l-27.5-27.5L505.6,1796.7z M506.4,1852.5l22.1-22.1l6.2-6.2l0,0l15.9-15.9l10.5-10.5v54
	l-27.7,27.7L506.4,1852.5z M561.7,1852.8l27.5,27.5l-27.5,27.5l-27.5-27.5L561.7,1852.8z M562.5,1908.8l54.7-54.7v54l-27.7,27.7
	L562.5,1908.8z M617.8,1909.1l27.5,27.5l-27.5,27.5l-27.5-27.5L617.8,1909.1z M618.6,1964.9l27.8-27.8l0.5-0.5l0,0l26.4-26.4v54
	l-27.7,27.7L618.6,1964.9z M673.9,1965.2l27.5,27.5l-27.5,27.5l-27.5-27.5L673.9,1965.2z M674.6,2021l22.1-22.1l6.2-6.2l0,0
	l15.9-15.9l10.4-10.4v54l-27.7,27.7L674.6,2021z M729.9,2021.4l27.5,27.5l-27.5,27.5l-27.5-27.5L729.9,2021.4z M730.8,2077.1
	l54.7-54.7v54l-27.7,27.7L730.8,2077.1z M786.1,2077.5l27.5,27.5l-27.5,27.5l-27.5-27.5L786.1,2077.5z M786.9,2133.7l54.7-54.7v54
	l-27.7,27.7L786.9,2133.7z M842.2,2134l27.5,27.5l-27.5,27.5l-27.5-27.5L842.2,2134z M843,2189.8l27.8-27.8l0.5-0.5l0,0l25-25
	l1.4-1.4v54l-27.7,27.7L843,2189.8z M898.3,2190.1l27.5,27.5l-27.5,27.5l-27.5-27.5L898.3,2190.1z M899,2246.1l54.7-54.7v54
	L926,2273L899,2246.1z M954.3,2246.4l27.5,27.5l-27.5,27.5l-27.5-27.5L954.3,2246.4z M955.1,2302.2l27.8-27.8l0.5-0.5l0,0l26.4-26.4
	v54l-27.7,27.7L955.1,2302.2z M1010.4,2302.5l27.5,27.5l-27.5,27.5L983,2330L1010.4,2302.5z M1011.2,2358.4l28-28l0.4-0.4l0,0
	l26.3-26.3v54l-27.7,27.7L1011.2,2358.4z M1066.5,2358.7l27.5,27.5l-27.5,27.5l-27.5-27.5L1066.5,2358.7z M1067.3,2414.5l27.8-27.8
	l0.5-0.5l0,0l26.4-26.4v54l-27.7,27.7L1067.3,2414.5z M1122.6,2414.8l27.5,27.5l-27.5,27.5l-27.5-27.5L1122.6,2414.8z
	 M1123.4,2470.9l54.7-54.7v54l-27.7,27.7L1123.4,2470.9z M1178.6,2471.2l27.5,27.5l-27.5,27.5l-27.5-27.5L1178.6,2471.2z
	 M1179.5,2527l20.9-20.9l7.4-7.4l0,0l26.4-26.4v54l-27.7,27.7L1179.5,2527z M1234.8,2527.3l27.5,27.5l-27.5,27.5l-27.5-27.5
	L1234.8,2527.3z M1235.5,2583.2l27.9-27.9l0.5-0.5l0,0l26.3-26.3v54l-27.7,27.7L1235.5,2583.2z M1290.8,2583.5l27.5,27.5l-27.5,27.5
	l-27.5-27.5L1290.8,2583.5z M1291.6,2639.3l22.1-22.1l6.2-6.2l0,0l26.4-26.4v54l-27.7,27.7L1291.6,2639.3z M1346.9,2694.6
	l-27.5-27.5l27.5-27.5l27.5,27.5L1346.9,2694.6z M1375.2,2666.3l-27.7-27.7v-54l54.7,54.7L1375.2,2666.3z M1346.9,2582.3l-13.7-13.7
	l-13.7-13.7l27.5-27.5l27.5,27.5L1346.9,2582.3z M1402.2,2527.1l-27,27l-27.7-27.7v-54L1402.2,2527.1z M1346.9,2470.1l-27.5-27.5
	l27.5-27.5l27.5,27.5L1346.9,2470.1z M1402.2,2414.8l-27,27l-27.7-27.7v-54L1402.2,2414.8z M1346.9,2357.9l-27.5-27.5l27.5-27.5
	l27.5,27.5L1346.9,2357.9z M1375.2,2329.6l-27.7-27.7v-54l54.7,54.7L1375.2,2329.6z M1346.9,2245.5l-13.7-13.7l-13.7-13.7l27.5-27.5
	l27.5,27.5L1346.9,2245.5z M1375.2,2217.1l-27.7-27.7v-54l54.7,54.7L1375.2,2217.1z M1346.9,2133.2l-13.7-13.7l-13.7-13.7l27.5-27.5
	l27.5,27.5L1346.9,2133.2z M1402.2,2077.9l-27,27l-27.7-27.7v-54L1402.2,2077.9z M1346.3,2077.2l-27.7,27.7l-27-27l22.1-22.1
	l6.2-6.2l0,0l15.9-15.9l10.5-10.5V2077.2z M1346.9,2021l-0.3-0.3l-27.2-27.2l27.5-27.5l27.5,27.5L1346.9,2021z M1402.2,1965.7
	l-27,27l-27.7-27.7v-54L1402.2,1965.7z M1346.3,1965l-27.7,27.7l-27-27l22.1-22.1l6.2-6.2l0,0l15.9-15.9l10.5-10.5V1965z
	 M1346.9,1908.8l-0.3-0.3l-27.2-27.2l27.5-27.5l27.5,27.5L1346.9,1908.8z M1375.2,1880.4l-27.7-27.7v-54l54.7,54.7L1375.2,1880.4z
	 M1346.9,1796.4l-13.7-13.7l-13.7-13.7l27.5-27.5l27.5,27.5L1346.9,1796.4z M1347.5,1740.4v-54l54.7,54.7l-27,27L1347.5,1740.4z"/>
</svg>
