<?xml version="1.0" encoding="utf-8"?>
<!-- Generator: Adobe Illustrator 22.1.0, SVG Export Plug-In . SVG Version: 6.00 Build 0)  -->
<svg version="1.1" id="Layer_1" xmlns="http://www.w3.org/2000/svg" xmlns:xlink="http://www.w3.org/1999/xlink" x="0px" y="0px"
	 width="1403.9px" height="2696.2px" viewBox="0 0 1403.9 2696.2" style="enable-background:new 0 0 1403.9 2696.2;"
	 xml:space="preserve">
<style type="text/css">
	.st0{fill:#ECECEC;}
</style>
<path class="st0" d="M27.8,1769l28.4,28.4L0,1853.5l27.8,27.8l28.3,28.3l0,0L0,1965.7l27.8,27.8l28.3,28.3l0,0L0,2077.9l27.8,27.8
	l28.3,28.3L0,2190.2l27.8,27.8l28.4,28.4L0,2302.6l27.8,27.8v0l28.3,28.3l0,0L0,2414.8l27.8,27.8v0l28.3,28.3l0,0L0,2527.1
	l27.8,27.8l28.3,28.3L0,2639.3l27.8,27.8l29.1,29.1l29.1-29.1l27-27l0,0l29.1-29.1l27.8-27.8l-0.1-0.1l28.3-28.3l27-27v0l29.1-29.1
	l27.8-27.8l-0.2-0.2l28.4-28.4l27-27l0,0l29.1-29.1l27.8-27.8l-0.1-0.1l28.3-28.3l27-27l0,0l29.1-29.1l27.8-27.8l-0.1-0.1l28.4-28.4
	l27-27v0l29.1-29.1l27.8-27.8l-0.2-0.2l28.5-28.5l27-27l0,0l29.1-29.1l27.8-27.8l0,0l28.3-28.3l27-27v0l29.1-29.1l27.8-27.8
	l-0.1-0.1l28.4-28.4l27-27v0l29.1-29.1l27.8-27.8l-0.1-0.1l28.3-28.3l27-27l0,0l29.1-29.1l27.8-27.8l-0.2-0.2l28.4-28.4l27-27v0
	l29.1-29.1l27.8-27.8l-0.1-0.1l28.3-28.3l27-27l0,0l29.1-29.1l27.8-27.8l-0.1-0.1l28.4-28.4l27-27l0,0l29.1-29.1l27.8-27.8
	l-56.9-56.9l0,0l-56.1-56.1l0,0l-56-56l0,0l-56.1-56.1v0l-56-56v0l-56.1-56.1l0,0l-56-56l0,0l-56.1-56.1v0l-56-56v0l-56.1-56.1v0
	l-56-56v0L730,673l0,0l-56.1-56.1l0,0l-56.1-56.1v0l-56-56v0l-56.1-56.1l0,0l-56-56l0,0l-56.1-56.1v0l-56-56l0,0l-56.1-56.1v0
	l-56-56v0l-56.1-56.1l0,0l-56-56l0,0L57,0L0.1,56.9l27.8,27.8h0l28.3,28.3L0.1,169.2L27.9,197h0l28.4,28.4L0.1,281.5l27.8,27.8l0,0
	l28.3,28.3L0.1,393.7l27.8,27.8l0,0l28.3,28.3L0.1,506l27.8,27.8h0l28.3,28.3L0.1,618.2L27.9,646h0l28.4,28.4L0.1,730.6l27.8,27.8
	l0,0l28.3,28.3L0.1,842.8l27.8,27.8l0,0L56.2,899L0.1,955.1l27.8,27.8l0,0l28.3,28.3l-56.1,56.1l27.8,27.8l0,0l28.4,28.4l-56.2,56.2
	l27.8,27.8l0,0l28.3,28.3l-56.1,56.1l27.8,27.8l0,0l28.3,28.3l-56.1,56.1l27.8,27.8l0,0l28.3,28.3l-56.1,56.1l27.8,27.8l0,0
	l28.5,28.5L0,1628.9l27.8,27.8l28.3,28.3L0,1741.1L27.8,1769z M83.9,2386.5l0.5,0.5l27.8,27.8l-27,27l-27.7-27.7v-54L83.9,2386.5
	L83.9,2386.5z M83.9,2498.7l0.5,0.5l27.8,27.8l-27,27l-27.7-27.7v-54L83.9,2498.7L83.9,2498.7z M68.6,2572.3l43.9-43.9v54
	l-27.7,27.7l-27-27L68.6,2572.3z M1309.8,1365l-18.2-18.2l13.7-13.7l41-41v54l-27.7,27.7L1309.8,1365z M1290.2,1290l-27.7,27.7
	l-26.9-26.9l28.3-28.3l26.3-26.3V1290z M1065.9,1065.7l-27.7,27.7l-26.9-26.9l28.3-28.3l26.3-26.3V1065.7z M855.9,883.7l-13.7,13.7
	l-27.5-27.5l27.5-27.5l27.5,27.5L855.9,883.7z M505.1,504.8l-27.7,27.7l-26.9-26.9l28.3-28.3l26.3-26.3V504.8z M280.7,280.5
	L253,308.2l-26.9-26.9l28.3-28.3l26.3-26.3V280.5z M168.6,168.4l-27.7,27.7l-26.9-26.9l28.3-28.3l26.3-26.3V168.4z M926.5,1711
	l-27.7-27.7v-54l8.7,8.7l17.6,17.6l0,0l0.7,0.7l27.6,27.6L926.5,1711z M1179.5,1234.7l54.7-54.7v54l-27.7,27.7L1179.5,1234.7z
	 M955.1,1010.4l54.7-54.7v54l-27.7,27.7L955.1,1010.4z M843,898.2l54.7-54.7v54L870,925.2L843,898.2z M730.8,786.1l54.7-54.7v54
	L757.8,813L730.8,786.1z M618.6,673.9l54.7-54.7v54l-27.7,27.7L618.6,673.9z M394.3,449.5l54.7-54.7v54l-27.7,27.7L394.3,449.5z
	 M282.2,337.4l54.7-54.7v54l-27.7,27.7L282.2,337.4z M188.1,243.4L170,225.2l54.7-54.7v54L197,252.2L188.1,243.4z M57.8,113.1
	l54.7-54.7v54L84.8,140L57.8,113.1z M141.3,2497.8l-27.7-27.7v-54l54.6,54.6L141.3,2497.8z M224.4,2414.7l-27,27l-27.7-27.7v-54
	L224.4,2414.7z M365.6,2273l-27.7-27.7v-54l26.3,26.3l0,0l0.4,0.4l28,28L365.6,2273z M448.7,2190l-27,27l-27.7-27.7v-54L448.7,2190z
	 M477.8,2160.7l-27.7-27.7v-54l8.7,8.7l17.6,17.6l0,0l0.7,0.7l27.6,27.6L477.8,2160.7z M560.9,2077.6l-27,27l-27.7-27.7v-54
	L560.9,2077.6z M702.2,1935.7l-27.7-27.7v-54l10.4,10.4l15.9,15.9l0,0l6.2,6.2l22.1,22.1L702.2,1935.7z M785.3,1852.6l-27,27
	l-27.7-27.7v-54L785.3,1852.6z M814.4,1823.3l-27.7-27.7v-54l2.8,2.8l51.8,51.8L814.4,1823.3z M1150.8,1486.2l-27.7-27.7v-54
	l26.3,26.3l0,0l0.4,0.4l28,28L1150.8,1486.2z M1177.8,1234.7l-27,27l-27.7-27.7v-54L1177.8,1234.7z M1066.5,1234l-27.5-27.5
	l27.5-27.5l27.5,27.5L1066.5,1234z M982,1038.8l27.7,27.7l-27,27l-27.7-27.7v-54l13.7,13.7l12.7,12.7l0,0L982,1038.8z M925.2,982.1
	l7.6,7.6l20.7,20.7l-27,27l-27.7-27.7v-54l13.7,13.7L925.2,982.1L925.2,982.1z M869.1,926l4.5,4.5l23.8,23.8l-27,27l-27.7-27.7v-54
	L869.1,926L869.1,926z M700.9,757.7l4.5,4.5l23.8,23.8l-27,27l-27.7-27.7v-54L700.9,757.7L700.9,757.7z M588.7,645.6l7.6,7.6
	l20.7,20.7l-27,27l-27.7-27.7v-54l13.7,13.7L588.7,645.6L588.7,645.6z M364.3,421.2l4.5,4.5l23.8,23.8l-27,27L338,448.9v-54
	L364.3,421.2L364.3,421.2z M308.3,365.2l3.5,3.5l24.8,24.8l-27,27l-27.7-27.7v-54L308.3,365.2L308.3,365.2z M113.1,225.6l27.4,27.4
	L113,280.5l-27.4-27.4L113.1,225.6z M84.8,252.3l-27-27l54.7-54.7v54L84.8,252.3z M113.1,1236.1l27.4,27.4L113,1291l-27.4-27.4
	L113.1,1236.1z M84.8,1262.7l-27-27l54.7-54.7v54L84.8,1262.7z M113.1,1348.3l27.4,27.4l-27.5,27.5l-27.4-27.4L113.1,1348.3z
	 M84.8,1375l-27-27l54.7-54.7v54L84.8,1375z M113.1,1460.5l27.4,27.4l-27.5,27.5L85.6,1488L113.1,1460.5z M84.8,1487.2l-27-27
	l54.7-54.7v54L84.8,1487.2z M113.1,1572.8l27.4,27.4l-27.5,27.5l-27.4-27.4L113.1,1572.8z M84.8,1599.4l-27-27l54.7-54.7v54
	L84.8,1599.4z M1122,1234l-27.7,27.7l-27-27l13.7-13.7l41-41V1234z M855.9,995.9l-13.7,13.7l-27.5-27.5l27.5-27.5l27.5,27.5
	L855.9,995.9z M519.4,659.4l-13.7,13.7l-27.5-27.5l27.5-27.5l27.5,27.5L519.4,659.4z M292.2,437.9l-10.9,10.9l-27.5-27.5l27.5-27.5
	l27.5,27.5L292.2,437.9z M253.5,2273.1l-27.7-27.7v-54l18.2,18.2l8.1,8.1h0l4.5,4.5l23.8,23.8L253.5,2273.1z M365.6,2160.8
	l-27.7-27.7v-54l54.6,54.6L365.6,2160.8z M702.2,1823.5l-27.7-27.7v-54l54.7,54.7L702.2,1823.5z M814.4,1711.1l-27.7-27.7v-54
	l2.8,2.8l51.8,51.8L814.4,1711.1z M926.5,1598.8l-27.7-27.7v-54l54.6,54.6L926.5,1598.8z M1038.7,1486.3l-27.7-27.7v-54l54.6,54.6
	L1038.7,1486.3z M336.9,448.9l-27.7,27.7l-27-27l54.7-54.7V448.9z M517.1,1919.5l-10.7-10.7l54.7-54.7v54l-27.7,27.7L517.1,1919.5z
	 M590,1935.8l-27.7-27.7v-54l8.7,8.7l17.6,17.6l0,0l0.7,0.7l27.6,27.6L590,1935.8z M183.7,660.5l41-41v54L197,701.2l-8.8-8.8
	L170,674.2L183.7,660.5z M180.8,1673.8l43.9-43.9v54l-27.7,27.7l-27-27L180.8,1673.8z M225.2,1909.7l27.4,27.4l-27.5,27.5
	l-27.4-27.4L225.2,1909.7z M196.9,1936.4l-27-27l54.7-54.7v54L196.9,1936.4z M253.5,2160.9l-27.7-27.7v-54l18.2,18.2l8.1,8.1h0
	l4.5,4.5l23.8,23.8L253.5,2160.9z M365.6,2048.5l-27.7-27.7v-54l26.3,26.3l0,0l4.5,4.5l23.8,23.8L365.6,2048.5z M477.8,1935.8
	l-27.7-27.7v-54l2.8,2.8l23.5,23.5v0l4.5,4.5l23.8,23.8L477.8,1935.8z M590,1823.5l-27.7-27.7v-54l8.7,8.7l17.6,17.6l0,0l0.7,0.7
	l27.6,27.6L590,1823.5z M814.4,1598.9l-27.7-27.7v-54l2.8,2.8l23.5,23.5v0l4.5,4.5l23.8,23.8L814.4,1598.9z M1038.7,1374.1
	l-27.7-27.7v-54l54.6,54.6L1038.7,1374.1z M1094.8,1318l-27.7-27.7v-54l54.7,54.7L1094.8,1318z M1080.2,1332.5l-13.7,13.7
	l-27.5-27.5l27.5-27.5l27.5,27.5L1080.2,1332.5z M955.1,1234.9l54.7-54.7v54l-27.7,27.7L955.1,1234.9z M870.5,1093.6l-27.7-27.7v-54
	l54.7,54.7L870.5,1093.6z M618.6,898.4l54.7-54.7v54l-27.7,27.7L618.6,898.4z M534,757.1l-27.7-27.7v-54l54.7,54.7L534,757.1z
	 M519.4,771.7l-13.7,13.7L478.2,758l27.5-27.5l27.5,27.5L519.4,771.7z M394.3,674.1l54.7-54.7v54l-27.7,27.7L394.3,674.1z
	 M282.2,561.9l54.7-54.7v54l-27.7,27.7L282.2,561.9z M280.7,505.1L253,532.8l-26.9-26.9l28.3-28.3l26.3-26.3V505.1z M183.7,548.3
	l41-41v54L197,589l-13.6-13.6L170,562L183.7,548.3z M336.6,2077.8l-27,27l-27.7-27.7v-54L336.6,2077.8z M448.7,1965.4l-27,27
	l-27.7-27.7v-54L448.7,1965.4z M517.1,1807.3l-10.7-10.7l54.7-54.7v54l-27.7,27.7L517.1,1807.3z M673.1,1740.4l-27,27l-27.7-27.7
	v-54L673.1,1740.4z M702.2,1711.2l-27.7-27.7v-54l10.4,10.4l15.9,15.9l0,0l6.2,6.2l22.1,22.1L702.2,1711.2z M925.2,1206.6l4.5,4.5
	l23.8,23.8l-27,27l-27.7-27.7v-54L925.2,1206.6L925.2,1206.6z M730.8,1010.6l54.7-54.7v54l-27.7,27.7L730.8,1010.6z M364.3,645.8
	l6.2,6.2l22.1,22.1l-27,27L338,673.4v-54L364.3,645.8L364.3,645.8z M814.4,1486.6l-27.7-27.7v-54l54.6,54.6L814.4,1486.6z
	 M855.9,1220.4l-13.7,13.7l-27.5-27.5l27.5-27.5l27.5,27.5L855.9,1220.4z M700.9,982.3l6.2,6.2l22.1,22.1l-27,27l-27.7-27.7v-54
	L700.9,982.3L700.9,982.3z M588.7,870.1l4.5,4.5l23.8,23.8l-27,27l-27.7-27.7v-54L588.7,870.1L588.7,870.1z M519.4,883.9l-13.7,13.7
	l-27.5-27.5l27.5-27.5l27.5,27.5L519.4,883.9z M292.2,662.4l-10.9,10.9l-27.5-27.5l27.5-27.5l27.5,27.5L292.2,662.4z M280.7,563.5
	v53.8L253,645l-26.9-26.9l28.3-28.3L280.7,563.5z M336.6,1965.5l-27,27l-27.7-27.7v-54l26.4,26.4l0,0l0.5,0.5L336.6,1965.5z
	 M365.6,1936.3l-27.7-27.7v-54l54.6,54.6L365.6,1936.3z M477.8,1823.6l-27.7-27.7v-54l2.8,2.8l23.5,23.5v0l4.5,4.5l23.8,23.8
	L477.8,1823.6z M517.1,1695.1l-10.7-10.7l54.7-54.7v54l-27.7,27.7L517.1,1695.1z M590,1711.3l-27.7-27.7v-54l54.6,54.6L590,1711.3z
	 M702.2,1598.9l-27.7-27.7v-54l10.4,10.4l15.9,15.9l0,0l6.2,6.2l22.1,22.1L702.2,1598.9z M926.5,1374.1l-27.7-27.7v-54l26.3,26.3
	l0,0l4.5,4.5l23.8,23.8L926.5,1374.1z M897.7,1346.5l-27.7,27.7l-27-27l54.7-54.7V1346.5z M870.5,1318.1l-27.7-27.7v-54l26.4,26.4
	l0,0l4.5,4.5l23.8,23.8L870.5,1318.1z M730.8,1122.8l54.7-54.7v54l-27.7,27.7L730.8,1122.8z M588.7,982.3l4.5,4.5l23.8,23.8l-27,27
	l-27.7-27.7v-54L588.7,982.3L588.7,982.3z M364.3,758l4.5,4.5l23.8,23.8l-27,27L338,785.7v-54L364.3,758L364.3,758z M308.3,702
	l4.5,4.5l23.8,23.8l-27,27l-27.7-27.7v-54L308.3,702L308.3,702z M477.8,1711.4l-27.7-27.7v-54l26.3,26.3l0,0l0.4,0.4l28,28
	L477.8,1711.4z M702.2,1486.7l-27.7-27.7v-54l10.4,10.4l15.9,15.9l0,0l6.2,6.2l22.1,22.1L702.2,1486.7z M814.4,1374.2l-27.7-27.7
	v-54l54.6,54.6L814.4,1374.2z M841.6,1290.4l-27.7,27.7l-26.9-26.9l28.3-28.3l26.3-26.3V1290.4z M700.9,1094.5l6.2,6.2l22.1,22.1
	l-27,27l-27.7-27.7v-54L700.9,1094.5L700.9,1094.5z M336.9,785.7l-27.7,27.7l-27-27l54.7-54.7V785.7z M337.4,786.7l27.4,27.4
	l-27.5,27.5L310,814.2L337.4,786.7z M337.4,1348.1l27.4,27.4l-27.5,27.5l-27.4-27.4L337.4,1348.1z M309.1,1374.7l-27-27l54.7-54.7
	v54L309.1,1374.7z M590,1599l-27.7-27.7v-54l26.3,26.3l0,0l6.2,6.2L617,1572L590,1599z M519.4,996.2l-13.7,13.7l-27.5-27.5
	l27.5-27.5l27.5,27.5L519.4,996.2z M477.8,1599.1l-27.7-27.7v-54l54.6,54.6L477.8,1599.1z M702.2,1374.5l-27.7-27.7v-54l54.7,54.7
	L702.2,1374.5z M588.7,1094.6l4.5,4.5l23.8,23.8l-27,27l-27.7-27.7v-54L588.7,1094.6L588.7,1094.6z M700.9,1206.8l4.5,4.5l23.8,23.8
	l-27,27l-27.7-27.7v-54L700.9,1206.8L700.9,1206.8z M519.4,1108.4l-13.7,13.7l-27.5-27.5l27.5-27.5l27.5,27.5L519.4,1108.4z
	 M517.1,1470.5l-10.7-10.7l54.7-54.7v54l-27.7,27.7L517.1,1470.5z M590,1486.8l-27.7-27.7v-54l8.7,8.7l17.6,17.6l0,0l0.7,0.7
	l27.6,27.6L590,1486.8z M576,1417.1l-13.4-13.4l28.3-28.3l26.3-26.3v53.8l-27.7,27.7L576,1417.1z M394.3,1459.9l54.7-54.7v54
	l-27.7,27.7L394.3,1459.9z M449.6,1460.2l27.4,27.4l-27.5,27.5l-27.4-27.4L449.6,1460.2z M450.2,1405.2l2.8,2.8l51.8,51.8l-27,27
	l-27.7-27.7V1405.2z M590,1374.5l-27.7-27.7v-54l8.7,8.7l17.6,17.6l0,0l0.7,0.7l27.6,27.6L590,1374.5z M576,1304.9l-13.4-13.4
	l28.3-28.3l26.3-26.3v53.8l-27.7,27.7L576,1304.9z M534,1206.2l-27.7-27.7v-54l54.7,54.7L534,1206.2z M505.6,1234.6l-27.5-27.5
	l27.5-27.5l27.5,27.5L505.6,1234.6z M477.8,1150.1l-27.7-27.7v-54l54.6,54.6L477.8,1150.1z M517.1,1358.3l-10.7-10.7l54.7-54.7v54
	l-27.7,27.7L517.1,1358.3z M517.1,1246l-10.7-10.7l54.7-54.7v54l-27.7,27.7L517.1,1246z M505.6,1346.8l-27.5-27.5l27.5-27.5
	l27.5,27.5l-27.2,27.2L505.6,1346.8z M532.6,1263.2l6.2,6.2l22.1,22.1l-27,27l-27.7-27.7v-54l10.5,10.5L532.6,1263.2L532.6,1263.2z
	 M477.3,1318.5l-26.9-26.9l28.3-28.3l26.3-26.3v53.8L477.3,1318.5z M477.8,1262.4l-27.7-27.7v-54l2.8,2.8l51.8,51.8L477.8,1262.4z
	 M505.1,1124.7v53.8l-27.7,27.7l-26.9-26.9l28.3-28.3L505.1,1124.7z M561.8,1235.7l27.4,27.4l-27.5,27.5l-27.4-27.4L561.8,1235.7z
	 M562.4,1180.7l54.6,54.6l-27,27l-27.7-27.7V1180.7z M589.2,1375.3l-27.5,27.5l-27.4-27.4l27.5-27.5L589.2,1375.3z M560.9,1403.7
	l-27,27l-27.7-27.7v-54l10.5,10.5l15.9,15.9l0,0l6.2,6.2L560.9,1403.7z M505.1,1403l-27.7,27.7l-26.9-26.9l28.3-28.3l26.3-26.3V1403
	z M449.5,1402.9l-27.4-27.4l27.5-27.5l27.4,27.4L449.5,1402.9z M450.2,1293l2.8,2.8l51.8,51.8l-27,27l-27.7-27.7V1293z
	 M449.5,1290.7l-27.4-27.4l27.5-27.5l27.4,27.4L449.5,1290.7z M421.3,1262.4l-27-27l54.7-54.7v54L421.3,1262.4z M449.5,1178.4
	l-27.4-27.4l27.5-27.5L477,1151L449.5,1178.4z M421.3,1150.2l-27-27l54.7-54.7v54L421.3,1150.2z M673.1,1291.4l-27,27l-27.7-27.7
	v-54L673.1,1291.4z M645.3,1319.2l-27.5,27.5l-27.5-27.5l27.5-27.5L645.3,1319.2z M505.9,1458.8l-0.3,0.3l-27.5-27.5l27.5-27.5
	l27.5,27.5L505.9,1458.8z M394.3,1347.7L449,1293v54l-27.7,27.7L394.3,1347.7z M421.8,1206.3l-27.7-27.7v-54l26.4,26.4l0,0l0.5,0.5
	l27.8,27.8L421.8,1206.3z M618.4,1124.3l54.7,54.7l-27,27l-27.7-27.7V1124.3z M645.3,1206.8l-27.5,27.5l-27.5-27.5l27.5-27.5
	L645.3,1206.8z M673.3,1234.4l-27.7,27.7l-27-27l54.7-54.7V1234.4z M673.9,1235.4l27.4,27.4l-27.5,27.5l-27.4-27.4L673.9,1235.4z
	 M393.5,1571.4l-27.5-27.5l27.5-27.5l27.5,27.5L393.5,1571.4z M394.1,1461.4l54.7,54.7l-27,27l-27.7-27.7V1461.4z M448.8,1403.8
	l-27,27l-27.7-27.7v-54L448.8,1403.8z M421.8,1318.5l-27.7-27.7v-54l26.4,26.4l0,0l0.5,0.5l27.8,27.8L421.8,1318.5z M393.5,1234.6
	l-27.5-27.5l27.5-27.5l27.5,27.5L393.5,1234.6z M365.2,1206.3l-26.9-26.9l28.3-28.3l26.3-26.3v53.8L365.2,1206.3z M393.5,1122.4
	l-27.5-27.5l27.5-27.5l27.5,27.5L393.5,1122.4z M394.1,1012.4l54.7,54.7l-27,27l-27.7-27.7V1012.4z M449,1010.1l-27.7,27.7l-27-27
	l54.7-54.7V1010.1z M449.6,1011.1l27.4,27.4l-27.5,27.5l-27.4-27.4L449.6,1011.1z M505.1,1012.3v53.8l-27.7,27.7l-26.9-26.9
	l28.3-28.3L505.1,1012.3z M561.2,1122.2l-27.7,27.7l-27-27l10.9-10.9l43.9-43.9V1122.2z M561.8,1123.3l27.4,27.4l-27.5,27.5
	l-27.4-27.4L561.8,1123.3z M617.2,1124.4v53.8l-27.7,27.7l-26.9-26.9l28.3-28.3L617.2,1124.4z M729.4,1236.6v53.9l-27.7,27.7
	l-26.9-26.9l28.3-28.3L729.4,1236.6z M730,1291.5l27.5,27.5l-27.5,27.5l-27.5-27.5L730,1291.5z M673.3,1346.8l-27.7,27.7l-27-27
	l54.7-54.7V1346.8z M673.1,1403.7l-27,27l-27.7-27.7v-54L673.1,1403.7z M645.3,1431.5l-27.5,27.5l-27.5-27.5l27.5-27.5L645.3,1431.5
	z M589.2,1487.6l-27.5,27.5l-27.4-27.4l27.5-27.5L589.2,1487.6z M560.9,1516l-27,27l-27.7-27.7v-54l10.5,10.5l15.9,15.9l0,0l6.2,6.2
	L560.9,1516z M505.1,1515.2l-27.7,27.7l-26.9-26.9l28.3-28.3l26.3-26.3V1515.2z M449,1571.5l-27.7,27.7l-27-27l54.7-54.7V1571.5z
	 M448.8,1628.4l-27,27l-27.7-27.7v-54l26.4,26.4l0,0l0.5,0.5L448.8,1628.4z M392.9,1627.6l-27.7,27.7l-26.9-26.9l28.3-28.3
	l26.3-26.3V1627.6z M365.2,1543.1l-26.9-26.9l28.3-28.3l26.3-26.3v53.8L365.2,1543.1z M393.5,1459.1l-27.5-27.5l27.5-27.5l27.5,27.5
	L393.5,1459.1z M365.2,1430.8l-26.9-26.9l28.3-28.3l26.3-26.3v53.8L365.2,1430.8z M393.5,1346.9l-27.5-27.5l27.5-27.5l27.5,27.5
	L393.5,1346.9z M365.2,1318.5l-26.9-26.9l28.3-28.3l26.3-26.3v53.8L365.2,1318.5z M365.2,1094.1l-26.9-26.9l28.3-28.3l26.3-26.3
	v53.8L365.2,1094.1z M393.5,1010L366,982.5l27.5-27.5l27.5,27.5L393.5,1010z M394.1,900l54.7,54.7l-27,27l-27.7-27.7V900z
	 M450.2,956.1l54.6,54.6l-27,27l-27.7-27.7V956.1z M532.6,1038.5l4.5,4.5l23.8,23.8l-27,27l-27.7-27.7v-54L532.6,1038.5
	L532.6,1038.5z M730.6,1236.5l54.7,54.7l-27,27l-27.7-27.7V1236.5z M701.4,1375.3l-27.5,27.5l-27.4-27.4l27.5-27.5L701.4,1375.3z
	 M617.2,1515.1l-27.7,27.7l-26.9-26.9l28.3-28.3l26.3-26.3V1515.1z M519.4,1557.5l-13.7,13.7l-27.5-27.5l27.5-27.5l27.5,27.5
	L519.4,1557.5z M477,1600l-27.5,27.5l-27.4-27.4l27.5-27.5L477,1600z M393.5,1683.6l-27.5-27.5l27.5-27.5l27.5,27.5L393.5,1683.6z
	 M365.7,1599.2l-27.7-27.7v-54l8.7,8.7l17.6,17.6l0,0l0.7,0.7l27.6,27.6L365.7,1599.2z M337.4,1290.7l-27.4-27.4l27.5-27.5
	l27.4,27.4L337.4,1290.7z M338,1180.8l8.7,8.7l17.6,17.6l0,0l0.7,0.7l27.6,27.6l-27,27l-27.7-27.7V1180.8z M337.4,1178.5l-27.4-27.4
	l27.5-27.5l27.4,27.4L337.4,1178.5z M338,1068.6l8.7,8.7l17.6,17.6l0,0l0.7,0.7l27.6,27.6l-27,27l-27.7-27.7V1068.6z M338.3,954.8
	l28.3-28.3l26.3-26.3v53.8l-27.7,27.7L338.3,954.8z M365.7,925.5L338,897.9v-54l26.3,26.3l0,0l4.5,4.5l23.8,23.8L365.7,925.5z
	 M673.3,1122.1l-27.7,27.7l-27-27l54.7-54.7V1122.1z M673.9,1123.2l27.4,27.4l-27.5,27.5l-27.4-27.4L673.9,1123.2z M729.4,1124.3
	v53.9l-27.7,27.7l-26.9-26.9l28.3-28.3L729.4,1124.3z M730,1179.3l27.5,27.5l-27.5,27.5l-27.5-27.5L730,1179.3z M785.5,1234.3
	l-27.7,27.7l-27-27l54.7-54.7V1234.3z M785.5,1346.6l-27.7,27.7l-27-27l54.7-54.7V1346.6z M673.3,1459l-27.7,27.7l-27-27l54.7-54.7
	V1459z M673.1,1515.9l-27,27l-27.7-27.7v-54L673.1,1515.9z M645.3,1543.7l-27.5,27.5l-27.5-27.5l27.5-27.5L645.3,1543.7z
	 M561.2,1571.3l-27.7,27.7l-27-27l10.9-10.9l43.9-43.9V1571.3z M449,1683.7l-27.7,27.7l-27-27l54.7-54.7V1683.7z M448.8,1740.6
	l-27,27l-27.7-27.7v-54l26.4,26.4l0,0l0.5,0.5L448.8,1740.6z M392.9,1739.8l-27.7,27.7l-26.9-26.9l28.3-28.3l26.3-26.3V1739.8z
	 M365.7,1711.5l-27.7-27.7v-54l8.7,8.7l17.6,17.6l0,0l0.7,0.7l27.6,27.6L365.7,1711.5z M337.4,1627.5l-27.4-27.4l27.5-27.5
	l27.4,27.4L337.4,1627.5z M309.1,1599.3l-27-27l54.7-54.7v54L309.1,1599.3z M337.4,1515.3l-27.4-27.4l27.5-27.5l27.4,27.4
	L337.4,1515.3z M338,1405.4l54.6,54.6l-27,27l-27.7-27.7V1405.4z M338,1293.1l8.7,8.7l17.6,17.6l0,0l0.7,0.7l27.6,27.6l-27,27
	L338,1347V1293.1z M282.2,1235.5l54.7-54.7v54l-27.7,27.7L282.2,1235.5z M282.2,1123.3l54.7-54.7v54l-27.7,27.7L282.2,1123.3z
	 M337.4,1066.3l-27.4-27.4l27.5-27.5l27.4,27.4L337.4,1066.3z M338,956.3l54.6,54.6l-27,27l-27.7-27.7V956.3z M337.4,953.9
	L310,926.4l27.5-27.5l27.4,27.4L337.4,953.9z M309.1,925.6l-27-27l54.7-54.7v54L309.1,925.6z M392.9,787.9v53.8l-27.7,27.7
	l-26.9-26.9l28.3-28.3L392.9,787.9z M393.5,842.8l27.5,27.5l-27.5,27.5L366,870.3L393.5,842.8z M394.1,787.7l54.7,54.7l-27,27
	l-27.7-27.7V787.7z M449,897.8l-27.7,27.7l-27-27l54.7-54.7V897.8z M449.6,898.9l27.4,27.4l-27.5,27.5l-27.4-27.4L449.6,898.9z
	 M505.1,900v53.8l-27.7,27.7l-26.9-26.9l28.3-28.3L505.1,900z M532.6,926.3l4.5,4.5l23.8,23.8l-27,27l-27.7-27.7v-54L532.6,926.3
	L532.6,926.3z M561.2,1010l-27.7,27.7l-27-27l10.9-10.9l43.9-43.9V1010z M561.8,1011.1l27.4,27.4l-27.5,27.5l-27.4-27.4
	L561.8,1011.1z M617.2,1012.2v53.8l-27.7,27.7l-26.9-26.9l28.3-28.3L617.2,1012.2z M617.8,1067.1l27.5,27.5l-27.5,27.5l-27.5-27.5
	L617.8,1067.1z M618.4,1012.1l54.7,54.7l-27,27l-27.7-27.7V1012.1z M730.6,1124.3l54.7,54.7l-27,27l-27.7-27.7V1124.3z
	 M786.1,1235.4l27.4,27.4l-27.5,27.5l-27.4-27.4L786.1,1235.4z M813.5,1375l-27.5,27.5l-27.4-27.4l27.5-27.5L813.5,1375z
	 M785.3,1403.6l-27,27l-27.7-27.7v-54L785.3,1403.6z M729.4,1402.9l-27.7,27.7l-26.9-26.9l28.3-28.3l26.3-26.3V1402.9z
	 M701.4,1487.5l-27.5,27.5l-27.4-27.4l27.5-27.5L701.4,1487.5z M561.7,1627.3l-27.4-27.4l27.5-27.5l27.4,27.4L561.7,1627.3z
	 M560.9,1628.3l-27,27l-27.7-27.7v-54L560.9,1628.3z M505.1,1627.5l-27.7,27.7l-26.9-26.9l28.3-28.3l26.3-26.3V1627.5z M477,1712.2
	l-27.5,27.5l-27.4-27.4l27.5-27.5L477,1712.2z M393.5,1795.9l-27.5-27.5l27.5-27.5l27.5,27.5L393.5,1795.9z M337.4,1739.8
	l-27.4-27.4l27.5-27.5l27.4,27.4L337.4,1739.8z M309.1,1711.5l-27-27l54.7-54.7v54L309.1,1711.5z M309.6,1543.2l-27.7-27.7v-54
	l26.4,26.4l0,0l0.3,0.3l28,28L309.6,1543.2z M282.2,1460.1l54.7-54.7v54l-27.7,27.7L282.2,1460.1z M336.6,1291.6l-27,27l-27.7-27.7
	v-54l10.5,10.5l15.9,15.9l0,0l4.5,4.5L336.6,1291.6z M309.6,1206.4l-27.7-27.7v-54l10.5,10.5l15.9,15.9l0,0l4.5,4.5l23.8,23.8
	L309.6,1206.4z M309.6,1094.2l-27.7-27.7v-54l10.5,10.5l15.9,15.9l0,0l4.5,4.5l23.8,23.8L309.6,1094.2z M282.2,1011.1l54.7-54.7v54
	l-27.7,27.7L282.2,1011.1z M309.6,869.5l-27.7-27.7v-54l26.4,26.4l0,0l4.5,4.5l23.8,23.8L309.6,869.5z M450.2,843.9l54.6,54.6
	l-27,27l-27.7-27.7V843.9z M789.5,1183.2l51.8,51.8l-27,27l-27.7-27.7v-54L789.5,1183.2z M855.9,1332.7l-13.7,13.7l-27.5-27.5
	l27.5-27.5l27.5,27.5L855.9,1332.7z M730,1458.9l-27.5-27.5l27.5-27.5l27.5,27.5L730,1458.9z M673.3,1571.3l-27.7,27.7l-27-27
	l54.7-54.7V1571.3z M617.2,1627.4l-27.7,27.7l-26.9-26.9l28.3-28.3l26.3-26.3V1627.4z M505.6,1683.6l-27.5-27.5l27.5-27.5l27.5,27.5
	L505.6,1683.6z M449,1796l-27.7,27.7l-27-27L449,1742V1796z M282.2,1796.8l54.7-54.7v54l-27.7,27.7L282.2,1796.8z M337.4,1797.1
	l27.4,27.4l-27.5,27.5l-27.4-27.4L337.4,1797.1z M338,1742.1l8.7,8.7l17.6,17.6l0,0l0.7,0.7l27.6,27.6l-27,27L338,1796V1742.1z
	 M309.6,1655.4l-27.7-27.7v-54l26.4,26.4l0,0l0.3,0.3l28,28L309.6,1655.4z M281.3,1571.5l-27.5-27.5l27.5-27.5l27.5,27.5
	L281.3,1571.5z M309.6,1430.9l-27.7-27.7v-54l54.7,54.7L309.6,1430.9z M281.3,1346.9l-27.5-27.5l27.5-27.5l27.5,27.5L281.3,1346.9z
	 M281.3,1234.7l-27.5-27.5l27.5-27.5l27.5,27.5L281.3,1234.7z M281.3,1122.5l-27.5-27.5l27.5-27.5l27.5,27.5L281.3,1122.5z
	 M309.6,981.9l-27.7-27.7v-54l54.7,54.7L309.6,981.9z M281.3,897.8l-27.5-27.5l27.5-27.5l27.5,27.5l-16.6,16.6L281.3,897.8z
	 M281.3,785.6l-27.5-27.5l27.5-27.5l27.5,27.5l-16.6,16.6L281.3,785.6z M394.3,786.3l54.7-54.7v54l-27.7,27.7L394.3,786.3z
	 M449.6,786.7l27.4,27.4l-27.5,27.5l-27.4-27.4L449.6,786.7z M517.3,887.6l43.9-43.9v54l-27.7,27.7l-27-27L517.3,887.6z
	 M561.8,898.8l27.4,27.4l-27.5,27.5l-27.4-27.4L561.8,898.8z M618.6,1010.7l54.7-54.7v54l-27.7,27.7L618.6,1010.7z M673.9,1011
	l27.4,27.4l-27.5,27.5l-27.4-27.4L673.9,1011z M729.4,1012.1v53.9l-27.7,27.7l-26.9-26.9l28.3-28.3L729.4,1012.1z M730,1067
	l27.5,27.5L730,1122l-27.5-27.5L730,1067z M786.1,1123.2l27.4,27.4l-27.5,27.5l-27.4-27.4L786.1,1123.2z M925.7,1375l-27.5,27.5
	l-27.4-27.4l27.5-27.5L925.7,1375z M841.6,1402.6l-27.7,27.7l-26.9-26.9l28.3-28.3l26.3-26.3V1402.6z M785.5,1459l-27.7,27.7l-27-27
	l54.7-54.7V1459z M785.3,1515.8l-27,27l-27.7-27.7v-54l26.4,26.4l0,0l0.5,0.5L785.3,1515.8z M729.4,1515.1l-27.7,27.7l-26.9-26.9
	l28.3-28.3l26.3-26.3V1515.1z M701.4,1599.8l-27.5,27.5l-27.4-27.4l27.5-27.5L701.4,1599.8z M673.1,1628.1l-27,27l-27.7-27.7v-54
	L673.1,1628.1z M645.3,1655.9l-27.5,27.5l-27.5-27.5l27.5-27.5L645.3,1655.9z M560.9,1740.5l-27,27l-27.7-27.7v-54l10.5,10.5
	l15.9,15.9l0,0l6.2,6.2L560.9,1740.5z M505.1,1739.8l-27.7,27.7l-26.9-26.9l28.3-28.3l26.3-26.3V1739.8z M477,1824.4l-27.5,27.5
	l-27.4-27.4l27.5-27.5L477,1824.4z M448.8,1852.8l-27,27l-27.7-27.7v-54l26.4,26.4l0,0l0.5,0.5L448.8,1852.8z M392.9,1852.1
	l-27.7,27.7l-26.9-26.9l28.3-28.3l26.3-26.3V1852.1z M364.8,1937.1l-27.5,27.5l-27.4-27.4l27.5-27.5L364.8,1937.1z M292.9,1898.5
	l43.9-43.9v54l-27.7,27.7l-27-27L292.9,1898.5z M309.6,1880.2l-27.7-27.7v-54l54.7,54.7L309.6,1880.2z M336.6,1740.7l-27,27
	l-27.7-27.7v-54l26.4,26.4l0,0l0.3,0.3L336.6,1740.7z M281.3,1683.7l-27.5-27.5l27.5-27.5l27.5,27.5L281.3,1683.7z M253,1655.4
	l-26.9-26.9l28.3-28.3l26.3-26.3v53.8L253,1655.4z M253.5,1599.3l-27.7-27.7v-54l26.3,26.3l0,0l0.4,0.4l28,28L253.5,1599.3z
	 M253,1543.2l-26.9-26.9l28.3-28.3l26.3-26.3v53.8L253,1543.2z M281.3,1459.3l-27.5-27.5l27.5-27.5l27.5,27.5L281.3,1459.3z
	 M253,1430.9l-26.9-26.9l28.3-28.3l26.3-26.3v53.8L253,1430.9z M253,1318.6l-26.9-26.9l28.3-28.3l26.3-26.3v53.8L253,1318.6z
	 M253,1206.4l-26.9-26.9l28.3-28.3l26.3-26.3v53.8L253,1206.4z M253,1094.2l-26.9-26.9l28.3-28.3l26.3-26.3v53.8L253,1094.2z
	 M281.3,1010.2l-27.5-27.5l27.5-27.5l27.5,27.5L281.3,1010.2z M253,981.9L226.1,955l28.3-28.3l26.3-26.3v53.8L253,981.9z
	 M226.1,842.6l28.3-28.3l26.3-26.3v53.8L253,869.5L226.1,842.6z M253,757.3l-26.9-26.9l28.3-28.3l26.3-26.3v53.8L253,757.3z
	 M336.9,673.4l-27.7,27.7l-27-27l54.7-54.7V673.4z M337.4,674.5l27.4,27.4l-27.5,27.5L310,702L337.4,674.5z M392.9,675.7v53.8
	l-27.7,27.7l-26.9-26.9l28.3-28.3L392.9,675.7z M393.5,730.5L421,758l-27.5,27.5L366,758L393.5,730.5z M453,734.5l51.8,51.8l-27,27
	l-27.7-27.7v-54L453,734.5z M505.1,787.8v53.8l-27.7,27.7l-26.9-26.9l28.3-28.3L505.1,787.8z M617.2,900v53.8l-27.7,27.7l-26.9-26.9
	l28.3-28.3L617.2,900z M617.8,954.9l27.5,27.5l-27.5,27.5l-27.5-27.5L617.8,954.9z M618.4,899.8l54.7,54.7l-27,27l-27.7-27.7V899.8z
	 M730.6,1012l54.7,54.7l-27,27l-27.7-27.7V1012z M789.5,1071l51.8,51.8l-27,27l-27.7-27.7v-54L789.5,1071z M841.6,1124.3v53.8
	l-27.7,27.7l-26.9-26.9l28.3-28.3L841.6,1124.3z M897.7,1234.3L870,1262l-27-27l54.7-54.7V1234.3z M898.3,1235.3l27.4,27.4
	l-27.5,27.5l-27.4-27.4L898.3,1235.3z M953.7,1236.5v53.8L926,1318l-26.9-26.9l28.3-28.3L953.7,1236.5z M954.3,1291.4l27.5,27.5
	l-27.5,27.5l-27.5-27.5L954.3,1291.4z M953.7,1402.5l-27.7,27.7l-26.9-26.9l28.3-28.3l26.3-26.3V1402.5z M870.5,1430.3l-27.7-27.7
	v-54l26.4,26.4l0,0l4.5,4.5l23.8,23.8L870.5,1430.3z M855.9,1444.9l-13.7,13.7l-27.5-27.5l27.5-27.5l27.5,27.5L855.9,1444.9z
	 M813.5,1487.5l-27.5,27.5l-27.4-27.4l27.5-27.5L813.5,1487.5z M730,1571.1l-27.5-27.5l27.5-27.5l27.5,27.5L730,1571.1z
	 M589.2,1712.1l-27.5,27.5l-27.4-27.4l27.5-27.5L589.2,1712.1z M505.6,1795.8l-27.5-27.5l27.5-27.5l27.5,27.5L505.6,1795.8z
	 M393.5,1908.1l-27.5-27.5l27.5-27.5l27.5,27.5L393.5,1908.1z M295,2007l-13.7,13.7l-27.5-27.5l27.5-27.5l27.5,27.5L295,2007z
	 M253,1992.4l-26.9-26.9l28.3-28.3l26.3-26.3v53.8L253,1992.4z M281.3,1908.5l-27.5-27.5l27.5-27.5l27.5,27.5l-13.7,13.7
	L281.3,1908.5z M253,1880.2l-26.9-26.9l28.3-28.3l26.3-26.3v53.8L253,1880.2z M281.3,1796l-27.5-27.5l27.5-27.5l27.5,27.5
	L281.3,1796z M225.2,1627.6l-27.4-27.4l27.5-27.5l27.4,27.4L225.2,1627.6z M253.5,1487.1l-27.7-27.7v-54l26.3,26.3l0,0l0.4,0.4
	l28,28L253.5,1487.1z M253.5,1374.8l-27.7-27.7v-54l54.6,54.6L253.5,1374.8z M253.5,1262.5l-27.7-27.7v-54l26.3,26.3l0,0l4.5,4.5
	l23.8,23.8L253.5,1262.5z M253.5,1150.3l-27.7-27.7v-54l26.3,26.3l0,0l4.5,4.5l23.8,23.8L253.5,1150.3z M253.5,1038l-27.7-27.7v-54
	l26.3,26.3l0,0l0.4,0.4l28,28L253.5,1038z M253.5,925.8l-27.7-27.7v-54l54.6,54.6L253.5,925.8z M253.5,813.4l-27.7-27.7v-54
	l54.6,54.6L253.5,813.4z M253.5,701.2l-27.7-27.7v-54l54.6,54.6L253.5,701.2z M225.2,617.2l-27.4-27.4l27.5-27.5l27.4,27.4
	L225.2,617.2z M225.9,507.3l54.6,54.6l-27,27l-27.7-27.7V507.3z M308.3,589.7l4.5,4.5l23.8,23.8l-27,27l-27.7-27.7v-54L308.3,589.7
	L308.3,589.7z M394.1,675.5l54.7,54.7l-27,27l-27.7-27.7V675.5z M532.6,814.1l4.5,4.5l23.8,23.8l-27,27l-27.7-27.7v-54L532.6,814.1
	L532.6,814.1z M869.1,1150.6l4.5,4.5l23.8,23.8l-27,27l-27.7-27.7v-54L869.1,1150.6L869.1,1150.6z M954.9,1236.3l54.7,54.7l-27,27
	l-27.7-27.7V1236.3z M1009.9,1346.4l-27.7,27.7l-27-27l54.7-54.7V1346.4z M1009.6,1403.3l-27,27l-27.7-27.7v-54L1009.6,1403.3z
	 M981.8,1431.1l-27.5,27.5l-27.5-27.5l27.5-27.5L981.8,1431.1z M897.7,1458.7l-27.7,27.7l-27-27l54.7-54.7V1458.7z M785.5,1571.2
	l-27.7,27.7l-27-27l54.7-54.7V1571.2z M785.3,1628.1l-27,27l-27.7-27.7v-54l26.4,26.4l0,0l0.5,0.5L785.3,1628.1z M729.4,1627.3
	l-27.7,27.7l-26.9-26.9l28.3-28.3l26.3-26.3V1627.3z M673.3,1683.5l-27.7,27.7l-27-27l54.7-54.7V1683.5z M617.2,1739.7l-27.7,27.7
	l-26.9-26.9l28.3-28.3l26.3-26.3V1739.7z M560.9,1852.8l-27,27l-27.7-27.7v-54l10.5,10.5l15.9,15.9l0,0l6.2,6.2L560.9,1852.8z
	 M505.1,1852l-27.7,27.7l-26.9-26.9l28.3-28.3l26.3-26.3V1852z M449,1908.2l-27.7,27.7l-27-27l54.7-54.7V1908.2z M392.8,1964.7
	l-27.7,27.7l-26.9-26.9l28.3-28.3l26.3-26.3V1964.7z M336.8,2020.8l-27.7,27.7l-27-27l13.7-13.7l41-41V2020.8z M280.7,2077
	l-27.7,27.7l-26.9-26.9l28.3-28.3l26.3-26.3V2077z M225.2,2077l-27.4-27.4l27.5-27.5l27.4,27.4L225.2,2077z M225.8,1967l54.6,54.6
	l-27,27l-27.7-27.7V1967z M226.1,1740.7l28.3-28.3l26.3-26.3v53.8l-27.7,27.7L226.1,1740.7z M253.5,1711.5l-27.7-27.7v-54l26.3,26.3
	l0,0l0.4,0.4l28,28L253.5,1711.5z M180.8,1561.5l43.9-43.9v54l-27.7,27.7l-27-27L180.8,1561.5z M225.2,1515.4l-27.4-27.4l27.5-27.5
	l27.4,27.4L225.2,1515.4z M225.2,1403.1l-27.4-27.4l27.5-27.5l27.4,27.4L225.2,1403.1z M225.2,1290.8l-27.4-27.4l27.5-27.5
	l27.4,27.4L225.2,1290.8z M225.2,1178.6l-27.4-27.4l27.5-27.5l27.4,27.4L225.2,1178.6z M225.2,1066.3l-27.4-27.4l27.5-27.5
	l27.4,27.4L225.2,1066.3z M225.2,954.1l-27.4-27.4l27.5-27.5l27.4,27.4L225.2,954.1z M197.8,814.3l27.5-27.5l27.4,27.4l-27.5,27.5
	L197.8,814.3z M225.2,729.5L197.8,702l27.5-27.5l27.4,27.4L225.2,729.5z M505.1,675.6v53.8l-27.7,27.7l-26.9-26.9l28.3-28.3
	L505.1,675.6z M517.3,775.4l43.9-43.9v54l-27.7,27.7l-27-27L517.3,775.4z M617.2,787.7v53.8l-27.7,27.7l-26.9-26.9l28.3-28.3
	L617.2,787.7z M617.8,842.6l27.5,27.5l-27.5,27.5l-27.5-27.5L617.8,842.6z M618.4,787.6l54.7,54.7l-27,27l-27.7-27.7V787.6z
	 M729.4,899.9v53.9l-27.7,27.7l-26.9-26.9l28.3-28.3L729.4,899.9z M730,954.8l27.5,27.5l-27.5,27.5l-27.5-27.5L730,954.8z
	 M730.6,899.8l54.7,54.7l-27,27l-27.7-27.7V899.8z M786.1,1010.9l27.4,27.4l-27.5,27.5l-27.4-27.4L786.1,1010.9z M786.7,955.9
	l54.6,54.6l-27,27l-27.7-27.7V955.9z M841.6,1012.1v53.8l-27.7,27.7l-26.9-26.9l28.3-28.3L841.6,1012.1z M842.2,1067l27.5,27.5
	l-13.7,13.7l-13.7,13.7l-27.5-27.5L842.2,1067z M843,1122.8l54.7-54.7v54l-27.7,27.7L843,1122.8z M1037.9,1374.9l-27.5,27.5
	L983,1375l27.5-27.5L1037.9,1374.9z M926.5,1486.4l-27.7-27.7v-54l26.3,26.3l0,0l4.5,4.5l23.8,23.8L926.5,1486.4z M925.7,1487.2
	l-27.5,27.5l-27.4-27.4l27.5-27.5L925.7,1487.2z M897.5,1515.8l-27,27l-27.7-27.7v-54L897.5,1515.8z M841.6,1515l-27.7,27.7
	l-26.9-26.9l28.3-28.3l26.3-26.3V1515z M813.5,1599.7l-27.5,27.5l-27.4-27.4l27.5-27.5L813.5,1599.7z M730,1683.4l-27.5-27.5
	l27.5-27.5l27.5,27.5L730,1683.4z M673.9,1739.5l-27.4-27.4l27.5-27.5l27.4,27.4L673.9,1739.5z M617.8,1795.7l-27.5-27.5l27.5-27.5
	l27.5,27.5L617.8,1795.7z M589.2,1824.4l-27.5,27.5l-27.4-27.4l27.5-27.5L589.2,1824.4z M505.6,1908l-27.5-27.5l27.5-27.5l27.5,27.5
	L505.6,1908z M477,1936.7l-27.5,27.5l-27.4-27.4l27.5-27.5L477,1936.7z M393.4,2020.7l-27.5-27.5l27.5-27.5l27.5,27.5L393.4,2020.7z
	 M337.3,2076.8l-27.4-27.4l27.5-27.5l27.4,27.4L337.3,2076.8z M295,2119.3l-13.7,13.7l-27.5-27.5l27.5-27.5l27.5,27.5L295,2119.3z
	 M252.6,2161.7l-27.5,27.5l-27.4-27.4l27.5-27.5L252.6,2161.7z M169.9,2134l54.7-54.7v54l-27.7,27.7L169.9,2134z M169.9,2021.7
	l54.7-54.7v54l-27.7,27.7L169.9,2021.7z M225.8,1854.7l10.4,10.4l15.9,15.9l0,0l4.5,4.5l23.8,23.8l-27,27l-27.7-27.7V1854.7z
	 M225.2,1852.4l-27.4-27.4l27.5-27.5l27.4,27.4L225.2,1852.4z M225.8,1742.5l54.6,54.6l-27,27l-27.7-27.7V1742.5z M225.2,1739.8
	l-27.4-27.4l27.5-27.5l27.4,27.4L225.2,1739.8z M197.5,1655.5l-27.7-27.7v-54l26.4,26.4l0,0l0.5,0.5l27.8,27.8L197.5,1655.5z
	 M169.2,1571.6l-27.5-27.5l27.5-27.5l27.5,27.5l-13.7,13.7L169.2,1571.6z M169.7,1461.6l26.4,26.4l0,0l0.5,0.5l27.8,27.8l-27,27
	l-27.7-27.7V1461.6z M180.8,1449.3l43.9-43.9v54l-27.7,27.7l-27-27L180.8,1449.3z M197.5,1431l-27.7-27.7v-54l26.4,26.4l0,0l0.5,0.5
	l27.8,27.8L197.5,1431z M180.8,1337.1l43.9-43.9v54l-27.7,27.7l-27-27L180.8,1337.1z M197.5,1318.8l-27.7-27.7v-54l54.7,54.7
	L197.5,1318.8z M183.7,1221.9l41-41v54l-27.7,27.7l-27-27L183.7,1221.9z M197.5,1206.5l-27.7-27.7v-54l26.4,26.4l0,0l0.5,0.5
	l27.8,27.8L197.5,1206.5z M183.7,1109.6l41-41v54l-27.7,27.7l-27-27L183.7,1109.6z M197.5,1094.2l-27.7-27.7v-54l26.4,26.4l0,0
	l0.5,0.5l27.8,27.8L197.5,1094.2z M180.8,1000.3l43.9-43.9v54l-27.7,27.7l-27-27L180.8,1000.3z M197.5,982l-27.7-27.7v-54l26.4,26.4
	l0,0l0.5,0.5l27.8,27.8L197.5,982z M180.8,888l43.9-43.9v54L197,925.9l-27-27L180.8,888z M197.5,869.8L169.7,842v-54l54.7,54.7
	L197.5,869.8z M183.7,772.7l41-41v54L197,813.5l-27-27L183.7,772.7z M197.5,645.1l-27.7-27.7v-54l54.7,54.7L197.5,645.1z
	 M169.2,561.2l-27.5-27.5l27.5-27.5l27.5,27.5L169.2,561.2z M169.7,451.2l54.7,54.7l-27,27l-27.7-27.7V451.2z M183.7,436l41-41v54
	L197,476.8l-13.6-13.6L170,449.8L183.7,436z M225.3,450.1l27.4,27.4L225.2,505l-27.4-27.4L225.3,450.1z M225.9,395.1l54.6,54.6
	l-27,27L225.9,449V395.1z M336.6,505.8l-27,27l-27.7-27.7v-54L336.6,505.8z M292.2,550.2l-10.9,10.9l-27.5-27.5l27.5-27.5l27.5,27.5
	L292.2,550.2z M337.4,562.3l27.4,27.4l-27.5,27.5L310,589.7L337.4,562.3z M338,507.2l54.6,54.6l-27,27L338,561.2V507.2z
	 M392.9,563.4v53.8L365.2,645l-26.9-26.9l28.3-28.3L392.9,563.4z M393.5,618.3l27.5,27.5l-27.5,27.5L366,645.8L393.5,618.3z
	 M394.1,563.3l54.7,54.7l-27,27l-27.7-27.7V563.3z M449.6,674.4l27.4,27.4l-27.5,27.5l-27.4-27.4L449.6,674.4z M450.2,619.4
	l54.6,54.6l-27,27l-27.7-27.7V619.4z M561.8,786.6l27.4,27.4l-27.5,27.5l-27.4-27.4L561.8,786.6z M562.4,731.6l54.6,54.6l-27,27
	l-27.7-27.7V731.6z M673.9,898.7l27.4,27.4l-27.5,27.5l-27.4-27.4L673.9,898.7z M674.5,843.7l54.7,54.7l-27,27l-27.7-27.7V843.7z
	 M898.3,1123.1l27.4,27.4l-27.5,27.5l-27.4-27.4L898.3,1123.1z M898.9,1068.1l54.6,54.6l-27,27l-27.7-27.7V1068.1z M953.7,1124.3
	v53.8l-27.7,27.7l-26.9-26.9l28.3-28.3L953.7,1124.3z M954.3,1179.1l27.5,27.5l-27.5,27.5l-27.5-27.5L954.3,1179.1z M954.9,1124.1
	l54.7,54.7l-27,27l-27.7-27.7V1124.1z M1010.4,1235.3l27.4,27.4l-27.5,27.5l-27.4-27.4L1010.4,1235.3z M1011,1180.2l54.6,54.6
	l-27,27l-27.7-27.7V1180.2z M1065.9,1236.4v53.8l-27.7,27.7l-26.9-26.9l28.3-28.3L1065.9,1236.4z M1122,1346.4l-27.7,27.7l-27-27
	l10.9-10.9l43.9-43.9V1346.4z M1009.9,1458.7l-27.7,27.7l-27-27l54.7-54.7V1458.7z M953.7,1514.8l-27.7,27.7l-26.9-26.9l28.3-28.3
	l26.3-26.3V1514.8z M842.2,1571.1l-27.5-27.5l27.5-27.5l27.5,27.5L842.2,1571.1z M785.5,1683.4l-27.7,27.7l-27-27l54.7-54.7V1683.4z
	 M729.4,1739.6l-27.7,27.7l-26.9-26.9l28.3-28.3l26.3-26.3V1739.6z M673.3,1795.8l-27.7,27.7l-27-27l54.7-54.7V1795.8z M449,2020.8
	l-27.7,27.7l-27-27l54.7-54.7V2020.8z M336.8,2133.2l-27.7,27.7l-27-27l10.9-10.9l43.9-43.9V2133.2z M224.6,2245.5l-27.7,27.7
	l-27-27l54.7-54.7V2245.5z M197.4,2217.1l-27.7-27.7v-54l26.4,26.4l0,0l0.3,0.3l28,28L197.4,2217.1z M197.4,2104.8l-27.7-27.7v-54
	l26.4,26.4l0,0l0.3,0.3l28,28L197.4,2104.8z M224.4,1853.3l-27,27l-27.7-27.7v-54l26.4,26.4l0,0l0.3,0.3L224.4,1853.3z
	 M169.9,1797.2l54.7-54.7v54l-27.7,27.7L169.9,1797.2z M169.2,1683.8l-27.5-27.5l27.5-27.5l27.5,27.5l-13.7,13.7L169.2,1683.8z
	 M140.9,1543.2l-26.9-26.9l28.3-28.3l26.3-26.3v53.8L140.9,1543.2z M169.2,1459.3l-27.5-27.5l27.5-27.5l27.5,27.5l-13.7,13.7
	L169.2,1459.3z M140.9,1431l-26.9-26.9l28.3-28.3l26.3-26.3v53.8L140.9,1431z M169.2,1347.1l-27.5-27.5l27.5-27.5l27.5,27.5
	l-13.7,13.7L169.2,1347.1z M140.9,1318.8l-26.9-26.9l28.3-28.3l26.3-26.3v53.8L140.9,1318.8z M169.2,1234.8l-27.5-27.5l27.5-27.5
	l27.5,27.5l-13.7,13.7L169.2,1234.8z M169.2,1122.5l-27.5-27.5l27.5-27.5l27.5,27.5l-13.7,13.7L169.2,1122.5z M169.2,1010.3
	l-27.5-27.5l27.5-27.5l27.5,27.5l-13.7,13.7L169.2,1010.3z M169.2,898.1l-27.5-27.5l27.5-27.5l27.5,27.5l-13.7,13.7L169.2,898.1z
	 M197.5,757.3l-27.7-27.7v-54l54.7,54.7L197.5,757.3z M169.2,673.4l-27.5-27.5l27.5-27.5l27.5,27.5L169.2,673.4z M127.4,519.4
	L113.9,506l28.3-28.3l26.3-26.3v53.8l-27.7,27.7L127.4,519.4z M168.6,392.9l-27.7,27.7l-26.9-26.9l28.3-28.3l26.3-26.3V392.9z
	 M169.2,394l27.5,27.5l-27.5,27.5l-27.5-27.5L169.2,394z M169.7,339l54.7,54.7l-27,27l-27.7-27.7V339z M1150.8,1374l-27.7-27.7v-54
	l54.6,54.6L1150.8,1374z M1150,1374.8l-27.5,27.5l-27.4-27.4l27.5-27.5L1150,1374.8z M1121.8,1403.2l-27,27l-27.7-27.7v-54
	l26.4,26.4l0,0l4.5,4.5L1121.8,1403.2z M1065.9,1402.5l-27.7,27.7l-26.9-26.9l28.3-28.3l26.3-26.3V1402.5z M1037.9,1487.1
	l-27.5,27.5l-27.4-27.4l27.5-27.5L1037.9,1487.1z M1009.6,1515.5l-27,27l-27.7-27.7v-54L1009.6,1515.5z M981.8,1543.3l-27.5,27.5
	l-27.5-27.5l27.5-27.5L981.8,1543.3z M897.7,1571.1l-27.7,27.7l-27-27l54.7-54.7V1571.1z M897.5,1628l-27,27l-27.7-27.7v-54
	l10.5,10.5l15.9,15.9l0,0l6.2,6.2L897.5,1628z M841.6,1627.3l-27.7,27.7l-26.9-26.9l28.3-28.3l26.3-26.3V1627.3z M813.5,1711.9
	l-27.5,27.5l-27.4-27.4l27.5-27.5L813.5,1711.9z M785.3,1740.3l-27,27l-27.7-27.7v-54L757,1712l0,0l0.5,0.5L785.3,1740.3z
	 M757.5,1768.1l-27.5,27.5l-27.5-27.5l27.5-27.5L757.5,1768.1z M701.4,1824.3l-27.5,27.5l-27.4-27.4l27.5-27.5L701.4,1824.3z
	 M673.1,1852.7l-27,27l-27.7-27.7v-54L673.1,1852.7z M617.2,1851.9l-27.7,27.7l-26.9-26.9l28.3-28.3l26.3-26.3V1851.9z
	 M589.2,1936.6l-27.5,27.5l-27.4-27.4l27.5-27.5L589.2,1936.6z M560.9,1965l-27,27l-27.7-27.7v-54l10.5,10.5l15.9,15.9l0,0l6.2,6.2
	L560.9,1965z M505.1,1964.2l-27.7,27.7l-26.9-26.9l28.3-28.3l26.3-26.3V1964.2z M477.8,2048.4l-27.7-27.7v-54l54.6,54.6
	L477.8,2048.4z M477,2049.2l-27.5,27.5l-27.4-27.4l27.5-27.5L477,2049.2z M448.7,2077.6l-27,27l-27.7-27.7v-54l10.5,10.5l15.9,15.9
	l0,0l6.2,6.2L448.7,2077.6z M392.8,2076.9l-27.7,27.7l-26.9-26.9l28.3-28.3l26.3-26.3V2076.9z M364.8,2161.6l-27.5,27.5l-27.4-27.4
	l27.5-27.5L364.8,2161.6z M336.6,2190l-27,27l-27.7-27.7v-54l26.4,26.4l0,0l0.7,0.7L336.6,2190z M280.7,2189.3L253,2217l-26.9-26.9
	l28.3-28.3l26.3-26.3V2189.3z M252.6,2273.9l-27.5,27.5l-27.4-27.4l27.5-27.5L252.6,2273.9z M224.4,2302.3l-27,27l-27.7-27.7v-54
	l26.4,26.4l0,0l0.3,0.3L224.4,2302.3z M169.1,2245.4l-27.5-27.5l27.5-27.5l27.5,27.5L169.1,2245.4z M169.1,2133.2l-27.5-27.5
	l27.5-27.5l27.5,27.5L169.1,2133.2z M169.1,2020.9l-27.5-27.5l27.5-27.5l27.5,27.5L169.1,2020.9z M169.7,1910.9l54.7,54.7l-27,27
	l-27.7-27.7V1910.9z M169.1,1908.6l-27.5-27.5l27.5-27.5l27.5,27.5L169.1,1908.6z M197.4,1768.1l-27.7-27.7v-54l54.7,54.7
	L197.4,1768.1z M113.9,1628.6l28.3-28.3l26.3-26.3v53.8l-27.7,27.7L113.9,1628.6z M141.4,1599.4l-27.7-27.7v-54l26.3,26.3l0,0
	l4.5,4.5l23.8,23.8L141.4,1599.4z M140.9,1206.5l-26.9-26.9l28.3-28.3l26.3-26.3v53.8L140.9,1206.5z M140.9,1094.2l-26.9-26.9
	l28.3-28.3l26.3-26.3v53.8L140.9,1094.2z M140.9,982l-26.9-26.9l28.3-28.3l26.3-26.3v53.8L140.9,982z M140.9,869.8l-26.9-26.9
	l28.3-28.3l26.3-26.3V842L140.9,869.8z M141.7,758.2l27.5-27.5l27.5,27.5l-27.5,27.5L141.7,758.2z M127.4,631.6l-13.4-13.4
	l28.3-28.3l26.3-26.3v53.8l-27.7,27.7L127.4,631.6z M141.4,589l-27.7-27.7v-54l26.3,26.3l0,0l4.5,4.5l23.8,23.8L141.4,589z
	 M141.4,476.8l-27.7-27.7v-54l26.3,26.3l0,0l4.5,4.5l23.8,23.8L141.4,476.8z M224.7,336.7L197,364.4l-27-27l54.7-54.7V336.7z
	 M337.4,449.9l27.4,27.4l-27.5,27.5L310,477.4L337.4,449.9z M561.2,673.2l-27.7,27.7l-27-27l13.7-13.7l41-41V673.2z M561.8,674.3
	l27.4,27.4l-27.5,27.5l-27.4-27.4L561.8,674.3z M673.3,785.4l-27.7,27.7l-27-27l54.7-54.7V785.4z M673.9,786.4l27.4,27.4l-27.5,27.5
	l-27.4-27.4L673.9,786.4z M785.5,897.5l-27.7,27.7l-27-27l54.7-54.7V897.5z M786.1,898.6l27.4,27.4L786,953.5l-27.4-27.4
	L786.1,898.6z M841.6,899.8v53.8l-27.7,27.7l-26.9-26.9l28.3-28.3L841.6,899.8z M897.7,1009.7l-27.7,27.7l-27-27l54.7-54.7V1009.7z
	 M898.3,1010.8l27.4,27.4l-27.5,27.5l-27.4-27.4L898.3,1010.8z M1122.6,1235.1l27.4,27.4l-27.5,27.5l-27.4-27.4L1122.6,1235.1z
	 M1178.1,1402.4l-27.7,27.7l-26.9-26.9l28.3-28.3l26.3-26.3V1402.4z M1080.2,1444.8l-13.7,13.7L1039,1431l27.5-27.5l27.5,27.5
	L1080.2,1444.8z M925.7,1599.6l-27.5,27.5l-27.4-27.4l27.5-27.5L925.7,1599.6z M842.2,1683.3l-27.5-27.5l27.5-27.5l27.5,27.5
	L842.2,1683.3z M617.8,1908l-27.5-27.5l27.5-27.5l27.5,27.5L617.8,1908z M617.2,1964.2l-27.7,27.7l-26.9-26.9l28.3-28.3l26.3-26.3
	V1964.2z M505.6,2020.3l-27.5-27.5l27.5-27.5l27.5,27.5L505.6,2020.3z M393.4,2132.9l-27.5-27.5l27.5-27.5l27.5,27.5L393.4,2132.9z
	 M295,2231.6l-13.7,13.7l-27.5-27.5l27.5-27.5l27.5,27.5L295,2231.6z M141.6,2330.1l27.5-27.5l27.5,27.5l-27.5,27.5L141.6,2330.1z
	 M140.8,2217.1l-26.9-26.9l28.3-28.3l26.3-26.3v53.8L140.8,2217.1z M140.8,2104.8l-26.9-26.9l28.3-28.3l26.3-26.3v53.8L140.8,2104.8
	z M127.3,1979.1l-13.4-13.4l28.3-28.3l26.3-26.3v53.8l-27.7,27.7L127.3,1979.1z M140.8,1880.3l-26.9-26.9l28.3-28.3l26.3-26.3v53.8
	L140.8,1880.3z M169.1,1796.4l-27.5-27.5l27.5-27.5l27.5,27.5L169.1,1796.4z M140.8,1768.1l-26.9-26.9l28.3-28.3l26.3-26.3v53.8
	L140.8,1768.1z M141.3,1711.9l-27.7-27.7v-54l54.6,54.6L141.3,1711.9z M113.7,1405.5l2.8,2.8l23.5,23.5l0,0l4.5,4.5l23.8,23.8
	l-27,27l-27.7-27.7V1405.5z M113.7,1293.3l2.8,2.8l23.5,23.5l0,0l4.5,4.5l23.8,23.8l-27,27l-27.7-27.7V1293.3z M113.7,1181
	l54.6,54.6l-27,27l-27.7-27.7V1181z M141.4,1150.3l-27.7-27.7v-54l26.3,26.3l0,0l4.5,4.5l23.8,23.8L141.4,1150.3z M141.4,1038.1
	l-27.7-27.7v-54l26.3,26.3l0,0l4.5,4.5l23.8,23.8L141.4,1038.1z M141.4,925.9l-27.7-27.7v-54l26.3,26.3l0,0l4.5,4.5l23.8,23.8
	L141.4,925.9z M141.4,813.6L113.7,786v-54l54.6,54.6L141.4,813.6z M113.9,730.4l28.3-28.3l26.3-26.3v53.8l-27.7,27.7L113.9,730.4z
	 M141.4,701.2l-27.7-27.7v-54l26.3,26.3l0,0l4.5,4.5l23.8,23.8L141.4,701.2z M113,617.3l-27.4-27.4l27.5-27.5l27.4,27.4L113,617.3z
	 M113,505.1l-27.4-27.4l27.5-27.5l27.4,27.4L113,505.1z M113,392.8l-27.4-27.4l27.5-27.5l27.4,27.4L113,392.8z M113.7,282.9
	l54.6,54.6l-27,27l-27.7-27.7V282.9z M168.6,226.8v53.8l-27.7,27.7l-26.9-26.9l28.3-28.3L168.6,226.8z M169.2,281.7l27.5,27.5
	l-27.5,27.5l-27.5-27.5L169.2,281.7z M169.7,226.6l54.7,54.7l-27,27l-27.7-27.7V226.6z M225.3,337.8l27.4,27.4l-27.5,27.5
	l-27.4-27.4L225.3,337.8z M225.9,282.7l54.6,54.6l-27,27l-27.7-27.7V282.7z M280.7,338.9v53.8L253,420.5l-26.9-26.9l28.3-28.3
	L280.7,338.9z M392.9,451.1v53.8l-27.7,27.7l-26.9-26.9l28.3-28.3L392.9,451.1z M393.5,506l27.5,27.5L393.5,561L366,533.5L393.5,506
	z M394.1,451l54.7,54.7l-27,27l-27.7-27.7V451z M449,561l-27.7,27.7l-27-27l54.7-54.7V561z M449.6,562.1l27.4,27.4L449.5,617
	l-27.4-27.4L449.6,562.1z M505.1,563.3v53.8l-27.7,27.7l-26.9-26.9l28.3-28.3L505.1,563.3z M532.6,589.5l4.5,4.5l23.8,23.8l-27,27
	l-27.7-27.7v-54L532.6,589.5L532.6,589.5z M617.2,675.4v53.8L589.5,757l-26.9-26.9l28.3-28.3L617.2,675.4z M617.8,730.3l27.5,27.5
	l-27.5,27.5l-27.5-27.5L617.8,730.3z M618.4,675.3l54.7,54.7l-27,27l-27.7-27.7V675.3z M729.4,787.6v53.9l-27.7,27.7l-26.9-26.9
	l28.3-28.3L729.4,787.6z M730,842.5l27.5,27.5L730,897.5L702.5,870L730,842.5z M730.6,787.5l54.7,54.7l-27,27l-27.7-27.7V787.5z
	 M786.7,843.6l54.6,54.6l-27,27l-27.7-27.7V843.6z M953.7,1011.9v53.8l-27.7,27.7l-26.9-26.9l28.3-28.3L953.7,1011.9z M954.3,1066.8
	l27.5,27.5l-27.5,27.5l-27.5-27.5L954.3,1066.8z M1009.9,1121.9l-27.7,27.7l-27-27l54.7-54.7V1121.9z M1010.4,1122.9l27.4,27.4
	l-27.5,27.5l-27.4-27.4L1010.4,1122.9z M1065.9,1124.1v53.8l-27.7,27.7l-26.9-26.9l28.3-28.3L1065.9,1124.1z M1178.1,1236.3v53.8
	l-27.7,27.7l-26.9-26.9l28.3-28.3L1178.1,1236.3z M1178.6,1291.1l27.5,27.5l-27.5,27.5l-27.5-27.5L1178.6,1291.1z M1179.2,1236.1
	l54.7,54.7l-27,27l-27.7-27.7V1236.1z M1234.2,1346.2l-27.7,27.7l-27-27l54.7-54.7V1346.2z M1233.9,1403.1l-27,27l-27.7-27.7v-54
	L1233.9,1403.1z M1206.1,1430.9l-27.5,27.5l-27.5-27.5l27.5-27.5L1206.1,1430.9z M1122,1458.6l-27.7,27.7l-27-27l10.9-10.9
	l43.9-43.9V1458.6z M1121.8,1515.4l-27,27l-27.7-27.7v-54l26.4,26.4l0,0l4.5,4.5L1121.8,1515.4z M1065.9,1514.7l-27.7,27.7
	l-26.9-26.9l28.3-28.3l26.3-26.3V1514.7z M1009.9,1570.9l-27.7,27.7l-27-27l54.7-54.7V1570.9z M1009.6,1627.9l-27,27l-27.7-27.7v-54
	L1009.6,1627.9z M981.8,1655.7l-27.5,27.5l-27.5-27.5l27.5-27.5L981.8,1655.7z M926,1654.9l-26.9-26.9l28.3-28.3l26.3-26.3v53.8
	L926,1654.9z M897.7,1683.4l-27.7,27.7l-27-27l54.7-54.7V1683.4z M897.5,1740.2l-27,27l-27.7-27.7v-54l10.5,10.5l15.9,15.9l0,0
	l6.2,6.2L897.5,1740.2z M841.6,1739.5l-27.7,27.7l-26.9-26.9l28.3-28.3l26.3-26.3V1739.5z M785.5,1795.7l-27.7,27.7l-27-27
	l54.7-54.7V1795.7z M729.4,1851.9l-27.7,27.7l-26.9-26.9l28.3-28.3l26.3-26.3V1851.9z M673.3,1908.1l-27.7,27.7l-27-27l54.7-54.7
	V1908.1z M673.1,1964.9l-27,27l-27.7-27.7v-54L673.1,1964.9z M645.3,1992.7l-27.5,27.5l-27.5-27.5l27.5-27.5L645.3,1992.7z
	 M561.2,2020.4l-27.7,27.7l-27-27l54.7-54.7V2020.4z M505,2076.8l-27.7,27.7l-26.9-26.9l28.3-28.3L505,2023V2076.8z M449,2133
	l-27.7,27.7l-27-27L449,2079V2133z M392.8,2189.2l-27.7,27.7l-26.9-26.9l28.3-28.3l26.3-26.3V2189.2z M336.8,2245.4l-27.7,27.7
	l-27-27l10.9-10.9l43.9-43.9V2245.4z M336.6,2302.3l-27,27l-27.7-27.7v-54l26.4,26.4l0,0l0.5,0.5L336.6,2302.3z M280.7,2301.5
	l-27.7,27.7l-26.9-26.9l28.3-28.3l26.3-26.3V2301.5z M224.6,2357.7l-27.7,27.7l-27-27l54.7-54.7V2357.7z M168.5,2414l-27.7,27.7
	l-26.9-26.9l28.3-28.3l26.3-26.3V2414z M141.3,2385.6l-27.7-27.7v-54l54.6,54.6L141.3,2385.6z M113.9,2302.4l28.3-28.3l26.3-26.3
	v53.8l-27.7,27.7L113.9,2302.4z M141.3,2273.2l-27.7-27.7v-54l26.3,26.3l0,0l0.5,0.5l27.8,27.8L141.3,2273.2z M141.3,2161
	l-27.7-27.7v-54l26.3,26.3l0,0l0.5,0.5l27.8,27.8L141.3,2161z M141.3,2048.7l-27.7-27.7v-54l54.6,54.6L141.3,2048.7z M141.3,1936.5
	l-27.7-27.7v-54l54.6,54.6L141.3,1936.5z M141.3,1824.2l-27.7-27.7v-54l26.3,26.3l0,0l0.4,0.4l28,28L141.3,1824.2z M113,1740.2
	l-27.4-27.4l27.5-27.5l27.4,27.4L113,1740.2z M113,1178.7l-27.4-27.4l27.5-27.5l27.4,27.4L113,1178.7z M84.8,1150.4l-27-27
	l54.7-54.7v54L84.8,1150.4z M113,1066.4L85.6,1039l27.5-27.5l27.4,27.4L113,1066.4z M84.8,1038.2l-27-27l54.7-54.7v54L84.8,1038.2z
	 M113,954.2l-27.4-27.4l27.5-27.5l27.4,27.4L113,954.2z M84.8,925.9l-27-27l54.7-54.7v54L84.8,925.9z M113,842l-27.4-27.4l27.5-27.5
	l27.4,27.4L113,842z M84.8,813.7l-27-27l54.7-54.7v54L84.8,813.7z M113,729.5l-27.4-27.4l27.5-27.5l27.4,27.4L113,729.5z
	 M84.8,701.3l-27-27l54.7-54.7v54L84.8,701.3z M57.8,562.1l54.7-54.7v54l-27.7,27.7L57.8,562.1z M57.8,449.8l54.7-54.7v54
	l-27.7,27.7L57.8,449.8z M57.8,337.6l54.7-54.7v54l-27.7,27.7L57.8,337.6z M140,196.9l7.4,7.4l20.9,20.9l-27,27l-27.7-27.7v-54
	L140,196.9L140,196.9z M450.2,507.1l54.6,54.6l-27,27L450.2,561V507.1z M1011,1067.9l54.6,54.6l-27,27l-27.7-27.7V1067.9z
	 M1067.1,1124l54.7,54.7l-27,27l-27.7-27.7V1124z M1261.7,1318.6l9.9,9.9l18.4,18.4l-27,27l-27.7-27.7v-54L1261.7,1318.6
	L1261.7,1318.6z M1234.7,1402.2l-27.4-27.4l27.5-27.5l27.4,27.4L1234.7,1402.2z M1150,1487.1l-27.5,27.5l-27.4-27.4l27.5-27.5
	L1150,1487.1z M1080.2,1557l-13.7,13.7l-27.5-27.5l27.5-27.5l27.5,27.5L1080.2,1557z M1038.7,1598.5l-27.7-27.7v-54l54.6,54.6
	L1038.7,1598.5z M1037.9,1599.4l-27.5,27.5l-27.4-27.4l27.5-27.5L1037.9,1599.4z M925.7,1711.9l-27.5,27.5l-27.4-27.4l27.5-27.5
	L925.7,1711.9z M842.4,1795.3l-0.3,0.3l-27.5-27.5l27.5-27.5l27.5,27.5L842.4,1795.3z M786,1851.6l-27.4-27.4l27.5-27.5l27.4,27.4
	L786,1851.6z M730,1907.9l-27.5-27.5L730,1853l27.5,27.5L730,1907.9z M701.4,1936.6l-27.5,27.5l-27.4-27.4l27.5-27.5L701.4,1936.6z
	 M590,2048l-27.7-27.7v-54l8.7,8.7l17.6,17.6l0,0l0.7,0.7L617,2021L590,2048z M589.2,2048.8l-27.5,27.5l-27.4-27.4l27.5-27.5
	L589.2,2048.8z M505.6,2132.9l-27.5-27.5l27.5-27.5l27.5,27.5L505.6,2132.9z M449.5,2189l-27.4-27.4l27.5-27.5l27.4,27.4L449.5,2189
	z M393.4,2245.2l-27.5-27.5l27.5-27.5l27.5,27.5L393.4,2245.2z M364.8,2273.9l-27.5,27.5l-27.4-27.4l27.5-27.5L364.8,2273.9z
	 M295,2343.8l-13.7,13.7l-27.5-27.5l27.5-27.5l27.5,27.5L295,2343.8z M253.5,2385.4l-27.7-27.7v-54L244,2322l8.1,8.1h0l4.5,4.5
	l23.8,23.8L253.5,2385.4z M252.6,2386.2l-27.5,27.5l-27.4-27.4l27.5-27.5L252.6,2386.2z M169.1,2470l-27.5-27.5l27.5-27.5l27.5,27.5
	L169.1,2470z M140.5,2498.7l-27.5,27.5l-27.4-27.4l27.5-27.5L140.5,2498.7z M113,2413.9l-27.4-27.4l27.5-27.5l27.4,27.4L113,2413.9z
	 M113,2301.5l-27.4-27.4l27.5-27.5l27.4,27.4L113,2301.5z M85.6,2161.9l27.5-27.5l27.4,27.4l-27.5,27.5L85.6,2161.9z M113,2077
	l-27.4-27.4l27.5-27.5l27.4,27.4L113,2077z M113,1964.8l-27.4-27.4l27.5-27.5l27.4,27.4L113,1964.8z M113,1852.5l-27.4-27.4
	l27.5-27.5l27.4,27.4L113,1852.5z M68.6,1674.2l43.9-43.9v54L84.7,1712l-27-27L68.6,1674.2z M85.3,1655.9l-27.7-27.7v-54l54.7,54.7
	L85.3,1655.9z M85.3,1543.3l-27.7-27.7v-54L84,1488l0,0l0.3,0.3l28,28L85.3,1543.3z M85.3,1431.1l-27.7-27.7v-54l26.4,26.4l0,0
	l0.3,0.3l28,28L85.3,1431.1z M85.3,1318.8l-27.7-27.7v-54l26.4,26.4l0,0l0.3,0.3l28,28L85.3,1318.8z M85.3,1206.6l-27.7-27.7v-54
	l54.7,54.7L85.3,1206.6z M85.3,1094.3l-27.7-27.7v-54L84,1039l0,0l0.3,0.3l28,28L85.3,1094.3z M85.3,982.1l-27.7-27.7v-54L84,926.8
	l0,0l0.3,0.3l28,28L85.3,982.1z M85.3,869.8l-27.7-27.7v-54L84,814.5l0,0l0.3,0.3l28,28L85.3,869.8z M85.3,757.6l-27.7-27.7v-54
	l54.7,54.7L85.3,757.6z M85.3,645.2l-27.7-27.7v-54L84,589.9l0,0l4.5,4.5l23.8,23.8L85.3,645.2z M85.3,532.9l-27.7-27.7v-54
	L84,477.7l0,0l4.5,4.5l23.8,23.8L85.3,532.9z M85.3,420.7L57.6,393v-54L84,365.4l0,0l4.5,4.5l23.8,23.8L85.3,420.7z M85.3,308.5
	l-27.7-27.7v-54l54.7,54.7L85.3,308.5z M85.3,196.2l-27.7-27.7v-54L84,140.9l0,0l4.5,4.5l23.8,23.8L85.3,196.2z M113.1,113.4
	l27.4,27.4L113,168.3l-27.4-27.4L113.1,113.4z M225.3,225.5l27.4,27.4l-27.5,27.5L197.8,253L225.3,225.5z M337.4,337.7l27.4,27.4
	l-27.5,27.5L310,365.2L337.4,337.7z M392.9,338.9v53.8l-27.7,27.7l-26.9-26.9l28.3-28.3L392.9,338.9z M393.5,393.8l27.5,27.5
	l-27.5,27.5L366,421.2L393.5,393.8z M449.6,449.9l27.4,27.4l-27.5,27.5l-27.4-27.4L449.6,449.9z M520.2,548l41-41v54l-27.7,27.7
	l-27-27L520.2,548z M561.8,562l27.4,27.4l-27.5,27.5l-27.4-27.4L561.8,562z M617.2,563.2V617l-27.7,27.7l-26.9-26.9l28.3-28.3
	L617.2,563.2z M617.8,618.1l27.5,27.5L617.8,673l-27.5-27.5L617.8,618.1z M673.9,674.2l27.4,27.4l-27.5,27.5l-27.4-27.4L673.9,674.2
	z M729.4,675.3v53.9l-27.7,27.7L674.8,730l28.3-28.3L729.4,675.3z M730,730.3l27.5,27.5L730,785.2l-27.5-27.5L730,730.3z
	 M786.1,786.4l27.4,27.4L786,841.3l-27.4-27.4L786.1,786.4z M841.6,787.5v53.8l-27.7,27.7l-26.9-26.9l28.3-28.3L841.6,787.5z
	 M898.3,898.5l27.4,27.4l-27.5,27.5L870.8,926L898.3,898.5z M953.7,899.7v53.8L926,981.2l-26.9-26.9l28.3-28.3L953.7,899.7z
	 M954.3,954.6l27.5,27.5l-27.5,27.5l-27.5-27.5L954.3,954.6z M1010.4,1010.7l27.4,27.4l-27.5,27.5l-27.4-27.4L1010.4,1010.7z
	 M1081.1,1108.8l41-41v54l-27.7,27.7l-13.6-13.6l-13.4-13.4L1081.1,1108.8z M1122.6,1122.9l27.4,27.4l-27.5,27.5l-27.4-27.4
	L1122.6,1122.9z M1178.1,1124v53.8l-27.7,27.7l-26.9-26.9l28.3-28.3L1178.1,1124z M1178.6,1178.9l27.5,27.5l-27.5,27.5l-27.5-27.5
	L1178.6,1178.9z M1234.8,1235l27.4,27.4l-27.5,27.5l-27.4-27.4L1234.8,1235z M1290.2,1402.2l-27.7,27.7l-26.9-26.9l28.3-28.3
	l26.3-26.3V1402.2z M1234.2,1458.5l-27.7,27.7l-27-27l54.7-54.7V1458.5z M1178.1,1514.6l-27.7,27.7l-26.9-26.9l28.3-28.3l26.3-26.3
	V1514.6z M1122,1570.8l-27.7,27.7l-27-27l13.7-13.7l41-41V1570.8z M1065.9,1626.9l-27.7,27.7l-26.9-26.9l28.3-28.3l26.3-26.3V1626.9
	z M1009.9,1683.3l-27.7,27.7l-27-27l54.7-54.7V1683.3z M897.7,1795.6l-27.7,27.7l-27-27l54.7-54.7V1795.6z M841.6,1851.7l-27.7,27.7
	l-26.9-26.9l28.3-28.3l26.3-26.3V1851.7z M785.5,1908l-27.7,27.7l-27-27l54.7-54.7V1908z M729.4,1964.1l-27.7,27.7l-26.9-26.9
	l28.3-28.3l26.3-26.3V1964.1z M673.3,2020.3l-27.7,27.7l-27-27l54.7-54.7V2020.3z M617.2,2076.4l-27.7,27.7l-26.9-26.9l28.3-28.3
	l26.3-26.3V2076.4z M561.1,2132.9l-27.7,27.7l-27-27l54.7-54.7V2132.9z M505,2189l-27.7,27.7l-26.9-26.9l28.3-28.3l26.3-26.3V2189z
	 M449,2245.3l-27.7,27.7l-27-27l54.7-54.7V2245.3z M392.8,2301.4l-27.7,27.7l-26.9-26.9l28.3-28.3l26.3-26.3V2301.4z M336.8,2357.6
	l-27.7,27.7l-27-27l10.9-10.9l43.9-43.9V2357.6z M280.7,2413.7l-27.7,27.7l-26.9-26.9l28.3-28.3l26.3-26.3V2413.7z M224.6,2470.1
	l-27.7,27.7l-27-27l54.7-54.7V2470.1z M168.5,2526.2l-27.7,27.7l-26.9-26.9l28.3-28.3l26.3-26.3V2526.2z M75.9,2489.1l-18.2-18.2
	l54.7-54.7v54l-27.7,27.7L75.9,2489.1z M75.9,2376.9l-18.2-18.2l54.7-54.7v54l-27.7,27.7L75.9,2376.9z M85.3,2329.6l-27.7-27.7v-54
	l54.7,54.7L85.3,2329.6z M68.6,2235.4l43.9-43.9v54l-27.7,27.7l-27-27L68.6,2235.4z M85.3,2217.1l-27.7-27.7v-54l26.4,26.4l0,0
	l6.2,6.2l22.1,22.1L85.3,2217.1z M68.6,2123.2l43.9-43.9v54L84.7,2161l-27-27L68.6,2123.2z M75.9,2040l-18.2-18.2l54.7-54.7v54
	l-27.7,27.7L75.9,2040z M75.9,1927.7l-18.2-18.2l54.7-54.7v54l-27.7,27.7L75.9,1927.7z M85.3,1880.4l-27.7-27.7v-54l54.7,54.7
	L85.3,1880.4z M68.6,1786.4l43.9-43.9v54l-27.7,27.7l-27-27L68.6,1786.4z M85.3,1768.1l-27.7-27.7v-54l26.4,26.4l0,0l4.5,4.5
	l23.8,23.8L85.3,1768.1z M29.5,1656.7l27.5-27.5l27.5,27.5l-13.7,13.7l-13.7,13.7L29.5,1656.7z M1.7,1628.9l54.7-54.7v54l-27.7,27.7
	L1.7,1628.9z M29.5,1544.1l27.5-27.5l27.5,27.5L57,1571.6L29.5,1544.1z M1.7,1516.3l54.7-54.7v54l-27.7,27.7L1.7,1516.3z
	 M29.5,1431.9l27.5-27.5l27.5,27.5L57,1459.4L29.5,1431.9z M1.7,1404.1l54.7-54.7v54l-27.7,27.7L1.7,1404.1z M29.5,1319.7l27.5-27.5
	l27.5,27.5L57,1347.2L29.5,1319.7z M1.7,1291.9l54.7-54.7v54l-27.7,27.7L1.7,1291.9z M29.5,1207.4L57,1180l27.5,27.5L57,1234.9
	L29.5,1207.4z M1.7,1179.6l54.7-54.7v54l-27.7,27.7L1.7,1179.6z M29.5,1095.1l27.5-27.5l27.5,27.5L57,1122.6L29.5,1095.1z
	 M1.7,1067.3l54.7-54.7v54l-27.7,27.7L1.7,1067.3z M29.5,982.9L57,955.4l27.5,27.5L57,1010.4L29.5,982.9z M1.7,955.1l54.7-54.7v54
	l-27.7,27.7L1.7,955.1z M29.5,870.7L57,843.2l27.5,27.5L57,898.1L29.5,870.7z M1.7,842.8l54.7-54.7v54l-27.7,27.7L1.7,842.8z
	 M29.5,758.4L57,730.9l27.5,27.5L57,785.9L29.5,758.4z M1.7,730.6l54.7-54.7v54l-27.7,27.7L1.7,730.6z M29.5,646L57,618.5L84.5,646
	L57,673.5L29.5,646z M1.7,618.2l54.7-54.7v54l-27.7,27.7L1.7,618.2z M29.5,533.8L57,506.3l27.5,27.5L57,561.3L29.5,533.8z M1.7,506
	l54.7-54.7v54l-27.7,27.7L1.7,506z M29.5,421.5L57,394.1l27.5,27.5L57,449L29.5,421.5z M1.7,393.7L56.4,339v54l-27.7,27.7L1.7,393.7
	z M29.5,309.3L57,281.8l27.5,27.5L57,336.8L29.5,309.3z M1.7,281.5l54.7-54.7v54l-27.7,27.7L1.7,281.5z M29.5,197L57,169.5L84.5,197
	L57,224.5L29.5,197z M1.7,169.2l54.7-54.7v54l-27.7,27.7L1.7,169.2z M56.4,56.2L28.7,83.9l-27-27L56.4,2.2V56.2z M112.3,56.9l-27,27
	L57.6,56.2v-54L112.3,56.9z M57,112.2L29.5,84.7L57,57.3l27.5,27.5L57,112.2z M168.3,113l-27,27l-27.7-27.7v-54L168.3,113z
	 M224.5,169.1l-27,27l-27.7-27.7v-54L224.5,169.1z M169.2,224.4l-27.5-27.5l27.5-27.5l27.5,27.5L169.2,224.4z M280.5,225.2l-27,27
	l-27.7-27.7v-54L280.5,225.2z M336.6,281.3l-27,27l-27.7-27.7v-54L336.6,281.3z M292.2,325.6l-10.9,10.9l-27.5-27.5l27.5-27.5
	l27.5,27.5L292.2,325.6z M392.7,337.3l-27,27L338,336.6v-54L392.7,337.3z M448.8,393.4l-27,27l-27.7-27.7v-54L448.8,393.4z
	 M504.8,449.5l-27,27l-27.7-27.7v-54L504.8,449.5z M560.9,505.6l-27,27l-27.7-27.7v-54L560.9,505.6z M519.4,547.1l-13.7,13.7
	l-27.5-27.5l27.5-27.5l27.5,27.5L519.4,547.1z M617,561.6l-27,27L562.4,561v-54L617,561.6z M673.1,617.8l-27,27L618.4,617v-54
	L673.1,617.8z M729.2,673.8l-27,27l-27.7-27.7v-54L729.2,673.8z M785.3,729.9l-27,27l-27.7-27.7v-54L785.3,729.9z M841.3,786l-27,27
	l-27.7-27.7v-54L841.3,786z M870.5,869.1l-27.7-27.7v-54l54.7,54.7L870.5,869.1z M953.5,898.1l-27,27l-27.7-27.7v-54L953.5,898.1z
	 M1009.6,954.3l-27,27l-27.7-27.7v-54L1009.6,954.3z M1065.7,1010.3l-27,27l-27.7-27.7v-54L1065.7,1010.3z M1121.8,1066.4l-27,27
	l-27.7-27.7v-54L1121.8,1066.4z M1066.5,1121.7l-27.5-27.5l27.5-27.5l27.5,27.5L1066.5,1121.7z M1177.8,1122.5l-27,27l-27.7-27.7
	v-54L1177.8,1122.5z M1233.9,1178.6l-27,27l-27.7-27.7v-54L1233.9,1178.6z M1290,1234.6l-27,27l-27.7-27.7v-54L1290,1234.6z
	 M1346.1,1290.8l-27,27l-27.7-27.7v-54L1346.1,1290.8z M1290.8,1346l-27.5-27.5l27.5-27.5l27.5,27.5L1290.8,1346z M1375.2,1373.8
	l-27.7-27.7v-54l54.7,54.7L1375.2,1373.8z M1374.4,1374.7l-27.5,27.5l-27.5-27.5l27.5-27.5L1374.4,1374.7z M1319.1,1430l-27.7-27.7
	v-54l26.4,26.4l0,0l0.5,0.5l27.8,27.8L1319.1,1430z M1318.3,1430.8l-27.5,27.5l-27.5-27.5l27.5-27.5L1318.3,1430.8z M1263.1,1486.2
	l-27.7-27.7v-54l54.7,54.7L1263.1,1486.2z M1262.2,1487.1l-27.5,27.5l-27.5-27.5l27.5-27.5L1262.2,1487.1z M1207,1542.4l-27.7-27.7
	v-54l54.7,54.7L1207,1542.4z M1206.1,1543.2l-27.5,27.5l-27.5-27.5l27.5-27.5L1206.1,1543.2z M1150.9,1598.5l-27.7-27.7v-54
	l26.3,26.3l0,0l4.5,4.5l23.9,23.9L1150.9,1598.5z M1150.1,1599.4l-27.5,27.5l-27.5-27.5l27.5-27.5L1150.1,1599.4z M1094.8,1654.7
	l-27.7-27.7v-54l26.4,26.4l0,0l4.5,4.5l23.8,23.8L1094.8,1654.7z M1094,1655.5l-27.5,27.5l-27.5-27.5l27.5-27.5L1094,1655.5z
	 M1038.8,1711l-27.7-27.7v-54l54.7,54.7L1038.8,1711z M1037.9,1711.9l-27.5,27.5l-27.5-27.5l27.5-27.5L1037.9,1711.9z M982.6,1767.2
	l-27.7-27.7v-54l1.4,1.4l53.3,53.3L982.6,1767.2z M981.8,1768l-27.5,27.5l-27.5-27.5l27.5-27.5L981.8,1768z M907.9,1749l-8.8-8.8
	l28.3-28.3l26.3-26.3v53.8l-27.7,27.7L907.9,1749z M926.6,1823.3l-27.7-27.7v-54l8.7,8.7l17.6,17.6l0,0l0.7,0.7l27.7,27.7
	L926.6,1823.3z M925.8,1824.2l-27.5,27.5l-27.5-27.5l27.5-27.5L925.8,1824.2z M870.5,1879.5l-27.7-27.7v-54l10.5,10.5l15.9,15.9l0,0
	l6.2,6.2l22.1,22.1L870.5,1879.5z M869.6,1880.3l-27.5,27.5l-27.5-27.5l27.5-27.5L869.6,1880.3z M814.4,1935.7l-27.7-27.7v-54
	l54.7,54.7L814.4,1935.7z M813.6,1936.6l-27.5,27.5l-27.5-27.5l27.5-27.5L813.6,1936.6z M758.3,1991.8l-27.7-27.7v-54l26.4,26.4l0,0
	l0.5,0.5l27.8,27.8L758.3,1991.8z M757.5,1992.7l-27.5,27.5l-27.5-27.5l27.5-27.5L757.5,1992.7z M702.2,2048l-27.7-27.7v-54
	l10.4,10.4l15.9,15.9l0,0l6.2,6.2l22.1,22.1L702.2,2048z M701.4,2048.8l-27.5,27.5l-27.5-27.5l27.5-27.5L701.4,2048.8z
	 M646.1,2104.1l-27.7-27.7v-54l54.7,54.7L646.1,2104.1z M645.3,2105l-27.5,27.5l-27.5-27.5l27.5-27.5L645.3,2105z M590,2160.7
	l-27.7-27.7v-54l54.7,54.7L590,2160.7z M589.2,2161.5l-27.5,27.5l-27.5-27.5l27.5-27.5L589.2,2161.5z M533.9,2216.8l-27.7-27.7v-54
	l1.4,1.4l25,25l0,0l0.5,0.5l27.8,27.8L533.9,2216.8z M533.1,2217.6l-27.5,27.5l-27.5-27.5l27.5-27.5L533.1,2217.6z M477.9,2273
	l-27.7-27.7v-54l54.7,54.7L477.9,2273z M477,2273.9l-27.5,27.5l-27.5-27.5l27.5-27.5L477,2273.9z M421.7,2329.2l-27.7-27.7v-54
	l26.4,26.4l0,0l0.5,0.5l27.8,27.8L421.7,2329.2z M420.9,2330l-27.5,27.5l-27.5-27.5l27.5-27.5L420.9,2330z M365.7,2385.4l-27.7-27.7
	v-54l26.3,26.3l0,0l0.4,0.4l28,28L365.7,2385.4z M364.9,2386.2l-27.5,27.5l-27.5-27.5l27.5-27.5L364.9,2386.2z M309.6,2441.5
	l-27.7-27.7v-54l26.4,26.4l0,0l0.5,0.5l27.8,27.8L309.6,2441.5z M308.8,2442.3l-27.5,27.5l-27.5-27.5l27.5-27.5L308.8,2442.3z
	 M253.5,2497.8l-27.7-27.7v-54l54.7,54.7L253.5,2497.8z M252.7,2498.7l-27.5,27.5l-27.5-27.5l27.5-27.5L252.7,2498.7z M197.4,2554
	l-27.7-27.7v-54l26.4,26.4l0,0l7.4,7.4l20.9,20.9L197.4,2554z M196.6,2554.8l-27.5,27.5l-27.5-27.5l27.5-27.5L196.6,2554.8z
	 M141.4,2610.1l-27.7-27.7v-54l26.3,26.3l0,0l0.5,0.5l27.9,27.9L141.4,2610.1z M140.5,2611l-27.5,27.5L85.6,2611l27.5-27.5
	L140.5,2611z M85.3,2666.3l-27.7-27.7v-54l26.4,26.4l0,0l6.2,6.2l22.1,22.1L85.3,2666.3z M29.5,2667.1l27.5-27.5l27.5,27.5
	l-27.5,27.5L29.5,2667.1z M1.7,2639.3l54.7-54.7v54l-27.7,27.7L1.7,2639.3z M29.5,2554.9l27.5-27.5l27.5,27.5l-13.7,13.7l-13.7,13.7
	L29.5,2554.9z M56.4,2472.3v54L28.6,2554l-27-27L56.4,2472.3z M29.5,2442.6l27.5-27.5l27.5,27.5l-27.5,27.5L29.5,2442.6z
	 M56.4,2360.1v54l-27.7,27.7l-27-27L56.4,2360.1z M29.5,2330.4l27.5-27.5l27.5,27.5l-27.5,27.5L29.5,2330.4z M1.7,2302.6l54.7-54.7
	v54l-27.7,27.7L1.7,2302.6z M29.5,2218l27.5-27.5l27.5,27.5l-13.7,13.7l-13.7,13.7L29.5,2218z M1.7,2190.2l54.7-54.7v54l-27.7,27.7
	L1.7,2190.2z M29.5,2105.7l27.5-27.5l27.5,27.5l-13.7,13.7l-13.7,13.7L29.5,2105.7z M56.4,2023.2v54l-27.7,27.7l-27-27L56.4,2023.2z
	 M57.5,2023.2l10.5,10.5l15.9,15.9l0,0l6.2,6.2l22.1,22.1l-27,27l-27.7-27.7V2023.2z M29.5,1993.5l27.5-27.5l27.5,27.5l-27.2,27.2
	l-0.3,0.3L29.5,1993.5z M56.4,1911v54l-27.7,27.7l-27-27L56.4,1911z M57.5,1911l10.5,10.5l15.9,15.9l0,0l6.2,6.2l22.1,22.1l-27,27
	L57.5,1965V1911z M29.5,1881.3l27.5-27.5l27.5,27.5l-27.2,27.2l-0.3,0.3L29.5,1881.3z M1.7,1853.5l54.7-54.7v54l-27.7,27.7
	L1.7,1853.5z M29.5,1769l27.5-27.5l27.5,27.5l-13.7,13.7l-13.7,13.7L29.5,1769z M28.6,1768.1l-27-27l54.7-54.7v54L28.6,1768.1z"/>
</svg>
