<?xml version="1.0" encoding="utf-8"?>
<!-- Generator: Adobe Illustrator 22.1.0, SVG Export Plug-In . SVG Version: 6.00 Build 0)  -->
<svg version="1.1" id="Layer_1" xmlns="http://www.w3.org/2000/svg" xmlns:xlink="http://www.w3.org/1999/xlink" x="0px" y="0px"
	 width="29.5px" height="50.6px" viewBox="0 0 29.5 50.6" style="enable-background:new 0 0 29.5 50.6;" xml:space="preserve">
<style type="text/css">
	.st0{fill:#C08D54;}
</style>
<g>
	<g>
		<circle class="st0" cx="14.7" cy="45.3" r="2.1"/>
		<path class="st0" d="M3.2,50.6h23.2c1.7,0,3.2-1.4,3.2-3.2V3.2c0-1.7-1.4-3.2-3.2-3.2H3.2C1.4,0,0,1.4,0,3.2v44.3
			C0,49.2,1.4,50.6,3.2,50.6z M2.1,3.2c0-0.6,0.5-1.1,1.1-1.1h23.2c0.6,0,1.1,0.5,1.1,1.1v5.3H2.1V3.2z M2.1,10.5h25.3v29.5H2.1
			V10.5z M2.1,42.2h25.3v5.3c0,0.6-0.5,1.1-1.1,1.1H3.2c-0.6,0-1.1-0.5-1.1-1.1V42.2z"/>
	</g>
</g>
</svg>
