<?xml version="1.0" encoding="utf-8"?>
<!-- Generator: Adobe Illustrator 22.1.0, SVG Export Plug-In . SVG Version: 6.00 Build 0)  -->
<svg version="1.1" id="Layer_1" xmlns="http://www.w3.org/2000/svg" xmlns:xlink="http://www.w3.org/1999/xlink" x="0px" y="0px"
	 width="182px" height="93.3px" viewBox="0 0 182 93.3" style="enable-background:new 0 0 182 93.3;" xml:space="preserve">
<g>
	<path d="M7.1,13.1v11.1c0,0.3,0,0.6,0.1,0.8c0.1,0.2,0.2,0.3,0.4,0.4c0.2,0.1,0.5,0.2,0.9,0.2c0.4,0.1,0.9,0.1,1.5,0.1v0.4H0v-0.4
		c0.6,0,1.1-0.1,1.5-0.1c0.4,0,0.7-0.1,0.9-0.2c0.2-0.1,0.3-0.2,0.4-0.4c0.1-0.2,0.1-0.5,0.1-0.8V2.4c0-0.3,0-0.6-0.1-0.8
		C2.7,1.4,2.6,1.2,2.4,1.1C2.2,1,1.9,0.9,1.5,0.9C1.1,0.8,0.6,0.8,0,0.7V0.4h10v0.4c-0.6,0-1.1,0.1-1.5,0.1C8.1,0.9,7.8,1,7.6,1.1
		C7.4,1.2,7.3,1.4,7.2,1.6C7.1,1.8,7.1,2,7.1,2.4v10.4h12V2.4c0-0.3,0-0.6-0.1-0.8c-0.1-0.2-0.2-0.3-0.4-0.4
		c-0.2-0.1-0.5-0.2-0.9-0.2c-0.4,0-0.9-0.1-1.5-0.1V0.4h10v0.4c-0.6,0-1.1,0.1-1.5,0.1c-0.4,0-0.7,0.1-0.9,0.2
		c-0.2,0.1-0.3,0.2-0.4,0.4c-0.1,0.2-0.1,0.5-0.1,0.8v21.9c0,0.3,0,0.6,0.1,0.8c0.1,0.2,0.2,0.3,0.4,0.4c0.2,0.1,0.5,0.2,0.9,0.2
		c0.4,0.1,0.9,0.1,1.5,0.1v0.4h-10v-0.4c0.6,0,1.1-0.1,1.5-0.1c0.4,0,0.7-0.1,0.9-0.2c0.2-0.1,0.3-0.2,0.4-0.4
		c0.1-0.2,0.1-0.5,0.1-0.8V13.1H7.1z"/>
	<path d="M37.1,25.7c-1.6-0.7-2.9-1.6-4.1-2.8c-1.2-1.2-2.1-2.6-2.8-4.2c-0.7-1.6-1-3.4-1-5.4c0-1.9,0.3-3.7,1-5.4
		c0.7-1.6,1.6-3,2.8-4.2c1.2-1.2,2.5-2.1,4.1-2.8c1.6-0.7,3.2-1,5-1c1.8,0,3.4,0.3,5,1c1.6,0.7,2.9,1.6,4.1,2.8
		C52.4,4.9,53.3,6.3,54,8c0.7,1.6,1,3.4,1,5.4c0,2-0.3,3.7-1,5.4c-0.7,1.6-1.6,3-2.8,4.2c-1.2,1.2-2.5,2.1-4.1,2.8
		c-1.6,0.7-3.2,1-5,1C40.3,26.7,38.7,26.3,37.1,25.7z M38.7,1.4c-1,0.7-1.9,1.6-2.6,2.7c-0.7,1.1-1.3,2.5-1.7,4.1s-0.6,3.3-0.6,5.2
		c0,1.9,0.2,3.6,0.6,5.2c0.4,1.6,1,2.9,1.7,4.1c0.7,1.1,1.6,2,2.6,2.7c1,0.7,2.2,1,3.4,1s2.4-0.3,3.4-1c1-0.7,1.9-1.6,2.6-2.7
		c0.7-1.1,1.3-2.5,1.7-4.1c0.4-1.6,0.6-3.3,0.6-5.2c0-1.9-0.2-3.6-0.6-5.2c-0.4-1.6-1-2.9-1.7-4.1c-0.7-1.1-1.6-2-2.6-2.7
		c-1-0.7-2.2-1-3.4-1S39.7,0.7,38.7,1.4z"/>
	<path d="M72.9,0.9c1.1,0.3,2,0.8,2.7,1.5s1.3,1.4,1.7,2.2c0.4,0.9,0.6,1.8,0.6,2.8c0,0.9-0.2,1.8-0.5,2.6c-0.3,0.9-0.9,1.6-1.7,2.3
		c-0.8,0.7-1.7,1.2-2.9,1.6c-1.2,0.4-2.7,0.7-4.4,0.7c1.1,0.2,2.1,0.5,2.9,0.8c0.8,0.3,1.4,0.7,1.9,1c0.5,0.4,0.9,0.7,1.2,1.1
		c0.3,0.4,0.6,0.7,0.8,1.1l2.8,4.6c0.6,0.9,1.2,1.6,1.8,2c0.6,0.4,1.2,0.6,1.8,0.7v0.4h-6.3c-0.4-0.5-0.9-1.2-1.3-1.9
		c-0.5-0.7-0.8-1.4-1.2-2l-2.1-3.9c-0.4-0.8-0.9-1.5-1.4-2.2c-0.5-0.7-1.1-1.3-1.7-1.6h-2.4v9.7c0,0.3,0,0.6,0.1,0.8
		c0.1,0.2,0.2,0.3,0.4,0.4c0.2,0.1,0.5,0.2,0.9,0.2c0.4,0.1,0.9,0.1,1.5,0.1v0.4H58v-0.4c0.6,0,1.1-0.1,1.5-0.1
		c0.4,0,0.7-0.1,0.9-0.2c0.2-0.1,0.3-0.2,0.4-0.4c0.1-0.2,0.1-0.5,0.1-0.8V2.4c0-0.3,0-0.6-0.1-0.8c-0.1-0.2-0.2-0.3-0.4-0.4
		c-0.2-0.1-0.5-0.2-0.9-0.2c-0.4,0-0.9-0.1-1.5-0.1V0.4h11.2C70.6,0.4,71.8,0.5,72.9,0.9z M65.1,14.3h2.3c1.2,0,2.2-0.2,2.9-0.5
		c0.8-0.4,1.4-0.8,1.9-1.4c0.5-0.6,0.8-1.3,1-2.1c0.2-0.8,0.3-1.6,0.3-2.5c0-0.8-0.1-1.6-0.2-2.4C73,4.4,72.7,3.6,72.3,3
		c-0.4-0.7-0.9-1.2-1.6-1.6c-0.7-0.4-1.5-0.6-2.5-0.6h-3.1V14.3z"/>
	<path d="M96.3,26.5h-2.5L86,3.3c-0.2-0.6-0.5-1.2-0.9-1.7C84.7,1.2,84,0.9,83,0.7V0.4h10.1v0.4c-1.3,0.1-2.1,0.5-2.4,0.9
		c-0.3,0.5-0.3,1.2,0,2L97,22.9h0.1l4.8-14.2l-1.6-5.4c-0.2-0.6-0.5-1.2-0.9-1.7c-0.4-0.5-1.1-0.8-2.1-0.9V0.4h10v0.4
		c-0.6,0.1-1.2,0.2-1.5,0.4c-0.4,0.2-0.7,0.4-0.9,0.6c-0.2,0.2-0.3,0.5-0.3,0.9c0,0.3,0,0.7,0.2,1.2l5.4,19.5h0.1l5.6-18.8
		c0.2-0.6,0.3-1.1,0.3-1.5c0-0.4-0.1-0.8-0.4-1.1s-0.7-0.5-1.4-0.7c-0.6-0.2-1.6-0.3-2.7-0.4V0.4h8v0.4c-1,0.2-1.7,0.5-2.1,0.9
		c-0.4,0.4-0.7,1-1,1.8l-6.9,23h-2.7l-5-17.2L96.3,26.5z"/>
	<path d="M126.2,1.6c-0.1-0.2-0.2-0.3-0.4-0.4c-0.2-0.1-0.5-0.2-0.9-0.2c-0.4,0-0.9-0.1-1.5-0.1V0.4h10v0.4c-0.6,0-1.1,0.1-1.5,0.1
		c-0.4,0-0.7,0.1-0.9,0.2c-0.2,0.1-0.3,0.2-0.4,0.4c-0.1,0.2-0.1,0.5-0.1,0.8v21.9c0,0.3,0,0.6,0.1,0.8c0.1,0.2,0.2,0.3,0.4,0.4
		c0.2,0.1,0.5,0.2,0.9,0.2c0.4,0.1,0.9,0.1,1.5,0.1v0.4h-10v-0.4c0.6,0,1.1-0.1,1.5-0.1c0.4,0,0.7-0.1,0.9-0.2
		c0.2-0.1,0.3-0.2,0.4-0.4c0.1-0.2,0.1-0.5,0.1-0.8V2.4C126.3,2,126.3,1.8,126.2,1.6z"/>
	<path d="M157.6,0.4l0.2,6.1h-0.4c-0.4-1.8-1-3.2-1.9-4.2c-0.9-1-2-1.6-3.5-1.6h-2.1v23.6c0,0.3,0,0.6,0.1,0.8
		c0.1,0.2,0.2,0.3,0.4,0.4c0.2,0.1,0.5,0.2,0.9,0.2c0.4,0.1,0.9,0.1,1.5,0.1v0.4h-10v-0.4c0.6,0,1.1-0.1,1.5-0.1
		c0.4,0,0.7-0.1,0.9-0.2c0.2-0.1,0.3-0.2,0.4-0.4c0.1-0.2,0.1-0.5,0.1-0.8V0.7h-2.1c-1.4,0-2.6,0.5-3.5,1.6c-0.9,1-1.5,2.4-1.9,4.2
		h-0.4l0.2-6.1H157.6z"/>
	<path d="M175.7,25.9c1.6,0,2.8-0.5,3.8-1.6c1-1.1,1.7-2.5,2.1-4.1h0.4l-0.4,6.1h-19.1v-0.4L177,0.7h-7.9c-1.6,0-2.8,0.5-3.6,1.5
		s-1.5,2.4-1.9,4.2h-0.4l0.2-6.1h18.2v0.4l-14.3,25.2H175.7z"/>
	<path d="M7.1,50.2v11.1c0,0.3,0,0.6,0.1,0.8c0.1,0.2,0.2,0.3,0.4,0.4c0.2,0.1,0.5,0.2,0.9,0.2c0.4,0.1,0.9,0.1,1.5,0.1v0.4H0V63
		c0.6,0,1.1-0.1,1.5-0.1c0.4,0,0.7-0.1,0.9-0.2s0.3-0.2,0.4-0.4c0.1-0.2,0.1-0.5,0.1-0.8V39.4c0-0.3,0-0.6-0.1-0.8
		c-0.1-0.2-0.2-0.3-0.4-0.4C2.2,38,1.9,38,1.5,37.9c-0.4,0-0.9-0.1-1.5-0.1v-0.4h10v0.4c-0.6,0-1.1,0.1-1.5,0.1
		c-0.4,0-0.7,0.1-0.9,0.2c-0.2,0.1-0.3,0.2-0.4,0.4c-0.1,0.2-0.1,0.5-0.1,0.8v10.4h12V39.4c0-0.3,0-0.6-0.1-0.8
		c-0.1-0.2-0.2-0.3-0.4-0.4c-0.2-0.1-0.5-0.2-0.9-0.2c-0.4,0-0.9-0.1-1.5-0.1v-0.4h10v0.4c-0.6,0-1.1,0.1-1.5,0.1
		c-0.4,0-0.7,0.1-0.9,0.2c-0.2,0.1-0.3,0.2-0.4,0.4c-0.1,0.2-0.1,0.5-0.1,0.8v21.9c0,0.3,0,0.6,0.1,0.8c0.1,0.2,0.2,0.3,0.4,0.4
		s0.5,0.2,0.9,0.2c0.4,0.1,0.9,0.1,1.5,0.1v0.4h-10V63c0.6,0,1.1-0.1,1.5-0.1c0.4,0,0.7-0.1,0.9-0.2c0.2-0.1,0.3-0.2,0.4-0.4
		c0.1-0.2,0.1-0.5,0.1-0.8V50.2H7.1z"/>
	<path d="M37.1,62.7c-1.6-0.7-2.9-1.6-4.1-2.8c-1.2-1.2-2.1-2.6-2.8-4.2c-0.7-1.6-1-3.4-1-5.4c0-1.9,0.3-3.7,1-5.4
		c0.7-1.6,1.6-3,2.8-4.2c1.2-1.2,2.5-2.1,4.1-2.8c1.6-0.7,3.2-1,5-1c1.8,0,3.4,0.3,5,1c1.6,0.7,2.9,1.6,4.1,2.8
		c1.2,1.2,2.1,2.6,2.8,4.2c0.7,1.6,1,3.4,1,5.4c0,2-0.3,3.7-1,5.4c-0.7,1.6-1.6,3-2.8,4.2c-1.2,1.2-2.5,2.1-4.1,2.8
		c-1.6,0.7-3.2,1-5,1C40.3,63.7,38.7,63.4,37.1,62.7z M38.7,38.4c-1,0.7-1.9,1.6-2.6,2.7c-0.7,1.1-1.3,2.5-1.7,4.1
		c-0.4,1.6-0.6,3.3-0.6,5.2c0,1.9,0.2,3.6,0.6,5.2c0.4,1.6,1,2.9,1.7,4.1c0.7,1.1,1.6,2,2.6,2.7c1,0.7,2.2,1,3.4,1s2.4-0.3,3.4-1
		c1-0.7,1.9-1.6,2.6-2.7c0.7-1.1,1.3-2.5,1.7-4.1c0.4-1.6,0.6-3.3,0.6-5.2c0-1.9-0.2-3.6-0.6-5.2c-0.4-1.6-1-2.9-1.7-4.1
		c-0.7-1.1-1.6-2-2.6-2.7c-1-0.7-2.2-1-3.4-1S39.7,37.7,38.7,38.4z"/>
	<path d="M72.9,37.9c1.1,0.3,2,0.8,2.7,1.5c0.7,0.6,1.3,1.4,1.7,2.2c0.4,0.9,0.6,1.8,0.6,2.8c0,0.9-0.2,1.8-0.5,2.6
		c-0.3,0.9-0.9,1.6-1.7,2.3C74.9,50,74,50.5,72.8,51c-1.2,0.4-2.7,0.7-4.4,0.7c1.1,0.2,2.1,0.5,2.9,0.8c0.8,0.3,1.4,0.7,1.9,1
		c0.5,0.4,0.9,0.7,1.2,1.1c0.3,0.4,0.6,0.7,0.8,1.1l2.8,4.6c0.6,0.9,1.2,1.6,1.8,2c0.6,0.4,1.2,0.6,1.8,0.7v0.4h-6.3
		c-0.4-0.5-0.9-1.2-1.3-1.9c-0.5-0.7-0.8-1.4-1.2-2l-2.1-3.9c-0.4-0.8-0.9-1.5-1.4-2.2c-0.5-0.7-1.1-1.3-1.7-1.6h-2.4v9.7
		c0,0.3,0,0.6,0.1,0.8c0.1,0.2,0.2,0.3,0.4,0.4c0.2,0.1,0.5,0.2,0.9,0.2c0.4,0.1,0.9,0.1,1.5,0.1v0.4H58V63c0.6,0,1.1-0.1,1.5-0.1
		c0.4,0,0.7-0.1,0.9-0.2s0.3-0.2,0.4-0.4c0.1-0.2,0.1-0.5,0.1-0.8V39.4c0-0.3,0-0.6-0.1-0.8c-0.1-0.2-0.2-0.3-0.4-0.4
		c-0.2-0.1-0.5-0.2-0.9-0.2c-0.4,0-0.9-0.1-1.5-0.1v-0.4h11.2C70.6,37.4,71.8,37.6,72.9,37.9z M65.1,51.3h2.3c1.2,0,2.2-0.2,2.9-0.5
		s1.4-0.8,1.9-1.4c0.5-0.6,0.8-1.3,1-2.1c0.2-0.8,0.3-1.6,0.3-2.5c0-0.8-0.1-1.6-0.2-2.4c-0.2-0.8-0.4-1.6-0.9-2.2
		c-0.4-0.7-0.9-1.2-1.6-1.6c-0.7-0.4-1.5-0.6-2.5-0.6h-3.1V51.3z"/>
	<path d="M96.3,63.5h-2.5L86,40.4c-0.2-0.6-0.5-1.2-0.9-1.7c-0.4-0.5-1.1-0.8-2.1-0.9v-0.4h10.1v0.4c-1.3,0.1-2.1,0.5-2.4,0.9
		c-0.3,0.5-0.3,1.2,0,2L97,60h0.1l4.8-14.2l-1.6-5.4c-0.2-0.6-0.5-1.2-0.9-1.7c-0.4-0.5-1.1-0.8-2.1-0.9v-0.4h10v0.4
		c-0.6,0.1-1.2,0.2-1.5,0.4c-0.4,0.2-0.7,0.4-0.9,0.6c-0.2,0.2-0.3,0.5-0.3,0.9c0,0.3,0,0.7,0.2,1.2l5.4,19.5h0.1l5.6-18.8
		c0.2-0.6,0.3-1.1,0.3-1.5c0-0.4-0.1-0.8-0.4-1.1c-0.3-0.3-0.7-0.5-1.4-0.7c-0.6-0.2-1.6-0.3-2.7-0.4v-0.4h8v0.4
		c-1,0.2-1.7,0.5-2.1,0.9c-0.4,0.4-0.7,1-1,1.8l-6.9,23h-2.7l-5-17.2L96.3,63.5z"/>
	<path d="M126.2,38.6c-0.1-0.2-0.2-0.3-0.4-0.4c-0.2-0.1-0.5-0.2-0.9-0.2c-0.4,0-0.9-0.1-1.5-0.1v-0.4h10v0.4
		c-0.6,0-1.1,0.1-1.5,0.1c-0.4,0-0.7,0.1-0.9,0.2c-0.2,0.1-0.3,0.2-0.4,0.4c-0.1,0.2-0.1,0.5-0.1,0.8v21.9c0,0.3,0,0.6,0.1,0.8
		c0.1,0.2,0.2,0.3,0.4,0.4c0.2,0.1,0.5,0.2,0.9,0.2c0.4,0.1,0.9,0.1,1.5,0.1v0.4h-10V63c0.6,0,1.1-0.1,1.5-0.1
		c0.4,0,0.7-0.1,0.9-0.2s0.3-0.2,0.4-0.4c0.1-0.2,0.1-0.5,0.1-0.8V39.4C126.3,39.1,126.3,38.8,126.2,38.6z"/>
	<path d="M157.6,37.4l0.2,6.1h-0.4c-0.4-1.8-1-3.2-1.9-4.2c-0.9-1-2-1.6-3.5-1.6h-2.1v23.6c0,0.3,0,0.6,0.1,0.8
		c0.1,0.2,0.2,0.3,0.4,0.4c0.2,0.1,0.5,0.2,0.9,0.2c0.4,0.1,0.9,0.1,1.5,0.1v0.4h-10V63c0.6,0,1.1-0.1,1.5-0.1
		c0.4,0,0.7-0.1,0.9-0.2c0.2-0.1,0.3-0.2,0.4-0.4c0.1-0.2,0.1-0.5,0.1-0.8V37.8h-2.1c-1.4,0-2.6,0.5-3.5,1.6c-0.9,1-1.5,2.4-1.9,4.2
		h-0.4l0.2-6.1H157.6z"/>
	<path d="M175.7,63c1.6,0,2.8-0.5,3.8-1.6c1-1.1,1.7-2.5,2.1-4.1h0.4l-0.4,6.1h-19.1V63L177,37.8h-7.9c-1.6,0-2.8,0.5-3.6,1.5
		s-1.5,2.4-1.9,4.2h-0.4l0.2-6.1h18.2v0.4L167.3,63H175.7z"/>
	<path d="M11.2,92.4c-1,0.6-2.1,0.9-3.5,0.9c-1.5,0-2.7-0.4-3.7-1.1s-1.4-1.8-1.4-3.3c0-0.9,0.2-1.6,0.5-2.3
		c0.4-0.7,0.8-1.2,1.4-1.7c0.6-0.5,1.2-0.9,1.9-1.3c0.7-0.4,1.3-0.7,2-1c-0.6-0.8-1.1-1.7-1.5-2.6c-0.4-0.9-0.6-1.8-0.6-2.5
		c0-0.8,0.2-1.6,0.5-2.2c0.3-0.7,0.8-1.2,1.4-1.7c0.6-0.5,1.2-0.8,2-1c0.7-0.2,1.5-0.4,2.3-0.4c1.2,0,2.2,0.3,3,0.9
		c0.8,0.6,1.2,1.5,1.2,2.5c0,1-0.4,2-1.2,2.9c-0.8,1-2.2,1.9-4.1,2.7l4,5.8c0.4-0.8,0.9-1.6,1.3-2.4c0.4-0.8,0.8-1.5,1.3-2.1
		c0.5-0.6,0.9-1.1,1.4-1.5c0.5-0.4,1.1-0.6,1.7-0.6c0.5,0,0.9,0.1,1.3,0.4c0.3,0.3,0.5,0.6,0.5,1.1c0,0.5-0.2,1-0.5,1.3
		c-0.4,0.4-0.8,0.5-1.2,0.5c-0.2,0-0.4,0-0.6-0.1c-0.2-0.1-0.3-0.2-0.5-0.3c-0.2-0.1-0.3-0.2-0.5-0.3c-0.2-0.1-0.3-0.1-0.5-0.1
		c-0.3,0-0.6,0.1-0.9,0.4c-0.3,0.2-0.6,0.6-0.8,1c-0.3,0.4-0.5,0.9-0.8,1.4c-0.3,0.5-0.6,1.1-0.9,1.6l2.6,3.7
		c0.2,0.3,0.4,0.5,0.6,0.7c0.2,0.2,0.4,0.2,0.7,0.2c0.4,0,0.9-0.2,1.5-0.5v0.3c-0.6,0.4-1.3,0.8-2,1.1c-0.7,0.4-1.4,0.5-2.1,0.5
		c-0.5,0-0.9-0.1-1.2-0.4c-0.3-0.3-0.5-0.6-0.8-1.1l-1.1-1.6C13,91,12.2,91.8,11.2,92.4z M11.6,91.7c0.7-0.5,1.3-1.1,1.9-1.8
		l-4.9-7.1c-0.4,0.3-0.7,0.6-1,1c-0.3,0.4-0.7,0.9-0.9,1.4c-0.3,0.5-0.5,1.1-0.7,1.6c-0.2,0.6-0.3,1.2-0.3,1.8c0,0.5,0.1,1,0.2,1.5
		c0.1,0.5,0.3,0.9,0.6,1.2c0.3,0.4,0.6,0.6,1.1,0.8c0.5,0.2,1,0.3,1.6,0.3C10.1,92.4,10.9,92.2,11.6,91.7z M15,74.3
		c-0.1-0.3-0.2-0.6-0.4-0.9s-0.4-0.5-0.7-0.7c-0.3-0.2-0.7-0.3-1.2-0.3c-0.6,0-1.1,0.1-1.5,0.4c-0.4,0.3-0.7,0.6-1,1
		c-0.3,0.4-0.4,0.8-0.6,1.3c-0.1,0.5-0.2,0.9-0.2,1.2c0,0.6,0.1,1.3,0.4,2c0.2,0.7,0.7,1.6,1.3,2.5c0.8-0.5,1.4-1,1.9-1.4
		c0.5-0.5,0.9-1,1.2-1.4c0.3-0.5,0.5-0.9,0.6-1.4s0.2-0.9,0.2-1.3C15.1,75,15.1,74.6,15,74.3z"/>
	<path d="M50,92.2c0.2,0.2,0.7,0.4,1.4,0.5l0,0.3h-8l0-0.3c0.5-0.1,1-0.1,1.3-0.2c0.4-0.1,0.6-0.2,0.8-0.3s0.3-0.3,0.4-0.5
		c0-0.2,0-0.5,0-0.8l-1.1-5h-7.6l-2.4,5.1c-0.2,0.4-0.3,0.7-0.2,0.9c0,0.2,0.2,0.4,0.4,0.5c0.3,0.1,0.6,0.2,1.1,0.2
		c0.5,0,1.2,0.1,2,0.2l0,0.3h-6.4l0-0.3c0.4-0.1,0.8-0.2,1-0.2c0.3-0.1,0.5-0.2,0.7-0.3c0.2-0.1,0.4-0.3,0.5-0.4
		c0.1-0.2,0.3-0.4,0.4-0.7l8.7-18.8h2l4.4,18.9C49.6,91.6,49.7,92,50,92.2z M44.7,85.5l-2.3-10.9h-0.1l-5.1,10.9H44.7z"/>
	<path d="M64.2,81c-0.2-0.5-0.5-1-0.8-1.4c-0.3-0.4-0.7-0.7-1.2-1c-0.4-0.3-0.9-0.4-1.4-0.4c-0.9,0-1.7,0.2-2.1,0.7
		c-0.5,0.5-0.7,1.1-0.7,1.9c0,0.6,0.2,1.1,0.5,1.5c0.3,0.4,0.8,0.7,1.3,1c0.5,0.3,1.1,0.6,1.6,0.9c0.6,0.3,1.1,0.6,1.6,1
		c0.5,0.4,0.9,0.8,1.3,1.3c0.3,0.5,0.5,1.1,0.5,1.8c0,0.8-0.2,1.5-0.5,2.1C64,91,63.6,91.5,63,91.9s-1.2,0.8-2,1
		c-0.8,0.2-1.6,0.4-2.5,0.4c-0.8,0-1.6-0.1-2.4-0.3c-0.8-0.2-1.5-0.4-2.1-0.7l0.2-4h0.3c0.1,0.8,0.3,1.6,0.5,2.1
		c0.3,0.6,0.6,1.1,1,1.5c0.4,0.4,0.8,0.7,1.3,0.8c0.5,0.2,0.9,0.3,1.4,0.3c1.1,0,1.9-0.3,2.5-0.9c0.6-0.6,0.9-1.3,0.9-2.1
		c0-0.6-0.2-1-0.5-1.4c-0.3-0.4-0.8-0.7-1.3-1c-0.5-0.3-1.1-0.6-1.6-0.9c-0.6-0.3-1.1-0.6-1.6-1c-0.5-0.4-0.9-0.8-1.3-1.3
		c-0.3-0.5-0.5-1.1-0.5-1.8c0-0.6,0.1-1.3,0.4-1.8c0.3-0.6,0.7-1.1,1.2-1.5c0.5-0.4,1.1-0.7,1.9-1c0.7-0.2,1.5-0.4,2.5-0.4
		c0.7,0,1.4,0.1,2.1,0.3c0.7,0.2,1.4,0.4,2,0.7l-0.3,3.8h-0.3C64.6,82.1,64.4,81.6,64.2,81z"/>
	<path d="M78,81c-0.2-0.5-0.5-1-0.8-1.4c-0.3-0.4-0.7-0.7-1.2-1c-0.4-0.3-0.9-0.4-1.4-0.4c-0.9,0-1.7,0.2-2.1,0.7
		c-0.5,0.5-0.7,1.1-0.7,1.9c0,0.6,0.2,1.1,0.5,1.5c0.3,0.4,0.8,0.7,1.3,1c0.5,0.3,1.1,0.6,1.6,0.9c0.6,0.3,1.1,0.6,1.6,1
		c0.5,0.4,0.9,0.8,1.3,1.3c0.3,0.5,0.5,1.1,0.5,1.8c0,0.8-0.2,1.5-0.5,2.1c-0.3,0.6-0.8,1.1-1.3,1.6c-0.6,0.4-1.2,0.8-2,1
		c-0.8,0.2-1.6,0.4-2.5,0.4c-0.8,0-1.6-0.1-2.4-0.3c-0.8-0.2-1.5-0.4-2.1-0.7l0.2-4h0.3c0.1,0.8,0.3,1.6,0.5,2.1
		c0.3,0.6,0.6,1.1,1,1.5c0.4,0.4,0.8,0.7,1.3,0.8c0.5,0.2,0.9,0.3,1.4,0.3c1.1,0,1.9-0.3,2.5-0.9c0.6-0.6,0.9-1.3,0.9-2.1
		c0-0.6-0.2-1-0.5-1.4c-0.3-0.4-0.8-0.7-1.3-1c-0.5-0.3-1.1-0.6-1.6-0.9c-0.6-0.3-1.1-0.6-1.6-1c-0.5-0.4-0.9-0.8-1.3-1.3
		c-0.3-0.5-0.5-1.1-0.5-1.8c0-0.6,0.1-1.3,0.4-1.8c0.3-0.6,0.7-1.1,1.2-1.5s1.1-0.7,1.9-1c0.7-0.2,1.5-0.4,2.5-0.4
		c0.7,0,1.4,0.1,2.1,0.3c0.7,0.2,1.4,0.4,2,0.7l-0.3,3.8h-0.3C78.3,82.1,78.2,81.6,78,81z"/>
	<path d="M85.6,92.7c-0.8-0.3-1.4-0.8-1.9-1.4c-0.5-0.6-0.9-1.3-1.2-2.1c-0.3-0.8-0.4-1.7-0.4-2.6c0-1.2,0.2-2.3,0.6-3.4
		c0.4-1.1,1-2,1.7-2.8c0.7-0.8,1.6-1.4,2.6-1.9c1-0.5,2.1-0.7,3.4-0.7c1,0,1.8,0.2,2.6,0.5c0.8,0.3,1.4,0.8,2,1.4
		c0.5,0.6,0.9,1.3,1.2,2.1c0.3,0.8,0.4,1.7,0.4,2.6c0,1.2-0.2,2.3-0.6,3.4c-0.4,1.1-1,2-1.7,2.8c-0.7,0.8-1.6,1.4-2.6,1.9
		c-1,0.5-2.1,0.7-3.3,0.7C87.2,93.3,86.3,93.1,85.6,92.7z M88.4,78.8c-0.6,0.4-1.1,1-1.6,1.8c-0.5,0.8-0.8,1.8-1.1,3.1
		c-0.3,1.2-0.4,2.7-0.4,4.4c0,1.5,0.3,2.8,0.8,3.6c0.5,0.9,1.2,1.3,2.2,1.3c0.7,0,1.3-0.2,1.9-0.6c0.6-0.4,1.1-1,1.6-1.8
		c0.5-0.8,0.8-1.8,1.1-3.1c0.3-1.2,0.4-2.7,0.4-4.4c0-1.5-0.3-2.7-0.8-3.6c-0.5-0.9-1.2-1.3-2.2-1.3C89.6,78.3,89,78.4,88.4,78.8z"
		/>
	<path d="M106.3,78.9c-0.7,0.4-1.3,1-1.8,1.8c-0.5,0.7-0.9,1.6-1.2,2.6c-0.3,1-0.4,2-0.4,3.1c0,0.9,0.1,1.8,0.4,2.5
		c0.2,0.7,0.6,1.3,1,1.7c0.4,0.5,0.9,0.8,1.4,1c0.5,0.2,1.1,0.3,1.8,0.3c0.9,0,1.7-0.2,2.3-0.5c0.7-0.3,1.2-0.6,1.6-0.9l0.1,0.2
		c-0.2,0.1-0.4,0.3-0.7,0.6c-0.3,0.3-0.7,0.5-1.2,0.8c-0.5,0.3-1.1,0.5-1.7,0.7c-0.6,0.2-1.4,0.3-2.1,0.3c-1,0-1.9-0.2-2.7-0.5
		c-0.8-0.3-1.4-0.8-1.9-1.4c-0.5-0.6-0.9-1.3-1.1-2c-0.3-0.8-0.4-1.6-0.4-2.5c0-1.4,0.3-2.7,0.8-3.8c0.5-1.1,1.2-2,2-2.8
		c0.8-0.8,1.8-1.3,2.8-1.7c1-0.4,2.1-0.6,3.1-0.6c0.8,0,1.4,0.1,2,0.3c0.6,0.2,1,0.5,1.4,0.8c0.4,0.3,0.6,0.7,0.8,1.1
		c0.2,0.4,0.3,0.8,0.3,1.3c0,0.6-0.2,1.1-0.5,1.5c-0.3,0.4-0.8,0.5-1.4,0.5c-0.4,0-0.7-0.1-0.9-0.2c-0.2-0.2-0.3-0.4-0.3-0.6
		c0-0.3,0.1-0.6,0.2-0.8c0.2-0.2,0.3-0.4,0.5-0.5s0.4-0.3,0.5-0.5c0.2-0.2,0.2-0.4,0.2-0.7c0-0.5-0.2-0.9-0.7-1.3
		c-0.4-0.3-1.1-0.5-1.9-0.5C107.7,78.3,107,78.5,106.3,78.9z"/>
	<path d="M117.8,79.3c0-0.2-0.1-0.3-0.3-0.4c-0.1-0.1-0.4-0.2-0.7-0.2c-0.3,0-0.7-0.1-1.2-0.1l0.1-0.3L121,78h0.3l-1.9,13.1
		c0,0.3,0,0.5,0.1,0.6c0.1,0.1,0.3,0.2,0.6,0.2c0.2,0,0.5-0.1,0.8-0.2c0.3-0.1,0.6-0.3,0.9-0.5v0.3c-0.6,0.4-1.3,0.8-2,1.1
		c-0.7,0.4-1.4,0.5-2.1,0.5c-0.7,0-1.2-0.2-1.4-0.6c-0.2-0.4-0.3-0.8-0.2-1.3l1.6-11.4C117.8,79.7,117.8,79.4,117.8,79.3z
		 M118.7,73.1c0.5-0.4,1.1-0.6,1.7-0.6c0.5,0,1,0.2,1.4,0.5c0.4,0.3,0.5,0.7,0.5,1.2c0,0.7-0.2,1.2-0.7,1.6s-1,0.6-1.7,0.6
		c-0.6,0-1-0.1-1.4-0.4c-0.4-0.3-0.5-0.7-0.5-1.2C117.9,74.1,118.2,73.5,118.7,73.1z"/>
	<path d="M138,91.7c0.1,0.1,0.3,0.2,0.6,0.2c0.2,0,0.5-0.1,0.8-0.2c0.3-0.1,0.6-0.3,0.9-0.5v0.3c-0.6,0.4-1.3,0.8-2,1.1
		c-0.7,0.4-1.4,0.5-2.1,0.5c-0.7,0-1.2-0.2-1.4-0.6c-0.2-0.4-0.3-0.8-0.2-1.3l0.6-3h-0.1c-0.4,0.9-0.8,1.7-1.2,2.3
		c-0.4,0.6-0.9,1.1-1.3,1.5c-0.5,0.4-0.9,0.7-1.4,0.8c-0.5,0.2-0.9,0.2-1.4,0.2c-0.8,0-1.5-0.1-2.1-0.4c-0.6-0.3-1.1-0.7-1.5-1.3
		c-0.4-0.5-0.7-1.2-0.9-1.9c-0.2-0.7-0.3-1.6-0.3-2.5c0-1.4,0.2-2.7,0.7-3.8c0.5-1.1,1.1-2.1,1.9-2.9c0.8-0.8,1.7-1.4,2.6-1.8
		c1-0.4,2-0.6,3.1-0.6c0.8,0,1.6,0.1,2.4,0.3c0.8,0.2,1.6,0.5,2.4,0.9l1.2-1.1h0.5l-1.8,13C137.9,91.4,137.9,91.6,138,91.7z
		 M132.4,91.5c0.5-0.3,0.9-0.7,1.3-1.3c0.4-0.6,0.8-1.4,1.1-2.5c0.3-1,0.6-2.3,0.8-3.7l0.6-4.9c-0.4-0.2-0.8-0.4-1.3-0.5
		c-0.5-0.1-0.9-0.2-1.5-0.2c-0.8,0-1.5,0.2-2.1,0.6c-0.6,0.4-1.2,1-1.6,1.8c-0.5,0.8-0.8,1.7-1.1,2.7c-0.3,1.1-0.4,2.2-0.4,3.5
		c0,1.5,0.2,2.8,0.7,3.6c0.5,0.9,1.1,1.3,1.9,1.3C131.5,91.9,132,91.8,132.4,91.5z"/>
	<path d="M148.1,91.9c0.2,0.4,0.6,0.6,1.2,0.6c0.5,0,0.9-0.1,1.4-0.4c0.5-0.2,0.8-0.5,1.2-0.7l0.1,0.2c-1.5,1.1-3,1.6-4.5,1.6
		c-1,0-1.8-0.3-2.3-0.8c-0.5-0.5-0.6-1.5-0.5-2.7l1.6-11.2H144l0-0.1l2.3-0.1l3.6-4.4h0.3l-0.6,4.4h3.8l0,0.3h-3.8l-1.6,11.4
		C147.8,90.8,147.8,91.5,148.1,91.9z"/>
	<path d="M165.9,78.2c0.5,0.2,1,0.4,1.4,0.7c0.4,0.3,0.7,0.6,0.9,1c0.2,0.4,0.3,0.9,0.3,1.4c0,0.2,0,0.4-0.1,0.7
		c0,0.3-0.2,0.6-0.4,0.9c-0.2,0.3-0.5,0.7-0.9,1c-0.4,0.3-1,0.7-1.7,1c-0.7,0.3-1.7,0.6-2.8,0.8c-1.1,0.2-2.5,0.4-4.1,0.5
		c0,2,0.5,3.4,1.3,4.4c0.9,0.9,1.9,1.4,3.2,1.4c0.9,0,1.6-0.1,2.2-0.4s1.2-0.6,1.8-0.9l0.1,0.2c-0.2,0.1-0.4,0.3-0.7,0.6
		c-0.3,0.3-0.7,0.5-1.2,0.8c-0.5,0.3-1.1,0.5-1.7,0.7c-0.6,0.2-1.4,0.3-2.1,0.3c-1,0-1.9-0.2-2.7-0.5c-0.8-0.3-1.4-0.8-1.9-1.4
		c-0.5-0.6-0.9-1.3-1.1-2c-0.3-0.8-0.4-1.6-0.4-2.5c0-1.4,0.3-2.7,0.8-3.8c0.5-1.1,1.2-2,2-2.8c0.8-0.8,1.8-1.3,2.9-1.7
		c1.1-0.4,2.2-0.6,3.3-0.6C164.8,78,165.4,78,165.9,78.2z M161.8,78.8c-0.6,0.4-1.2,0.9-1.7,1.5c-0.5,0.7-0.9,1.5-1.2,2.4
		c-0.3,1-0.5,2-0.5,3.2c1.8-0.2,3.1-0.5,4.1-1c1-0.5,1.7-1,2.1-1.5c0.5-0.5,0.7-1.1,0.8-1.6c0.1-0.5,0.1-0.9,0.1-1.1
		c0-0.7-0.2-1.4-0.5-1.8c-0.3-0.5-0.8-0.7-1.4-0.7C163.1,78.3,162.5,78.4,161.8,78.8z"/>
	<path d="M180.6,81c-0.2-0.5-0.5-1-0.8-1.4c-0.3-0.4-0.7-0.7-1.2-1c-0.4-0.3-0.9-0.4-1.4-0.4c-0.9,0-1.7,0.2-2.1,0.7
		c-0.5,0.5-0.7,1.1-0.7,1.9c0,0.6,0.2,1.1,0.5,1.5c0.3,0.4,0.8,0.7,1.3,1c0.5,0.3,1.1,0.6,1.6,0.9c0.6,0.3,1.1,0.6,1.6,1
		c0.5,0.4,0.9,0.8,1.3,1.3c0.3,0.5,0.5,1.1,0.5,1.8c0,0.8-0.2,1.5-0.5,2.1c-0.3,0.6-0.8,1.1-1.3,1.6s-1.2,0.8-2,1
		c-0.8,0.2-1.6,0.4-2.5,0.4c-0.8,0-1.6-0.1-2.4-0.3c-0.8-0.2-1.5-0.4-2.1-0.7l0.2-4h0.3c0.1,0.8,0.3,1.6,0.5,2.1
		c0.3,0.6,0.6,1.1,1,1.5c0.4,0.4,0.8,0.7,1.3,0.8c0.5,0.2,0.9,0.3,1.4,0.3c1.1,0,1.9-0.3,2.5-0.9c0.6-0.6,0.9-1.3,0.9-2.1
		c0-0.6-0.2-1-0.5-1.4c-0.3-0.4-0.8-0.7-1.3-1c-0.5-0.3-1.1-0.6-1.6-0.9s-1.1-0.6-1.6-1c-0.5-0.4-0.9-0.8-1.3-1.3
		c-0.3-0.5-0.5-1.1-0.5-1.8c0-0.6,0.1-1.3,0.4-1.8c0.3-0.6,0.7-1.1,1.2-1.5s1.1-0.7,1.9-1c0.7-0.2,1.5-0.4,2.5-0.4
		c0.7,0,1.4,0.1,2.1,0.3c0.7,0.2,1.4,0.4,2,0.7l-0.3,3.8h-0.3C180.9,82.1,180.8,81.6,180.6,81z"/>
</g>
</svg>
