<?xml version="1.0" encoding="utf-8"?>
<!-- Generator: Adobe Illustrator 22.1.0, SVG Export Plug-In . SVG Version: 6.00 Build 0)  -->
<svg version="1.1" id="Layer_1" xmlns="http://www.w3.org/2000/svg" xmlns:xlink="http://www.w3.org/1999/xlink" x="0px" y="0px"
	 width="67.5px" height="81.5px" viewBox="0 0 67.5 81.5" style="enable-background:new 0 0 67.5 81.5;" xml:space="preserve">
<style type="text/css">
	.st0{fill:#FFFFFF;}
	.st1{fill:#13102A;}
</style>
<path class="st0" d="M67.5,33.8C67.5,15.1,52.4,0,33.8,0S0,15.1,0,33.8c0,9.4,3.8,17.9,10.1,24h0l23.7,23.7l23.7-23.7h0
	C63.7,51.7,67.5,43.2,67.5,33.8z"/>
<path class="st1" d="M26.2,33.1v14.1c0,0.4,0,0.8,0.1,1c0.1,0.2,0.2,0.4,0.5,0.6c0.2,0.1,0.6,0.2,1.1,0.3c0.5,0.1,1.1,0.1,1.9,0.2
	v0.5H17.2v-0.5c0.8-0.1,1.5-0.1,1.9-0.2c0.5-0.1,0.8-0.2,1.1-0.3s0.4-0.3,0.5-0.6c0.1-0.3,0.1-0.6,0.1-1V19.5c0-0.4,0-0.8-0.1-1
	c-0.1-0.3-0.2-0.4-0.5-0.6c-0.3-0.1-0.6-0.2-1.1-0.3c-0.5-0.1-1.1-0.1-1.9-0.2V17h12.6v0.5c-0.8,0.1-1.5,0.1-1.9,0.2
	c-0.5,0.1-0.8,0.2-1.1,0.3c-0.3,0.1-0.4,0.3-0.5,0.6c-0.1,0.2-0.1,0.6-0.1,1v13.2h15.2V19.5c0-0.4,0-0.8-0.1-1
	c-0.1-0.3-0.2-0.4-0.5-0.6c-0.2-0.1-0.6-0.2-1.1-0.3c-0.5-0.1-1.1-0.1-1.9-0.2V17h12.6v0.5c-0.8,0.1-1.5,0.1-1.9,0.2
	c-0.5,0.1-0.8,0.2-1.1,0.3c-0.3,0.1-0.4,0.3-0.5,0.6c-0.1,0.2-0.1,0.6-0.1,1v27.7c0,0.4,0,0.8,0.1,1c0.1,0.2,0.2,0.4,0.5,0.6
	s0.6,0.2,1.1,0.3c0.5,0.1,1.1,0.1,1.9,0.2v0.5H37.8v-0.5c0.8-0.1,1.5-0.1,1.9-0.2c0.5-0.1,0.8-0.2,1.1-0.3c0.3-0.1,0.4-0.3,0.5-0.6
	c0.1-0.3,0.1-0.6,0.1-1V33.1H26.2z"/>
</svg>
