<svg id="Layer_1" data-name="Layer 1" xmlns="http://www.w3.org/2000/svg" width="120.7" height="207" viewBox="0 0 120.7 207"><defs><style>.cls-1{fill:#c08d54;}</style></defs><title>Vector Smart Object</title><circle class="cls-1" cx="60.3" cy="185.4" r="8.6"/><path class="cls-1" d="M12.9,207h94.9a12.93,12.93,0,0,0,12.9-12.9V12.9A12.93,12.93,0,0,0,107.8,0H12.9A12.93,12.93,0,0,0,0,12.9V194A12.83,12.83,0,0,0,12.9,207ZM8.6,12.9a4.27,4.27,0,0,1,4.3-4.3h94.9a4.27,4.27,0,0,1,4.3,4.3V34.5H8.6Zm0,30.2H112.1V163.9H8.6Zm0,129.4H112.1v21.6a4.27,4.27,0,0,1-4.3,4.3H12.9a4.27,4.27,0,0,1-4.3-4.3Z"/></svg>