<?xml version="1.0" encoding="utf-8"?>
<!-- Generator: Adobe Illustrator 22.1.0, SVG Export Plug-In . SVG Version: 6.00 Build 0)  -->
<svg version="1.1" id="Chicago_Icons" xmlns="http://www.w3.org/2000/svg" xmlns:xlink="http://www.w3.org/1999/xlink" x="0px"
	 y="0px" width="62.2px" height="75.6px" viewBox="0 0 62.2 75.6" style="enable-background:new 0 0 62.2 75.6;"
	 xml:space="preserve">
<style type="text/css">
	.st0{fill:url(#SVGID_1_);}
	.st1{fill:url(#SVGID_2_);}
	.st2{fill:url(#SVGID_3_);}
	.st3{fill:url(#SVGID_4_);}
	.st4{fill:url(#SVGID_5_);}
	.st5{fill:url(#SVGID_6_);}
	.st6{fill:url(#SVGID_7_);}
	.st7{fill:url(#SVGID_8_);}
	.st8{fill:url(#SVGID_9_);}
	.st9{fill:url(#SVGID_10_);}
	.st10{fill:url(#SVGID_11_);}
	.st11{fill:url(#SVGID_12_);}
	.st12{fill:url(#SVGID_13_);}
</style>
<linearGradient id="SVGID_1_" gradientUnits="userSpaceOnUse" x1="64.682" y1="3.6097" x2="-2.8489" y2="71.1406">
	<stop  offset="0" style="stop-color:#E2B576"/>
	<stop  offset="1" style="stop-color:#C08D54"/>
</linearGradient>
<path class="st0" d="M61.1,33.1V7.8c0,0,0-2.7-4.2-4.1C51.8,2.2,42.1,0,31.1,0c-11,0-20.7,2.2-25.7,3.8C1.1,5.1,1.1,7.8,1.1,7.8
	v25.3L0,37v19.1h62.2V37L61.1,33.1z M54.5,5.1c0.9,0,1.6,0.7,1.6,1.6c0,0.9-0.7,1.6-1.6,1.6c-0.9,0-1.6-0.7-1.6-1.6
	C52.9,5.8,53.6,5.1,54.5,5.1z M50.8,5.1c0.9,0,1.6,0.7,1.6,1.6c0,0.9-0.7,1.6-1.6,1.6c-0.9,0-1.6-0.7-1.6-1.6
	C49.2,5.8,49.9,5.1,50.8,5.1z M47.1,5.1c0.9,0,1.6,0.7,1.6,1.6c0,0.9-0.7,1.6-1.6,1.6c-0.9,0-1.6-0.7-1.6-1.6
	C45.5,5.8,46.2,5.1,47.1,5.1z M24.6,4.5c0-0.4,0.1-0.8,0.4-1.1C25.3,3.1,25.7,3,26.1,3h10.1c0.4,0,0.8,0.1,1.1,0.4
	c0.3,0.3,0.4,0.7,0.4,1.1v2.5c0,0.4-0.1,0.8-0.4,1.1c-0.3,0.3-0.7,0.4-1.1,0.4H26.1c-0.4,0-0.8-0.1-1.1-0.4
	c-0.3-0.3-0.4-0.7-0.4-1.1V4.5z M15.2,5.1c0.9,0,1.6,0.7,1.6,1.6c0,0.9-0.7,1.6-1.6,1.6c-0.9,0-1.6-0.7-1.6-1.6
	C13.6,5.8,14.3,5.1,15.2,5.1z M11.4,5.1c0.9,0,1.6,0.7,1.6,1.6c0,0.9-0.7,1.6-1.6,1.6c-0.9,0-1.6-0.7-1.6-1.6
	C9.8,5.8,10.5,5.1,11.4,5.1z M7.7,5.1c0.9,0,1.6,0.7,1.6,1.6c0,0.9-0.7,1.6-1.6,1.6S6.1,7.5,6.1,6.6C6.1,5.8,6.8,5.1,7.7,5.1z
	 M5.6,52.8H4.5v0.3c0.2,0.1,0.3,0.2,0.3,0.4c0,0.2-0.2,0.4-0.4,0.4c-0.2,0-0.4-0.2-0.4-0.4c0-0.2,0.1-0.4,0.3-0.4v-0.3H3.1l0-10.1
	h1.2v-0.3c-0.2-0.1-0.3-0.2-0.3-0.4c0-0.2,0.2-0.4,0.4-0.4s0.4,0.2,0.4,0.4c0,0.2-0.1,0.4-0.3,0.4v0.3h1.2V52.8z M6.2,38.5
	c-0.2,0-0.4-0.2-0.4-0.4c0-0.2,0.2-0.4,0.4-0.4c0.2,0,0.4,0.1,0.4,0.3h0.3v-1.2H17v1.2h0.3c0.1-0.2,0.2-0.3,0.4-0.3
	c0.2,0,0.4,0.2,0.4,0.4c0,0.2-0.2,0.4-0.4,0.4c-0.2,0-0.4-0.1-0.4-0.3H17v1.2H6.9v-1.2H6.6C6.5,38.3,6.4,38.5,6.2,38.5z M9.3,45.8
	c-1.5,0-2.6-1.2-2.6-2.6c0-1.5,1.2-2.6,2.6-2.6s2.6,1.2,2.6,2.6C12,44.6,10.8,45.8,9.3,45.8z M16.3,45.8c-1.5,0-2.6-1.2-2.6-2.6
	c0-1.5,1.2-2.6,2.6-2.6c1.5,0,2.6,1.2,2.6,2.6C18.9,44.6,17.7,45.8,16.3,45.8z M20,31.9c0,1.7-1.3,3-3,3H6.9c-1.7,0-3-1.3-3-3V13.4
	c0-1.7,1.3-3,3-3H17c1.7,0,3,1.3,3,3V31.9z M18.9,8.2c-0.9,0-1.6-0.7-1.6-1.6c0-0.9,0.7-1.6,1.6-1.6c0.9,0,1.6,0.7,1.6,1.6
	C20.5,7.5,19.8,8.2,18.9,8.2z M39.8,54.7H22.4V9.9h17.3V54.7z M41.7,6.6c0-0.9,0.7-1.6,1.6-1.6c0.9,0,1.6,0.7,1.6,1.6
	c0,0.9-0.7,1.6-1.6,1.6C42.4,8.2,41.7,7.5,41.7,6.6z M42.2,31.9V13.4c0-1.7,1.3-3,3-3h10.1c1.7,0,3,1.3,3,3v18.5c0,1.7-1.3,3-3,3
	H45.2C43.6,34.9,42.2,33.6,42.2,31.9z M45.9,45.8c-1.5,0-2.6-1.2-2.6-2.6c0-1.5,1.2-2.6,2.6-2.6c1.5,0,2.6,1.2,2.6,2.6
	C48.6,44.6,47.4,45.8,45.9,45.8z M52.9,45.8c-1.5,0-2.6-1.2-2.6-2.6c0-1.5,1.2-2.6,2.6-2.6c1.5,0,2.6,1.2,2.6,2.6
	C55.5,44.6,54.3,45.8,52.9,45.8z M56,38.5c-0.2,0-0.4-0.1-0.4-0.3h-0.3v1.2H45.2v-1.2h-0.3c-0.1,0.2-0.2,0.3-0.4,0.3
	c-0.2,0-0.4-0.2-0.4-0.4c0-0.2,0.2-0.4,0.4-0.4c0.2,0,0.4,0.1,0.4,0.3h0.3v-1.2h10.1v1.2h0.3c0.1-0.2,0.2-0.3,0.4-0.3
	c0.2,0,0.4,0.2,0.4,0.4C56.5,38.3,56.3,38.5,56,38.5z M58.3,53.5c0,0.2-0.2,0.4-0.4,0.4c-0.2,0-0.4-0.2-0.4-0.4
	c0-0.2,0.1-0.4,0.3-0.4v-0.3h-1.2V42.7h1.2v-0.3c-0.2-0.1-0.3-0.2-0.3-0.4c0-0.2,0.2-0.4,0.4-0.4c0.2,0,0.4,0.2,0.4,0.4
	c0,0.2-0.1,0.4-0.3,0.4v0.3h1.2l0,10.1H58v0.3C58.2,53.1,58.3,53.3,58.3,53.5z M47.1,7.5c0.5,0,0.9-0.4,0.9-0.9
	c0-0.5-0.4-0.9-0.9-0.9c-0.5,0-0.9,0.4-0.9,0.9C46.2,7.1,46.6,7.5,47.1,7.5z M34.7,64.9c0-0.4-0.3-0.7-0.7-0.7
	c-0.4,0-0.7,0.3-0.7,0.7c0,0.4,0.3,0.7,0.7,0.7C34.4,65.6,34.7,65.3,34.7,64.9z M45.2,37.9v0.2h10.1v-0.2H45.2z M17,11.4H6.9
	c-1.1,0-2,0.9-2,2v18.5c0,1.1,0.9,2,2,2H17c1.1,0,2-0.9,2-2V13.4C19,12.3,18.1,11.4,17,11.4z M18.3,31.9c0,0.7-0.6,1.3-1.3,1.3H6.9
	c-0.7,0-1.3-0.6-1.3-1.3V13.4c0-0.7,0.6-1.3,1.3-1.3H17c0.7,0,1.3,0.6,1.3,1.3V31.9z M44.2,6.6c0-0.5-0.4-0.9-0.9-0.9
	c-0.5,0-0.9,0.4-0.9,0.9c0,0.5,0.4,0.9,0.9,0.9C43.8,7.5,44.2,7.1,44.2,6.6z M50.8,7.5c0.5,0,0.9-0.4,0.9-0.9c0-0.5-0.4-0.9-0.9-0.9
	c-0.5,0-0.9,0.4-0.9,0.9C49.9,7.1,50.3,7.5,50.8,7.5z M54.5,7.5c0.5,0,0.9-0.4,0.9-0.9c0-0.5-0.4-0.9-0.9-0.9
	c-0.5,0-0.9,0.4-0.9,0.9C53.7,7.1,54,7.5,54.5,7.5z M18.9,5.8c-0.5,0-0.9,0.4-0.9,0.9c0,0.5,0.4,0.9,0.9,0.9c0.5,0,0.9-0.4,0.9-0.9
	C19.7,6.2,19.4,5.8,18.9,5.8z M1.1,61h0.5v7.2h5.1l2.9-6.5h1.1V61h0.6l2.6-2.2h34.3l2.6,2.2h0.6v0.7h1.1l2.9,6.5h5.1V61h0.5v-4H1.1
	V61z M59.7,67.5h-3.6l-1.3-2.9h4.8V67.5z M58.6,61v0.7h1.1v2.2h-5.1L53.3,61H58.6z M2.5,61.7h1.1V61h5.3l-1.3,2.9H2.5V61.7z
	 M2.5,64.6h4.8L6,67.5H2.5V64.6z M27.5,64.9c0,0.4,0.3,0.7,0.7,0.7c0.4,0,0.7-0.3,0.7-0.7c0-0.4-0.3-0.7-0.7-0.7
	C27.8,64.2,27.5,64.5,27.5,64.9z M29.1,30.1h4c0.6,0,1.2-0.2,1.6-0.7c0.4-0.4,0.7-1,0.7-1.6v-12c0-0.6-0.2-1.2-0.7-1.6
	c-0.4-0.4-1-0.7-1.6-0.7h-4c-0.6,0-1.2,0.2-1.6,0.7c-0.4,0.4-0.7,1-0.7,1.6v12c0,0.6,0.2,1.2,0.7,1.6C27.9,29.9,28.5,30.1,29.1,30.1
	z M27.5,15.9c0-0.4,0.2-0.9,0.5-1.2c0.3-0.3,0.7-0.5,1.2-0.5h4c0.4,0,0.9,0.2,1.2,0.5c0.3,0.3,0.5,0.7,0.5,1.2v5
	c0,0.5-0.2,1-0.6,1.4c-0.4,0.4-0.9,0.6-1.4,0.6h-3.4c-0.5,0-1-0.2-1.4-0.6c-0.4-0.4-0.6-0.9-0.6-1.4V15.9z M27.5,22.5
	c0,0.1,0.1,0.1,0.1,0.2c0.5,0.5,1.2,0.7,1.8,0.7h3.4c0.7,0,1.3-0.3,1.8-0.7c0.1-0.1,0.1-0.1,0.1-0.2v5.4c0,0.4-0.2,0.9-0.5,1.2
	c-0.3,0.3-0.7,0.5-1.2,0.5h-4c-0.4,0-0.9-0.2-1.2-0.5c-0.3-0.3-0.5-0.7-0.5-1.2V22.5z M58,42.7h-0.2v10.1H58V42.7z M55.3,34
	c1.1,0,2-0.9,2-2V13.4c0-1.1-0.9-2-2-2H45.2c-1.1,0-2,0.9-2,2v18.5c0,1.1,0.9,2,2,2H55.3z M43.9,31.9V13.4c0-0.7,0.6-1.3,1.3-1.3
	h10.1c0.7,0,1.3,0.6,1.3,1.3v18.5c0,0.7-0.6,1.3-1.3,1.3H45.2C44.5,33.2,43.9,32.6,43.9,31.9z M7.7,7.5c0.5,0,0.9-0.4,0.9-0.9
	c0-0.5-0.4-0.9-0.9-0.9c-0.5,0-0.9,0.4-0.9,0.9C6.8,7.1,7.2,7.5,7.7,7.5z M45.9,41.8c-0.8,0-1.4,0.6-1.4,1.4c0,0.8,0.6,1.4,1.4,1.4
	c0.8,0,1.4-0.6,1.4-1.4C47.4,42.4,46.7,41.8,45.9,41.8z M17,38.2v-0.2H6.9v0.2H17z M39,10.7H23.2v43.2H39V10.7z M26.1,15.9
	c0-0.8,0.3-1.5,0.9-2.1c0.6-0.6,1.4-0.9,2.1-0.9h4c0.8,0,1.5,0.3,2.1,0.9c0.6,0.6,0.9,1.4,0.9,2.1v12c0,0.8-0.3,1.5-0.9,2.1
	c-0.6,0.6-1.4,0.9-2.1,0.9h-4c-0.8,0-1.5-0.3-2.1-0.9c-0.6-0.6-0.9-1.4-0.9-2.1V15.9z M23.6,29.4l0.8-0.9v-7.9l-0.8-0.9v-0.9
	l1.4,1.5v8.3l-1.4,1.5V29.4z M38.6,30.8c0,0-0.3,0-0.4,0.5v0.5c0,0.5,0.4,0.5,0.4,0.5v0.2c-0.3,0-0.4-0.3-0.4-0.3l0,0
	c-0.3,0.4-0.6,0.9-1.1,1.4c-1.1,1.2-3,2.4-5.8,2.5v6.6c2.6-0.1,4.3-1.2,5.3-2.3c0.6-0.6,0.9-1.1,1.2-1.6c0.1-0.2,0.2-0.4,0.3-0.5
	c0-0.1,0-0.1,0.1-0.1c0,0,0,0,0,0l0,0c0,0,0.1-0.2,0.4-0.3V38c0,0-0.3,0-0.4,0.5V39c0,0.5,0.4,0.5,0.4,0.5v0.2
	c-0.3,0-0.4-0.3-0.4-0.3l0,0c-0.3,0.4-0.6,0.9-1.1,1.4c-1.1,1.2-3,2.4-5.8,2.5v6.6c2.6-0.1,4.3-1.2,5.3-2.3c0.6-0.6,0.9-1.1,1.2-1.6
	c0.1-0.2,0.2-0.4,0.3-0.5c0-0.1,0-0.1,0.1-0.1c0,0,0,0,0,0c0,0,0.1-0.2,0.4-0.3v0.2c0,0-0.3,0-0.4,0.5v0.5c0,0.5,0.4,0.5,0.4,0.5
	v0.2c-0.3,0-0.4-0.3-0.4-0.3l0,0C38,47,37.6,47.5,37.2,48c-1.1,1.2-3,2.4-5.8,2.5v0h-0.6v0C28,50.4,26.2,49.2,25,48
	c-0.5-0.5-0.8-1-1.1-1.4l0,0c0,0-0.1,0.2-0.4,0.3v-0.2c0,0,0.3,0,0.4-0.5v-0.5c0-0.5-0.4-0.5-0.4-0.5V45c0.3,0,0.4,0.3,0.4,0.3
	c0,0,0,0,0,0c0,0,0,0.1,0.1,0.1c0.1,0.1,0.1,0.3,0.3,0.5c0.2,0.4,0.6,1,1.2,1.6c1.1,1.1,2.8,2.2,5.3,2.3v-6.6
	c-2.8-0.1-4.6-1.3-5.8-2.5c-0.5-0.5-0.8-1-1.1-1.4v0c0,0-0.1,0.2-0.4,0.3v-0.2c0,0,0.3,0,0.4-0.5v-0.5c0-0.5-0.4-0.5-0.4-0.5v-0.2
	c0.3,0,0.4,0.3,0.4,0.3l0,0c0,0,0,0,0,0c0,0,0,0.1,0.1,0.1c0.1,0.1,0.1,0.3,0.3,0.5c0.2,0.4,0.6,1,1.2,1.6c1.1,1.1,2.8,2.2,5.3,2.3
	V36c-2.8-0.1-4.6-1.3-5.8-2.5c-0.5-0.5-0.8-1-1.1-1.4l0,0c0,0-0.1,0.2-0.4,0.3v-0.2c0,0,0.3,0,0.4-0.5v-0.5c0-0.5-0.4-0.5-0.4-0.5
	v-0.2c0.3,0,0.4,0.3,0.4,0.3s0,0,0,0c0,0,0,0.1,0.1,0.1c0.1,0.1,0.1,0.3,0.3,0.5c0.2,0.4,0.6,1,1.2,1.6c1.1,1.1,2.9,2.3,5.6,2.3
	c2.8,0,4.5-1.1,5.6-2.3c0.6-0.6,0.9-1.1,1.2-1.6c0.1-0.2,0.2-0.4,0.3-0.5c0-0.1,0-0.1,0.1-0.1c0,0,0,0,0,0s0.1-0.2,0.4-0.3V30.8z
	 M38.6,19.7l-0.8,0.9v7.9l0.8,0.9v0.9l-1.4-1.5v-8.3l1.4-1.5V19.7z M4.2,42.7v10.1h0.2V42.7H4.2z M11.4,7.5c0.5,0,0.9-0.4,0.9-0.9
	c0-0.5-0.4-0.9-0.9-0.9c-0.5,0-0.9,0.4-0.9,0.9C10.6,7.1,11,7.5,11.4,7.5z M45.1,68.3H34v0.9h-0.6v1.3h-4.6v-1.3h-0.6v-0.9H17.1
	l-3.3-8.4l-2,1.7l3.6,8.6v2.4l15.6,3.1l15.6-3.1v-2.4l3.6-8.6l-2-1.7L45.1,68.3z M44.5,67.4l3-7.8H14.7l3,7.8h10.4v-0.5h1.4v-0.6
	h-2.9v-2.9h8.8v2.9h-2.9v0.6H34v0.5H44.5z M9.3,41.8c-0.8,0-1.4,0.6-1.4,1.4c0,0.8,0.6,1.4,1.4,1.4s1.4-0.6,1.4-1.4
	C10.8,42.4,10.1,41.8,9.3,41.8z M16.3,41.8c-0.8,0-1.4,0.6-1.4,1.4c0,0.8,0.6,1.4,1.4,1.4c0.8,0,1.4-0.6,1.4-1.4
	C17.7,42.4,17,41.8,16.3,41.8z M15.2,7.5c0.5,0,0.9-0.4,0.9-0.9c0-0.5-0.4-0.9-0.9-0.9c-0.5,0-0.9,0.4-0.9,0.9
	C14.3,7.1,14.7,7.5,15.2,7.5z M52.9,41.8c-0.8,0-1.4,0.6-1.4,1.4c0,0.8,0.6,1.4,1.4,1.4c0.8,0,1.4-0.6,1.4-1.4
	C54.3,42.4,53.6,41.8,52.9,41.8z"/>
</svg>
