<?xml version="1.0" encoding="utf-8"?>
<!-- Generator: Adobe Illustrator 22.1.0, SVG Export Plug-In . SVG Version: 6.00 Build 0)  -->
<svg version="1.1" id="Chicago_Icons" xmlns="http://www.w3.org/2000/svg" xmlns:xlink="http://www.w3.org/1999/xlink" x="0px"
	 y="0px" width="77.3px" height="87.1px" viewBox="0 0 77.3 87.1" style="enable-background:new 0 0 77.3 87.1;"
	 xml:space="preserve">
<style type="text/css">
	.st0{fill:url(#SVGID_1_);}
	.st1{fill:url(#SVGID_2_);}
	.st2{fill:url(#SVGID_3_);}
	.st3{fill:url(#SVGID_4_);}
	.st4{fill:url(#SVGID_5_);}
	.st5{fill:url(#SVGID_6_);}
	.st6{fill:url(#SVGID_7_);}
	.st7{fill:url(#SVGID_8_);}
	.st8{fill:url(#SVGID_9_);}
	.st9{fill:url(#SVGID_10_);}
	.st10{fill:url(#SVGID_11_);}
	.st11{fill:url(#SVGID_12_);}
	.st12{fill:url(#SVGID_13_);}
</style>
<g>
	<linearGradient id="SVGID_1_" gradientUnits="userSpaceOnUse" x1="51.0665" y1="1.8349" x2="48.5395" y2="5.1883">
		<stop  offset="0" style="stop-color:#E2B576"/>
		<stop  offset="1" style="stop-color:#C08D54"/>
	</linearGradient>
	<path class="st0" d="M49.7,1.8c-1.4,0-2.5,0.7-3.3,1.8H53C52.3,2.5,51.1,1.8,49.7,1.8z"/>
	<linearGradient id="SVGID_2_" gradientUnits="userSpaceOnUse" x1="63.9629" y1="9.2826" x2="10.6501" y2="80.0311">
		<stop  offset="0" style="stop-color:#E2B576"/>
		<stop  offset="1" style="stop-color:#C08D54"/>
	</linearGradient>
	<path class="st1" d="M76.7,42.3c0.4-0.7,0.7-1.6,0.7-2.6c0-1-0.3-1.8-0.7-2.6H74c0-0.1,0-0.2,0-0.4h3c-0.7-1.1-1.8-1.8-3.1-1.8
		c-0.1-1.3-0.3-2.5-0.6-3.7h1.6c0.4-0.7,0.7-1.6,0.7-2.6c0-1-0.3-1.8-0.7-2.6h-3.2c0-0.1-0.1-0.2-0.1-0.4h3.6
		c-0.7-1.1-1.9-1.8-3.3-1.8c-0.3,0-0.7,0-1,0.1c-0.4-0.8-0.8-1.6-1.2-2.4h0.2c0.4-0.7,0.7-1.6,0.7-2.6c0-1-0.3-1.8-0.7-2.6h-3.7
		c-0.1-0.1-0.2-0.2-0.3-0.4h4.3c-0.7-1.1-1.9-1.8-3.3-1.8c-0.7,0-1.4,0.2-2,0.6c-0.6-0.7-1.3-1.4-2-2.1C63,12.4,63,12,63,11.5
		c0-1-0.3-1.8-0.7-2.6h-4.5c-0.2-0.1-0.4-0.2-0.6-0.4h5.4c-0.7-1.1-1.9-1.8-3.3-1.8c-1.1,0-2.2,0.5-2.9,1.3c-1-0.6-2-1.1-3-1.6
		c0-1-0.3-1.8-0.7-2.6h-6c0,0.1-0.1,0.2-0.1,0.2c-1.4-0.3-2.9-0.6-4.4-0.7c-0.1-0.5-0.3-0.9-0.5-1.3h-6c-0.2,0.4-0.4,0.8-0.5,1.3
		c-1.5,0.1-3,0.4-4.4,0.7c0-0.1-0.1-0.2-0.1-0.2h-6c-0.4,0.7-0.7,1.6-0.7,2.6c-1,0.5-2,1-3,1.6c-0.7-0.8-1.8-1.3-2.9-1.3
		c-1.4,0-2.5,0.7-3.3,1.8h5.4c-0.2,0.1-0.4,0.2-0.6,0.4H15c-0.4,0.7-0.7,1.6-0.7,2.6c0,0.5,0.1,0.9,0.2,1.4c-0.7,0.7-1.4,1.3-2,2.1
		c-0.6-0.4-1.3-0.6-2-0.6c-1.4,0-2.5,0.7-3.3,1.8h4.3c-0.1,0.1-0.2,0.2-0.3,0.4H7.4c-0.4,0.7-0.7,1.6-0.7,2.6c0,1,0.3,1.8,0.7,2.6
		h0.2c-0.4,0.8-0.8,1.6-1.2,2.4c-0.3-0.1-0.7-0.1-1-0.1c-1.4,0-2.5,0.7-3.3,1.8h3.6c0,0.1-0.1,0.2-0.1,0.4H2.5
		c-0.4,0.7-0.7,1.6-0.7,2.6c0,1,0.3,1.8,0.7,2.6h1.6c-0.3,1.2-0.5,2.5-0.6,3.7c-1.3,0.1-2.4,0.8-3.1,1.8h3c0,0.1,0,0.2,0,0.4H0.7
		C0.3,37.9,0,38.8,0,39.7c0,1,0.3,1.8,0.7,2.6h2.8c0.1,1.3,0.4,2.7,0.6,4c-0.8,0.3-1.5,0.9-2,1.6h2.4c0,0.1,0.1,0.2,0.1,0.4H2.5
		C2,49,1.8,49.8,1.8,50.8c0,1,0.3,1.8,0.7,2.6h4.1c0.5,1,1,2.1,1.6,3.1c-0.4,0.3-0.7,0.6-1,1h1.6c0.1,0.1,0.2,0.2,0.2,0.4H7.4
		c-0.4,0.7-0.7,1.6-0.7,2.6c0,1,0.3,1.8,0.7,2.6H13c0.6,0.6,1.2,1.2,1.9,1.8c-0.1,0.1-0.1,0.2-0.2,0.2h0.5c0.1,0.1,0.3,0.2,0.4,0.4
		H15c-0.4,0.7-0.7,1.6-0.7,2.6c0,1,0.3,1.8,0.7,2.6h6c0.2-0.3,0.3-0.7,0.5-1c0.9,0.5,1.9,1,2.9,1.4c-0.3,0.6-0.4,1.3-0.4,2
		c0,1,0.3,1.8,0.7,2.6h6c0.4-0.7,0.6-1.4,0.7-2.3c0.1,0,0.2,0,0.3,0.1l-2,11.8h-8.7l-0.8,2h9.1h2.4h14.3h2.4H57l-0.8-2h-8.4l-2-11.8
		c0.1,0,0.2,0,0.3-0.1c0,0.9,0.3,1.6,0.7,2.3h6c0.4-0.7,0.7-1.6,0.7-2.6c0-0.7-0.1-1.4-0.4-2c1-0.4,1.9-0.9,2.9-1.4
		c0.1,0.4,0.3,0.7,0.5,1h6c0.4-0.7,0.7-1.6,0.7-2.6c0-1-0.3-1.8-0.7-2.6h-0.6c0.1-0.1,0.3-0.2,0.4-0.4h0.5c-0.1-0.1-0.1-0.2-0.2-0.2
		c0.6-0.6,1.3-1.2,1.9-1.8h5.6c0.4-0.7,0.7-1.6,0.7-2.6c0-1-0.3-1.8-0.7-2.6h-1.5c0.1-0.1,0.2-0.2,0.2-0.4h1.6c-0.3-0.4-0.6-0.8-1-1
		c0.6-1,1.1-2,1.6-3.1h4.1c0.4-0.7,0.7-1.6,0.7-2.6c0-1-0.3-1.8-0.7-2.6h-2.2c0-0.1,0.1-0.2,0.1-0.4h2.4c-0.5-0.7-1.2-1.3-2-1.6
		c0.3-1.3,0.5-2.6,0.6-4H76.7z M76.5,37.5c0.4,0.7,0.5,1.4,0.5,2.2c0,0.1,0,0.1,0,0.2h-3c0-0.4,0-0.8,0-1.2c0-0.4,0-0.8,0-1.1H76.5z
		 M70.4,39h2.7c0,0.3,0,0.6,0,0.9h-2.7c0-0.1,0-0.1,0-0.2C70.3,39.5,70.3,39.3,70.4,39z M73.1,38.3h-2.5c0.1-0.3,0.2-0.5,0.3-0.7
		h2.2C73.1,37.8,73.1,38,73.1,38.3z M72.9,35.1c-1,0.2-1.9,0.9-2.5,1.7H73c0,0.1,0,0.2,0,0.4h-2.4c-0.2,0.3-0.4,0.7-0.5,1.1h-2.9
		c0-2.8-0.5-5.5-1.3-8.1l2.3-0.7c0.1,0.7,0.3,1.3,0.6,1.8h3.4C72.6,32.5,72.8,33.8,72.9,35.1z M42,74.7c0,0.1,0,0.1,0,0.2h-6.7
		c0-0.1,0-0.1,0-0.2c0-0.3,0-0.6,0.1-0.9c1.1,0.1,2.2,0.2,3.3,0.2c1.1,0,2.2-0.1,3.3-0.2C42,74.1,42,74.4,42,74.7z M18.1,11l0.5,0.6
		h-1.3C17.6,11.5,17.9,11.2,18.1,11z M18.8,10.6c0.6-0.5,1.3-0.9,2-1.3h0.1c0.4,0.7,0.5,1.4,0.5,2.2c0,0.1,0,0.1,0,0.2h-1.8
		L18.8,10.6z M21.7,11.5c0-0.9-0.2-1.7-0.6-2.4C22,8.5,23,8,24,7.5c0.1,0.6,0.3,1.1,0.6,1.6h4l0.8,2.5c-2.6,0.9-5.1,2.2-7.3,3.7
		l-1.1-1.5C21.5,13.2,21.7,12.4,21.7,11.5z M30.8,5.2C30.9,5.6,31,6.1,31,6.5c0,0.1,0,0.1,0,0.2h-2.3l-0.3-0.9
		C29.2,5.6,30,5.3,30.8,5.2z M27.7,6l0.2,0.7h-2C26.5,6.5,27.1,6.2,27.7,6z M29.8,12.5l4.2,12.8c-1.2,0.4-2.3,1-3.3,1.7l-7.9-10.9
		C24.9,14.5,27.2,13.3,29.8,12.5z M46.6,5.2c0.8,0.2,1.6,0.4,2.3,0.6l-0.3,0.9h-2.3c0-0.1,0-0.1,0-0.2C46.4,6.1,46.5,5.6,46.6,5.2z
		 M49.7,6c0.6,0.2,1.2,0.4,1.8,0.7h-2L49.7,6z M52.7,9.1c0.3-0.5,0.5-1,0.6-1.6c1,0.5,2,1,2.9,1.6c-0.4,0.7-0.6,1.5-0.6,2.4
		c0,0.9,0.2,1.7,0.6,2.3l-1.1,1.5c-2.2-1.6-4.7-2.8-7.3-3.7l0.8-2.5H52.7z M60,11.7h-1.3l0.5-0.6C59.5,11.2,59.8,11.5,60,11.7z
		 M57.8,11.7H56c0-0.1,0-0.1,0-0.2c0-0.8,0.2-1.6,0.5-2.2h0.1c0.7,0.4,1.3,0.8,2,1.3L57.8,11.7z M54.6,16.1l-7.9,10.9
		c-1-0.7-2.1-1.3-3.3-1.7l4.2-12.8C50.1,13.3,52.5,14.5,54.6,16.1z M42.1,34.6l4.7-6.4c0.4,0.3,0.9,0.7,1.3,1.1
		c0.4,0.4,0.8,0.8,1.1,1.3l-6.4,4.7C42.5,35,42.3,34.8,42.1,34.6z M41.5,34.1c-0.3-0.2-0.5-0.3-0.8-0.4l2.5-7.6
		c1.1,0.4,2.1,0.9,3,1.5L41.5,34.1z M39.9,33.5c-0.3-0.1-0.6-0.1-0.9-0.1v-8c1.2,0,2.3,0.2,3.3,0.5L39.9,33.5z M38.3,33.3
		c-0.3,0-0.6,0.1-0.9,0.1l-2.5-7.6c1.1-0.3,2.2-0.5,3.3-0.5V33.3z M36.7,33.7c-0.3,0.1-0.5,0.3-0.8,0.4l-4.7-6.4
		c0.9-0.6,1.9-1.2,3-1.5L36.7,33.7z M35.2,34.6c-0.2,0.2-0.4,0.4-0.6,0.6l-6.4-4.7c0.3-0.4,0.7-0.9,1.1-1.3c0.4-0.4,0.8-0.8,1.3-1.1
		L35.2,34.6z M34.2,35.8c-0.2,0.3-0.3,0.5-0.4,0.8l-7.6-2.5c0.4-1.1,0.9-2.1,1.5-3L34.2,35.8z M33.5,37.4c-0.1,0.3-0.1,0.6-0.1,0.9
		h-8c0-1.2,0.2-2.3,0.5-3.3L33.5,37.4z M33.4,39c0,0.3,0.1,0.6,0.1,0.9l-7.6,2.5c-0.3-1.1-0.5-2.2-0.5-3.3H33.4z M33.7,40.7
		c0.1,0.3,0.3,0.5,0.4,0.8l-6.4,4.7c-0.6-0.9-1.2-1.9-1.5-3L33.7,40.7z M34.6,42.1c0.2,0.2,0.4,0.4,0.6,0.6l-4.7,6.4
		c-0.4-0.3-0.9-0.7-1.3-1.1c-0.4-0.4-0.8-0.8-1.1-1.3L34.6,42.1z M35.9,43.2c0.2,0.2,0.5,0.3,0.8,0.4l0,0.1l-2.4,7.5
		c-1.1-0.4-2.1-0.9-3-1.5L35.9,43.2z M35.7,49l-0.4,2.5c-0.1,0-0.2-0.1-0.4-0.1L35.7,49z M38.3,47.8v4.1c-0.2,0-0.5,0-0.7,0
		L38.3,47.8z M39.1,47.8l0.7,4.1c-0.2,0-0.5,0-0.7,0V47.8z M41.6,49l0.8,2.4c-0.1,0-0.2,0.1-0.4,0.1L41.6,49z M40.7,43.7L40.7,43.7
		c0.3-0.2,0.5-0.3,0.8-0.5l4.7,6.4c-0.9,0.6-1.9,1.2-3,1.5L40.7,43.7z M42.1,42.7c0.2-0.2,0.4-0.4,0.6-0.6l6.4,4.7
		c-0.3,0.4-0.7,0.9-1.1,1.3c-0.4,0.4-0.8,0.8-1.3,1.1L42.1,42.7z M43.2,41.5c0.2-0.3,0.3-0.5,0.4-0.8l7.6,2.5
		c-0.4,1.1-0.9,2.1-1.5,3L43.2,41.5z M43.8,39.9c0.1-0.3,0.1-0.6,0.1-0.9h8c0,1.2-0.2,2.3-0.5,3.3L43.8,39.9z M44,38.3
		c0-0.3-0.1-0.6-0.1-0.9l7.6-2.5c0.3,1.1,0.5,2.2,0.5,3.3H44z M43.6,36.6c-0.1-0.3-0.3-0.5-0.4-0.8l6.4-4.7c0.6,0.9,1.2,1.9,1.5,3
		L43.6,36.6z M50.4,30.6l10.9-7.9c1.5,2.1,2.7,4.5,3.6,7l-12.8,4.2C51.6,32.7,51.1,31.6,50.4,30.6z M49.9,30c-0.8-1-1.6-1.8-2.6-2.6
		l7.9-10.9c1.1,0.8,2.1,1.7,3,2.6c0.9,0.9,1.8,1.9,2.6,3L49.9,30z M42.7,25c-1.2-0.3-2.4-0.5-3.6-0.6V11c2.7,0,5.3,0.5,7.8,1.2
		L42.7,25z M38.3,24.5c-1.3,0-2.5,0.2-3.6,0.6l-4.2-12.8c2.5-0.8,5.1-1.2,7.8-1.2V24.5z M30,27.4c-1,0.8-1.8,1.6-2.6,2.6l-10.9-7.9
		c0.8-1.1,1.7-2.1,2.6-3c0.9-0.9,1.9-1.8,3-2.6L30,27.4z M27,30.6c-0.7,1-1.3,2.1-1.7,3.3l-12.8-4.2c0.9-2.5,2.1-4.9,3.6-7L27,30.6z
		 M25.1,34.6c-0.3,1.2-0.5,2.4-0.6,3.6H11c0-2.7,0.5-5.3,1.2-7.8L25.1,34.6z M24.5,39c0,1.3,0.2,2.5,0.6,3.6l-12.8,4.2
		c-0.8-2.5-1.2-5.1-1.2-7.8H24.5z M25.3,43.4c0.4,1.2,1,2.3,1.7,3.3l-10.9,7.9c-1.5-2.1-2.7-4.5-3.6-7L25.3,43.4z M27.4,47.3
		c0.8,1,1.6,1.8,2.6,2.6l-7.9,10.9c-1.1-0.8-2.1-1.7-3-2.6c-0.9-0.9-1.8-1.9-2.6-3L27.4,47.3z M30.6,50.4c1,0.7,2.1,1.3,3.3,1.7
		l-4.2,12.8c-2.5-0.9-4.9-2.1-7-3.6L30.6,50.4z M34.7,52.3c0.2,0,0.3,0.1,0.5,0.1l-2.3,13.3c-0.8-0.2-1.6-0.4-2.4-0.6L34.7,52.3z
		 M37.4,52.8c0.3,0,0.6,0,0.9,0v13.5c-1.1,0-2.1-0.1-3.1-0.2L37.4,52.8z M38.3,67.2V70c-1.2,0.1-2.2,0.8-2.9,1.8h2.9v0.4h-2.6
		c-0.1,0.2-0.3,0.5-0.4,0.7c-0.4,0-0.9-0.1-1.3-0.2l1-5.7C36.1,67.1,37.2,67.2,38.3,67.2z M35.9,72.5h2.4v0.6
		c-0.9,0-1.7-0.1-2.6-0.1C35.7,72.8,35.8,72.6,35.9,72.5z M39.1,73.1v-0.6h2.4c0.1,0.1,0.1,0.3,0.2,0.4C40.8,73,39.9,73,39.1,73.1z
		 M41.7,72.2h-2.6v-0.4H42c-0.7-1-1.7-1.7-2.9-1.8v-2.8c1.1,0,2.2-0.1,3.3-0.2l1,5.7c-0.4,0.1-0.9,0.1-1.3,0.2
		C41.9,72.6,41.8,72.4,41.7,72.2z M39.1,66.3V52.8c0.3,0,0.6,0,0.9,0l2.3,13.3C41.2,66.2,40.1,66.3,39.1,66.3z M42.2,52.4
		c0.2,0,0.3-0.1,0.5-0.1l4.2,12.8c-0.8,0.2-1.6,0.4-2.4,0.6L42.2,52.4z M43.4,52c1.2-0.4,2.3-1,3.3-1.7l7.9,10.9
		c-2.1,1.5-4.5,2.7-7,3.6L43.4,52z M47.3,49.9c1-0.8,1.8-1.6,2.6-2.6l10.9,7.9c-0.8,1.1-1.7,2.1-2.6,3c-0.9,0.9-1.9,1.8-3,2.6
		L47.3,49.9z M50.4,46.7c0.7-1,1.3-2.1,1.7-3.3l12.8,4.2c-0.9,2.5-2.1,4.9-3.6,7L50.4,46.7z M52.3,42.7c0.3-1.2,0.5-2.4,0.6-3.6
		h13.5c0,2.7-0.5,5.3-1.2,7.8L52.3,42.7z M52.9,38.3c0-1.3-0.2-2.5-0.6-3.6l12.8-4.2c0.8,2.5,1.2,5.1,1.2,7.8H52.9z M71.3,27.6
		l-2.7,0.9c0-0.7,0.2-1.5,0.5-2.1h1.8C71,26.9,71.2,27.2,71.3,27.6z M71.5,28.4c0,0.2,0.1,0.3,0.1,0.5h-1.5L71.5,28.4z M74.7,26.5
		c0.4,0.7,0.5,1.4,0.5,2.2c0,0.1,0,0.1,0,0.2h-2.6c-0.2-0.8-0.5-1.6-0.8-2.4H74.7z M70,24.4c-0.6,0.3-1.1,0.8-1.4,1.3h2
		c0,0.1,0.1,0.2,0.1,0.4h-1.8c-0.4,0.7-0.7,1.6-0.7,2.5l-2.4,0.8c-0.9-2.6-2.2-5.1-3.7-7.3l1.6-1.1c0.1,0.2,0.2,0.4,0.3,0.6h4.7
		C69.1,22.6,69.6,23.5,70,24.4z M63.6,19.2c0-0.1,0-0.1,0-0.2c0-0.8,0.2-1.6,0.5-2.2h1.2c0.3,0.4,0.7,0.8,1,1.3l-1.5,1.1H63.6z
		 M66.7,18.7c0.1,0.2,0.2,0.3,0.3,0.5h-1L66.7,18.7z M69.7,16.9c0.4,0.7,0.5,1.4,0.5,2.2c0,0.1,0,0.1,0,0.2h-2
		c-0.5-0.8-1.1-1.6-1.7-2.4H69.7z M63,14.3c0.4,0.4,0.8,0.8,1.1,1.2c-0.2,0.2-0.4,0.4-0.5,0.6h1.1c0.1,0.1,0.2,0.2,0.3,0.4h-1.1
		c-0.4,0.7-0.7,1.6-0.7,2.6c0,0.4,0,0.8,0.1,1.2l-1.8,1.3c-1.6-2.2-3.6-4.1-5.8-5.8l1.2-1.7h5.3c0.1-0.1,0.1-0.2,0.2-0.3
		C62.7,14,62.8,14.1,63,14.3z M62.1,9.3c0.4,0.7,0.5,1.4,0.5,2.2c0,0.1,0,0.1,0,0.2h-1.2c-1-0.9-2.1-1.6-3.2-2.4H62.1z M52.5,4.3
		c0.3,0.6,0.5,1.3,0.5,2.1c-1.9-0.9-3.9-1.5-6-2.1H52.5z M46.3,5.1C46.1,5.5,46,6,46,6.5c0,1,0.3,1.8,0.7,2.6h1.1l-0.7,2.2
		c-2.6-0.8-5.3-1.2-8.1-1.3V7.3h2.6c0.4-0.7,0.7-1.6,0.7-2.6c0-0.1,0-0.2,0-0.3C43.7,4.6,45,4.8,46.3,5.1z M35.3,4.4
		c1-0.1,2-0.1,2.9-0.2v0.7h-3c0-0.1,0-0.1,0-0.2C35.3,4.6,35.3,4.5,35.3,4.4z M39.1,4.2c1,0,2,0.1,2.9,0.2c0,0.1,0,0.2,0,0.4
		c0,0.1,0,0.1,0,0.2h-3V4.2z M35.9,2.5h5.6c0.2,0.3,0.3,0.6,0.4,0.9c-1-0.1-2.1-0.1-3.2-0.1s-2.1,0.1-3.2,0.1
		C35.6,3.1,35.7,2.8,35.9,2.5z M35,4.4c0,0.1,0,0.2,0,0.3c0,1,0.3,1.8,0.7,2.6h2.6v2.7c-2.8,0-5.5,0.5-8.1,1.3l-0.7-2.2h1.1
		c0.4-0.7,0.7-1.6,0.7-2.6c0-0.5-0.1-1-0.2-1.5C32.4,4.8,33.7,4.6,35,4.4z M24.8,4.3h5.5c-2.1,0.5-4.1,1.2-6,2.1
		C24.3,5.6,24.5,4.9,24.8,4.3z M14.7,11.7c0-0.1,0-0.1,0-0.2c0-0.8,0.2-1.6,0.5-2.2H19c-1.1,0.7-2.1,1.5-3.2,2.4H14.7z M12.6,16.2
		h1.1c-0.2-0.2-0.3-0.4-0.5-0.6c0.4-0.4,0.7-0.8,1.1-1.2c0.2-0.2,0.3-0.3,0.5-0.5c0,0.1,0.1,0.2,0.2,0.3h5.3l1.2,1.7
		c-2.2,1.6-4.1,3.6-5.8,5.8L14,20.2c0.1-0.4,0.1-0.8,0.1-1.2c0-1-0.3-1.8-0.7-2.6h-1.1C12.4,16.4,12.5,16.3,12.6,16.2z M10.6,18.7
		l0.7,0.5h-1C10.4,19.1,10.5,18.9,10.6,18.7z M11.1,18.1c0.3-0.4,0.6-0.8,1-1.3h1.2c0.4,0.7,0.5,1.4,0.5,2.2c0,0.1,0,0.1,0,0.2h-1.2
		L11.1,18.1z M7.1,19.2c0-0.1,0-0.1,0-0.2c0-0.8,0.2-1.6,0.5-2.2h3.2c-0.6,0.8-1.2,1.6-1.7,2.4H7.1z M6.8,25.8h2
		c-0.4-0.6-0.9-1-1.4-1.3c0.4-0.9,0.9-1.9,1.4-2.8h4.7c0.1-0.2,0.2-0.4,0.3-0.6l1.6,1.1c-1.6,2.2-2.8,4.7-3.7,7.3l-2.4-0.8
		c0-0.9-0.3-1.8-0.7-2.5H6.6C6.7,26,6.7,25.9,6.8,25.8z M5.8,28.4l1.4,0.5H5.7C5.7,28.7,5.8,28.5,5.8,28.4z M6.1,27.6
		c0.1-0.4,0.3-0.8,0.4-1.2h1.8c0.3,0.6,0.5,1.3,0.5,2.1L6.1,27.6z M2.1,28.8c0-0.1,0-0.1,0-0.2c0-0.8,0.2-1.6,0.5-2.2h2.8
		C5.2,27.2,5,28,4.7,28.8H2.1z M4.3,36.8H7c-0.6-0.9-1.5-1.5-2.5-1.7c0.1-1.3,0.3-2.6,0.6-3.8h3.4c0.3-0.5,0.5-1.1,0.6-1.8l2.3,0.7
		c-0.8,2.6-1.2,5.3-1.3,8.1H7.2c-0.1-0.4-0.3-0.8-0.5-1.1H4.3C4.3,37.1,4.3,36.9,4.3,36.8z M7,39.7c0,0.1,0,0.1,0,0.2H4.3
		c0-0.3,0-0.6,0-0.9H7C7,39.3,7,39.5,7,39.7z M4.3,38.3c0-0.2,0-0.5,0-0.7h2.2c0.1,0.2,0.2,0.5,0.3,0.7H4.3z M0.3,39.9
		c0-0.1,0-0.1,0-0.2c0-0.8,0.2-1.6,0.5-2.2h2.5c0,0.4,0,0.8,0,1.1c0,0.4,0,0.8,0,1.2H0.3z M5.5,47.9h3.2C8,46.8,6.8,46,5.5,46
		c-0.1,0-0.3,0-0.4,0c-0.3-1.2-0.5-2.5-0.6-3.8h2.2c0.4-0.7,0.7-1.6,0.7-2.6c0-0.2,0-0.5,0-0.7h2.8c0,2.8,0.5,5.5,1.3,8.1l-3.4,1.1
		H5.6C5.6,48.1,5.6,48,5.5,47.9z M5.7,48.6h1.2l-1.1,0.3C5.8,48.8,5.8,48.7,5.7,48.6z M6.1,49.7l2.4-0.8c0.3,0.6,0.4,1.2,0.4,1.9
		c0,0.1,0,0.1,0,0.2H6.5C6.4,50.5,6.2,50.1,6.1,49.7z M2.1,51c0-0.1,0-0.1,0-0.2c0-0.8,0.2-1.6,0.5-2.2h2.1C5,49.4,5.3,50.2,5.5,51
		H2.1z M7.6,53.4h0.9c0.4-0.7,0.7-1.6,0.7-2.6c0-0.7-0.1-1.4-0.4-2l2.9-0.9c0.9,2.6,2.2,5.1,3.7,7.3l-2.2,1.6
		c-0.7-0.7-1.6-1.1-2.7-1.1c-0.5,0-1,0.1-1.5,0.3C8.4,55.1,8,54.3,7.6,53.4z M9.9,57.5h2.2l-0.5,0.4h-1.5C10,57.7,9.9,57.6,9.9,57.5
		z M10.6,58.6c-0.1-0.1-0.2-0.3-0.3-0.4h0.8L10.6,58.6z M12.5,58.2h0.8c0.4,0.7,0.5,1.4,0.5,2.2c0,0.1,0,0.1,0,0.2h-1.6
		c-0.4-0.4-0.7-0.9-1.1-1.4L12.5,58.2z M7.1,60.6c0-0.1,0-0.1,0-0.2c0-0.8,0.2-1.6,0.5-2.2h1.6c0.5,0.8,1.1,1.6,1.7,2.4H7.1z
		 M13.7,62.4c0.2-0.6,0.4-1.3,0.4-2c0-1-0.3-1.8-0.7-2.6h-0.5l0.5-0.4h0.3c0,0-0.1-0.1-0.1-0.1l2.2-1.6c1.6,2.2,3.6,4.1,5.8,5.8
		L20,63.8c-0.6-0.3-1.2-0.5-1.9-0.5c-0.9,0-1.8,0.3-2.5,0.9c-0.4-0.4-0.8-0.8-1.2-1.1C14.1,62.8,13.9,62.6,13.7,62.4z M16.6,65H19
		l-0.3,0.4H17C16.9,65.3,16.7,65.2,16.6,65z M21.4,68.1h-0.4c-0.7-0.4-1.5-0.9-2.2-1.4l0.7-1h1.3c0.4,0.7,0.5,1.4,0.5,2.2
		C21.4,68,21.4,68.1,21.4,68.1z M18.1,66.3c-0.2-0.2-0.4-0.3-0.7-0.5h1L18.1,66.3z M14.7,68.1c0-0.1,0-0.1,0-0.2
		c0-0.8,0.2-1.6,0.5-2.2H16c1,0.9,2.1,1.6,3.2,2.4H14.7z M21,65.4h-1.3L20,65h1.3c-0.2-0.3-0.4-0.6-0.7-0.8l1.6-2.2
		c2.2,1.6,4.7,2.8,7.3,3.7l-0.8,2.6c-0.3-0.1-0.7-0.1-1-0.1c-1.3,0-2.5,0.7-3.2,1.8c-0.9-0.4-1.8-0.9-2.7-1.4c0-0.2,0-0.4,0-0.6
		C21.7,67,21.4,66.1,21,65.4z M27.7,71.3c-0.5-0.2-1-0.4-1.5-0.5h1.7L27.7,71.3z M28.7,70.7h1.7c0.2,0.4,0.4,0.9,0.5,1.5
		c-0.8-0.2-1.7-0.4-2.5-0.7L28.7,70.7z M25.3,70.4c-0.3-0.1-0.5-0.2-0.8-0.4h3.6L28,70.4H25.3z M24.3,73.1c0-0.1,0-0.1,0-0.2
		c0-0.7,0.1-1.3,0.4-1.9c2,0.8,4,1.5,6.1,2H24.3z M31.3,72.3c-0.1-0.7-0.3-1.3-0.7-1.9h-1.8l0.1-0.4h2c-0.4-0.6-0.9-1.1-1.6-1.4
		l0.9-2.7c0.8,0.3,1.6,0.5,2.5,0.6l-1,5.8C31.6,72.3,31.4,72.3,31.3,72.3z M45.5,85.1H31.9l2-11.4c0.4,0.1,0.8,0.1,1.2,0.1
		C35,74.1,35,74.4,35,74.7c0,1,0.3,1.8,0.7,2.6h6c0.4-0.7,0.7-1.6,0.7-2.6c0-0.3,0-0.6-0.1-0.9c0.4,0,0.8-0.1,1.2-0.1L45.5,85.1z
		 M44.6,66.6c0.8-0.2,1.7-0.4,2.5-0.6l0.9,2.7c-0.6,0.3-1.2,0.8-1.6,1.4h2l0.1,0.4h-1.8c-0.3,0.5-0.6,1.2-0.7,1.9
		c-0.2,0-0.3,0.1-0.5,0.1L44.6,66.6z M49.7,71.3l-0.2-0.5h1.7C50.7,70.9,50.2,71.1,49.7,71.3z M48.9,71.5c-0.8,0.3-1.6,0.5-2.5,0.7
		c0.1-0.5,0.2-1,0.5-1.5h1.7L48.9,71.5z M49.4,70.4L49.3,70h3.6c-0.3,0.1-0.5,0.2-0.8,0.4H49.4z M53.1,72.9c0,0.1,0,0.1,0,0.2h-6.5
		c2.1-0.5,4.2-1.2,6.1-2C52.9,71.7,53.1,72.3,53.1,72.9z M53,70c-0.7-1.1-1.9-1.8-3.2-1.8c-0.3,0-0.7,0-1,0.1l-0.8-2.6
		c2.6-0.9,5.1-2.2,7.3-3.7l1.6,2.2c-0.3,0.2-0.5,0.5-0.7,0.8h1.3l0.3,0.4h-1.3c-0.4,0.7-0.7,1.6-0.7,2.6c0,0.2,0,0.4,0,0.6
		C54.8,69.1,53.9,69.5,53,70z M59.2,66.3l-0.4-0.5h1C59.7,65.9,59.4,66.1,59.2,66.3z M58.6,66.7c-0.7,0.5-1.4,1-2.2,1.4H56
		c0-0.1,0-0.1,0-0.2c0-0.8,0.2-1.6,0.5-2.2h1.3L58.6,66.7z M62.1,65.8c0.4,0.7,0.5,1.4,0.5,2.2c0,0.1,0,0.1,0,0.2h-4.5
		c1.1-0.7,2.2-1.5,3.2-2.4H62.1z M60.3,65.4h-1.7L58.3,65h2.4C60.6,65.2,60.5,65.3,60.3,65.4z M61.8,64.1c-0.7-0.6-1.5-0.9-2.5-0.9
		c-0.7,0-1.4,0.2-1.9,0.5l-1.6-2.2c2.2-1.6,4.1-3.6,5.8-5.8l2.2,1.6c0,0-0.1,0.1-0.1,0.1h0.3l0.5,0.4h-0.5c-0.4,0.7-0.7,1.6-0.7,2.6
		c0,0.7,0.1,1.4,0.4,2c-0.2,0.2-0.4,0.4-0.6,0.6C62.6,63.4,62.2,63.8,61.8,64.1z M66.7,58.6l-0.5-0.4H67
		C66.9,58.3,66.8,58.4,66.7,58.6z M66.3,59.2c-0.3,0.5-0.7,0.9-1.1,1.4h-1.6c0-0.1,0-0.1,0-0.2c0-0.8,0.2-1.6,0.5-2.2h0.8L66.3,59.2
		z M69.7,58.2c0.4,0.7,0.5,1.4,0.5,2.2c0,0.1,0,0.1,0,0.2h-3.9c0.6-0.8,1.2-1.6,1.7-2.4H69.7z M67.2,57.8h-1.5l-0.5-0.4h2.2
		C67.4,57.6,67.3,57.7,67.2,57.8z M68.4,56c-0.5-0.2-1-0.3-1.5-0.3c-1,0-2,0.4-2.7,1.1L62,55.1c1.6-2.2,2.8-4.7,3.7-7.3l2.9,0.9
		c-0.3,0.6-0.4,1.3-0.4,2c0,1,0.3,1.8,0.7,2.6h0.9C69.4,54.3,68.9,55.1,68.4,56z M70.8,51h-2.3c0-0.1,0-0.1,0-0.2
		c0-0.7,0.1-1.3,0.4-1.9l2.4,0.8C71.1,50.1,71,50.5,70.8,51z M71.5,48.9l-1.1-0.3h1.2C71.6,48.7,71.6,48.8,71.5,48.9z M74.7,48.6
		c0.4,0.7,0.5,1.4,0.5,2.2c0,0.1,0,0.1,0,0.2h-3.4c0.3-0.8,0.6-1.6,0.8-2.4H74.7z M72.3,46.1c-0.1,0-0.3,0-0.4,0
		c-1.4,0-2.5,0.7-3.3,1.8h3.2c0,0.1-0.1,0.2-0.1,0.4h-2.3L66,47.1c0.8-2.6,1.2-5.3,1.3-8.1H70c0,0.2,0,0.5,0,0.7
		c0,1,0.3,1.8,0.7,2.6h2.2C72.8,43.6,72.5,44.8,72.3,46.1z"/>
	<linearGradient id="SVGID_3_" gradientUnits="userSpaceOnUse" x1="28.9506" y1="1.8349" x2="26.4237" y2="5.1883">
		<stop  offset="0" style="stop-color:#E2B576"/>
		<stop  offset="1" style="stop-color:#C08D54"/>
	</linearGradient>
	<path class="st2" d="M27.6,1.8c-1.4,0-2.5,0.7-3.3,1.8h6.6C30.2,2.5,29,1.8,27.6,1.8z"/>
	<linearGradient id="SVGID_4_" gradientUnits="userSpaceOnUse" x1="40.0086" y1="5.143168e-02" x2="37.4816" y2="3.4049">
		<stop  offset="0" style="stop-color:#E2B576"/>
		<stop  offset="1" style="stop-color:#C08D54"/>
	</linearGradient>
	<path class="st3" d="M38.7,0c-1.4,0-2.5,0.7-3.3,1.8H42C41.2,0.7,40,0,38.7,0z"/>
</g>
</svg>
