<?xml version="1.0" encoding="utf-8"?>
<!-- Generator: Adobe Illustrator 22.1.0, SVG Export Plug-In . SVG Version: 6.00 Build 0)  -->
<svg version="1.1" id="Chicago_Icons" xmlns="http://www.w3.org/2000/svg" xmlns:xlink="http://www.w3.org/1999/xlink" x="0px"
	 y="0px" width="68.4px" height="72.3px" viewBox="0 0 68.4 72.3" style="enable-background:new 0 0 68.4 72.3;"
	 xml:space="preserve">
<style type="text/css">
	.st0{fill:url(#SVGID_1_);}
	.st1{fill:url(#SVGID_2_);}
	.st2{fill:url(#SVGID_3_);}
	.st3{fill:url(#SVGID_4_);}
	.st4{fill:url(#SVGID_5_);}
	.st5{fill:url(#SVGID_6_);}
	.st6{fill:url(#SVGID_7_);}
</style>
<g>
	
		<linearGradient id="SVGID_1_" gradientUnits="userSpaceOnUse" x1="51.9" y1="13.4" x2="51.9" y2="13.4" gradientTransform="matrix(1 0 0 -1 0 74)">
		<stop  offset="0" style="stop-color:#E2B576"/>
		<stop  offset="1" style="stop-color:#C08D54"/>
	</linearGradient>
	<path class="st0" d="M51.9,60.6L51.9,60.6L51.9,60.6z"/>
	
		<linearGradient id="SVGID_2_" gradientUnits="userSpaceOnUse" x1="79.984" y1="11.516" x2="8.9295" y2="82.5705" gradientTransform="matrix(1 0 0 -1 0 74)">
		<stop  offset="0" style="stop-color:#E2B576"/>
		<stop  offset="1" style="stop-color:#C08D54"/>
	</linearGradient>
	<path class="st1" d="M57.9,22.9c0.5-3.2,2-6.4,3.5-8.9c-2.4-2.3-6.3-6.1-8.6-8.3C49.7,7.2,46.6,8,43.4,8c-1.9,0-3.8-0.3-5.6-0.8
		c-1.3-0.4-2.5-0.9-3.6-1.5c-1.1,0.6-2.4,1.1-3.6,1.5C28.8,7.7,26.9,8,25,8c-3.2,0-6.3-0.8-9.4-2.3c-1.9,1.9-5,4.9-7.4,7.1L7,14
		c1.5,2.5,3,5.8,3.5,8.9H57.9z"/>
	
		<linearGradient id="SVGID_3_" gradientUnits="userSpaceOnUse" x1="67.609" y1="-0.859" x2="-3.4455" y2="70.1955" gradientTransform="matrix(1 0 0 -1 0 74)">
		<stop  offset="0" style="stop-color:#E2B576"/>
		<stop  offset="1" style="stop-color:#C08D54"/>
	</linearGradient>
	<path class="st2" d="M57.8,24.7c0-0.2,0-0.3,0-0.5H10.6c0,0.2,0,0.3,0,0.5c0,2.7-1.2,5.5-2.6,8.8c-0.8,1.9-1.7,4-2.3,6.2
		c-0.7,2.4-1.1,4.5-1.1,6.4c0,0.8,0.1,1.6,0.2,2.3c0.7,3.7,1.9,6.4,3.8,8.3c1.9,1.9,4.5,3.2,7.9,3.8l3,0.5l0,0
		c5.3,0.9,10.8,1.9,14.7,4.4c3.9-2.5,9.4-3.5,14.7-4.4l0,0l3-0.5c3.5-0.7,6.1-1.9,7.9-3.8c1.9-1.9,3.1-4.7,3.8-8.3
		c0.1-0.7,0.2-1.5,0.2-2.3c0-1.9-0.4-4-1.1-6.4c-0.7-2.2-1.6-4.3-2.3-6.2C58.9,30.2,57.8,27.4,57.8,24.7z M25.7,54.4
		C21,54.4,18,50.8,18,45c0-4.3,1.5-7.7,3.7-9.9c1.8-1.8,4.3-2.9,7-3.2c0.9-0.1,1.6-0.2,2.2-0.2v2.4c-0.6,0-1.4,0-2.2,0.2
		c-4.7,0.7-7.1,4.2-7.6,7.8h0.1c1-1.4,2.9-2.6,5.3-2.6c3.9,0,6.6,2.8,6.6,7.1C33.1,50.7,30.3,54.4,25.7,54.4z M43.1,54.4
		c-4.7,0-7.7-3.6-7.7-9.4c0-4.3,1.5-7.7,3.7-9.9c1.8-1.8,4.3-2.9,7-3.2c0.9-0.1,1.6-0.2,2.2-0.2v2.4c-0.6,0-1.4,0-2.2,0.2
		c-4.7,0.7-7.1,4.2-7.6,7.8h0.1c1-1.4,2.9-2.6,5.3-2.6c3.9,0,6.6,2.8,6.6,7.1C50.5,50.7,47.7,54.4,43.1,54.4z"/>
	
		<linearGradient id="SVGID_4_" gradientUnits="userSpaceOnUse" x1="16.5" y1="13.4" x2="16.5" y2="13.4" gradientTransform="matrix(1 0 0 -1 0 74)">
		<stop  offset="0" style="stop-color:#E2B576"/>
		<stop  offset="1" style="stop-color:#C08D54"/>
	</linearGradient>
	<path class="st3" d="M16.5,60.6L16.5,60.6L16.5,60.6z"/>
	
		<linearGradient id="SVGID_5_" gradientUnits="userSpaceOnUse" x1="60.5982" y1="-7.8698" x2="-10.4563" y2="63.1848" gradientTransform="matrix(1 0 0 -1 0 74)">
		<stop  offset="0" style="stop-color:#E2B576"/>
		<stop  offset="1" style="stop-color:#C08D54"/>
	</linearGradient>
	<path class="st4" d="M25.5,41.8c-1.8,0-3.5,1.1-4.3,2.7c-0.2,0.3-0.3,0.7-0.3,1.3c0,3.6,1.7,6.3,4.8,6.3l0,0c2.5,0,4.3-2.1,4.3-5.3
		S28.3,41.8,25.5,41.8z"/>
	
		<linearGradient id="SVGID_6_" gradientUnits="userSpaceOnUse" x1="69.2982" y1="0.8302" x2="-1.7563" y2="71.8848" gradientTransform="matrix(1 0 0 -1 0 74)">
		<stop  offset="0" style="stop-color:#E2B576"/>
		<stop  offset="1" style="stop-color:#C08D54"/>
	</linearGradient>
	<path class="st5" d="M42.9,41.8c-1.8,0-3.5,1.1-4.3,2.7c-0.2,0.3-0.3,0.7-0.3,1.3c0,3.6,1.7,6.3,4.8,6.3l0,0c2.5,0,4.3-2.1,4.3-5.3
		S45.7,41.8,42.9,41.8z"/>
	
		<linearGradient id="SVGID_7_" gradientUnits="userSpaceOnUse" x1="71.0863" y1="2.6184" x2="3.179877e-02" y2="73.6729" gradientTransform="matrix(1 0 0 -1 0 74)">
		<stop  offset="0" style="stop-color:#E2B576"/>
		<stop  offset="1" style="stop-color:#C08D54"/>
	</linearGradient>
	<path class="st6" d="M62.4,24.7c0-4.7,5-11.3,5-11.3L53.6,0C42.1,7.6,34.2,0,34.2,0s-7.9,7.6-19.4,0L1,13.4c0,0,5,6.6,5,11.3
		s-7.5,14.6-5.7,24.5s7.5,14.4,15.4,15.9s16.4,2.3,18.5,7.1c2.1-4.7,10.6-5.6,18.5-7.1s13.6-6,15.4-15.9
		C69.9,39.3,62.4,29.5,62.4,24.7z M64.9,48.7c-1.4,7.8-5.3,11.8-12.8,13.2l-3,0.5c-5.6,1-11.3,2-14.9,4.8c-3.7-2.8-9.4-3.8-14.9-4.8
		l-3-0.5C8.9,60.5,4.9,56.4,3.5,48.7c-0.2-0.8-0.2-1.7-0.2-2.6c0-4.6,1.9-9.2,3.6-13.1c1.3-3.2,2.5-5.9,2.5-8.3
		c0-3.8-2.3-8.2-4-10.9c2.5-2.4,7.7-7.5,10-9.7C18.8,6,22.1,6.7,25,6.7c3.8,0,6.9-1.2,9.2-2.6c2.3,1.4,5.4,2.5,9.2,2.5
		c2.9,0,6.2-0.7,9.7-2.5c2.3,2.2,7.5,7.3,10,9.7c-1.7,2.7-4,7.1-4,10.9c0,2.4,1.1,5.1,2.5,8.3c1.6,3.9,3.6,8.5,3.6,13.1
		C65.1,47,65,47.8,64.9,48.7z"/>
</g>
</svg>
