<?xml version="1.0" encoding="utf-8"?>
<!-- Generator: Adobe Illustrator 22.1.0, SVG Export Plug-In . SVG Version: 6.00 Build 0)  -->
<svg version="1.1" id="Layer_1" xmlns="http://www.w3.org/2000/svg" xmlns:xlink="http://www.w3.org/1999/xlink" x="0px" y="0px"
	 width="251.7px" height="212.2px" viewBox="0 0 251.7 212.2" style="enable-background:new 0 0 251.7 212.2;" xml:space="preserve"
	>
<style type="text/css">
	.st0{fill:#FFFFFF;}
	.st1{fill:url(#SVGID_1_);}
	.st2{fill:url(#SVGID_2_);}
	.st3{fill:url(#SVGID_3_);}
	.st4{fill:url(#SVGID_4_);}
	.st5{fill:url(#SVGID_5_);}
	.st6{fill:url(#SVGID_6_);}
	.st7{fill:url(#SVGID_7_);}
	.st8{fill:url(#SVGID_8_);}
	.st9{fill:url(#SVGID_9_);}
	.st10{fill:url(#SVGID_10_);}
	.st11{fill:url(#SVGID_11_);}
	.st12{fill:url(#SVGID_12_);}
	.st13{fill:url(#SVGID_13_);}
	.st14{fill:url(#SVGID_14_);}
	.st15{fill:url(#SVGID_15_);}
	.st16{fill:url(#SVGID_16_);}
	.st17{fill:url(#SVGID_17_);}
	.st18{fill:url(#SVGID_18_);}
	.st19{fill:url(#SVGID_19_);}
	.st20{fill:url(#SVGID_20_);}
	.st21{fill:url(#SVGID_21_);}
</style>
<g>
	<path class="st0" d="M108,163.3c-4.4,3.5-9.4,9.4-6.5,14.3c5.6,7.3,29.2-0.8,41.4-13.5c-4,6.2-11.7,15.9-32.5,22.8
		c8.8-0.2,19.8-3.1,27.7-9.9c-3.8,6.6-13.3,10.4-18,12.4c12.5-0.4,28-9.3,37.2-25.8c5.1-9.1-0.7-14.8-3.9-19.1
		c-1.7-2.4-6.1-3.5-12.6-1.2c0,0,10.7-0.1,4.7,8.4c-6,8.5-23.4,20.1-32.6,22.7C103.4,177,103.8,170.4,108,163.3z"/>
	<g>
		<linearGradient id="SVGID_1_" gradientUnits="userSpaceOnUse" x1="27.9286" y1="108.8198" x2="66.6623" y2="108.8198">
			<stop  offset="0" style="stop-color:#C08D54"/>
			<stop  offset="1" style="stop-color:#E2B576"/>
		</linearGradient>
		<path class="st1" d="M27.9,111.6c9.2,1,34.9-4.8,38.7-5.7C65.5,106,36.8,107.9,27.9,111.6z"/>
		<linearGradient id="SVGID_2_" gradientUnits="userSpaceOnUse" x1="33.5075" y1="85.0387" x2="77.0325" y2="85.0387">
			<stop  offset="0" style="stop-color:#C08D54"/>
			<stop  offset="1" style="stop-color:#E2B576"/>
		</linearGradient>
		<path class="st2" d="M33.5,80.3c9.6,4.5,33,8.1,43.5,9.6C66.9,86.8,44.1,80.2,33.5,80.3z"/>
		<linearGradient id="SVGID_3_" gradientUnits="userSpaceOnUse" x1="121.5565" y1="3.5794" x2="122.4647" y2="3.5794">
			<stop  offset="0" style="stop-color:#C08D54"/>
			<stop  offset="1" style="stop-color:#E2B576"/>
		</linearGradient>
		<path class="st3" d="M122.1,7.2c0.3-4,0.7-5.4-0.1-7.2C121.3,2.1,121.5,2.8,122.1,7.2z"/>
		<linearGradient id="SVGID_4_" gradientUnits="userSpaceOnUse" x1="60.4653" y1="45.9092" x2="98.7098" y2="45.9092">
			<stop  offset="0" style="stop-color:#C08D54"/>
			<stop  offset="1" style="stop-color:#E2B576"/>
		</linearGradient>
		<path class="st4" d="M60.5,23.6c7,11.6,33.9,40.1,38.2,44.6C97.8,67,71.6,32.8,60.5,23.6z"/>
		<linearGradient id="SVGID_5_" gradientUnits="userSpaceOnUse" x1="71.2569" y1="175.8554" x2="75.5803" y2="175.8554">
			<stop  offset="0" style="stop-color:#C08D54"/>
			<stop  offset="1" style="stop-color:#E2B576"/>
		</linearGradient>
		<path class="st5" d="M75.6,173c-2.7,2.9-3.8,3.8-4.3,5.7C73.1,177.5,73.4,176.8,75.6,173z"/>
		<linearGradient id="SVGID_6_" gradientUnits="userSpaceOnUse" x1="79.6321" y1="64.3233" x2="85.793" y2="64.3233">
			<stop  offset="0" style="stop-color:#C08D54"/>
			<stop  offset="1" style="stop-color:#E2B576"/>
		</linearGradient>
		<path class="st6" d="M79.6,62.5c1.4,1.7,2.2,1.9,6.2,3.7C82.6,63.8,81.6,62.8,79.6,62.5z"/>
		<linearGradient id="SVGID_7_" gradientUnits="userSpaceOnUse" x1="54.4215" y1="69.4512" x2="65.4425" y2="69.4512">
			<stop  offset="0" style="stop-color:#C08D54"/>
			<stop  offset="1" style="stop-color:#E2B576"/>
		</linearGradient>
		<path class="st7" d="M54.4,67.6c1.6,1.6,6.7,2.9,11,3.8C61.9,69.4,56.5,67.2,54.4,67.6z"/>
		<linearGradient id="SVGID_8_" gradientUnits="userSpaceOnUse" x1="145.3423" y1="135.0243" x2="196.5547" y2="135.0243">
			<stop  offset="0" style="stop-color:#C08D54"/>
			<stop  offset="1" style="stop-color:#E2B576"/>
		</linearGradient>
		<path class="st8" d="M145.3,117c17.1,13.4,38.3,29.8,51.2,36.1c0,0-2.8-2.8-7.4-6.4C180.1,139.3,149.6,119.6,145.3,117z"/>
		<linearGradient id="SVGID_9_" gradientUnits="userSpaceOnUse" x1="157.7473" y1="114.769" x2="200.4612" y2="114.769">
			<stop  offset="0" style="stop-color:#C08D54"/>
			<stop  offset="1" style="stop-color:#E2B576"/>
		</linearGradient>
		<path class="st9" d="M157.7,109.7c9.3,3,32.9,10,42.7,10.1C191.7,115.5,166.8,111.1,157.7,109.7z"/>
		<linearGradient id="SVGID_10_" gradientUnits="userSpaceOnUse" x1="175.8118" y1="123.7421" x2="182.1732" y2="123.7421">
			<stop  offset="0" style="stop-color:#C08D54"/>
			<stop  offset="1" style="stop-color:#E2B576"/>
		</linearGradient>
		<path class="st10" d="M175.8,122.1c3.4,2.2,4.4,3.1,6.4,3.3C180.7,123.8,179.9,123.6,175.8,122.1z"/>
		<linearGradient id="SVGID_11_" gradientUnits="userSpaceOnUse" x1="168.1821" y1="167.6889" x2="179.44" y2="167.6889">
			<stop  offset="0" style="stop-color:#C08D54"/>
			<stop  offset="1" style="stop-color:#E2B576"/>
		</linearGradient>
		<path class="st11" d="M168.2,161.5c2.2,3.4,9.3,11.7,11.3,12.4C178.8,171.7,171.6,164.3,168.2,161.5z"/>
		<linearGradient id="SVGID_12_" gradientUnits="userSpaceOnUse" x1="146.6669" y1="98.0619" x2="163.3985" y2="98.0619">
			<stop  offset="0" style="stop-color:#C08D54"/>
			<stop  offset="1" style="stop-color:#E2B576"/>
		</linearGradient>
		<path class="st12" d="M163.4,98c-2-1-12.4-0.5-16.7,0.1C150.6,98.8,161.5,99,163.4,98z"/>
		<linearGradient id="SVGID_13_" gradientUnits="userSpaceOnUse" x1="162.7731" y1="87.3148" x2="211.4536" y2="87.3148">
			<stop  offset="0" style="stop-color:#C08D54"/>
			<stop  offset="1" style="stop-color:#E2B576"/>
		</linearGradient>
		<path class="st13" d="M162.8,90c15.4-0.6,37.6-1.6,48.7-5.1C199.8,83.7,178.4,87.3,162.8,90z"/>
		<linearGradient id="SVGID_14_" gradientUnits="userSpaceOnUse" x1="189.6078" y1="64.1273" x2="195.7888" y2="64.1273">
			<stop  offset="0" style="stop-color:#C08D54"/>
			<stop  offset="1" style="stop-color:#E2B576"/>
		</linearGradient>
		<path class="st14" d="M195.8,62.3c-2.1,0.4-2.7,1-6.2,3.6C193.2,64.3,194.6,63.9,195.8,62.3z"/>
		<linearGradient id="SVGID_15_" gradientUnits="userSpaceOnUse" x1="197.9146" y1="72.2039" x2="214.0764" y2="72.2039">
			<stop  offset="0" style="stop-color:#C08D54"/>
			<stop  offset="1" style="stop-color:#E2B576"/>
		</linearGradient>
		<path class="st15" d="M197.9,74.4c4-0.4,14.6-3,16.2-4.4C211.9,69.6,202,72.7,197.9,74.4z"/>
		<linearGradient id="SVGID_16_" gradientUnits="userSpaceOnUse" x1="98.5383" y1="14.6521" x2="102.4747" y2="14.6521">
			<stop  offset="0" style="stop-color:#C08D54"/>
			<stop  offset="1" style="stop-color:#E2B576"/>
		</linearGradient>
		<path class="st16" d="M102.5,22.8c-0.3-4-2.5-14.7-3.9-16.3C98.1,8.7,100.9,18.7,102.5,22.8z"/>
		<linearGradient id="SVGID_17_" gradientUnits="userSpaceOnUse" x1="47.0939" y1="140.9005" x2="64.6081" y2="140.9005">
			<stop  offset="0" style="stop-color:#C08D54"/>
			<stop  offset="1" style="stop-color:#E2B576"/>
		</linearGradient>
		<path class="st17" d="M47.1,146.4c3.1-0.7,12.3-7.1,17.5-10.9C59.3,137.9,48.9,144.1,47.1,146.4z"/>
		<linearGradient id="SVGID_18_" gradientUnits="userSpaceOnUse" x1="47.7565" y1="116.7279" x2="64.1783" y2="116.7279">
			<stop  offset="0" style="stop-color:#C08D54"/>
			<stop  offset="1" style="stop-color:#E2B576"/>
		</linearGradient>
		<path class="st18" d="M47.8,118.3c2,0.6,12.7-1.9,16.4-3.3C59.8,115.3,49.5,116.9,47.8,118.3z"/>
	</g>
	<path class="st0" d="M122.3,133.8c2.3-0.1,4.7-0.4,6.7-1c0.5,2.3,1.5,8.9,6.7,13.5c0,0-2.6-4.8-3.5-12l11.4,20.1
		c-2,2.9-16,15-29.6,19.7l-4.3-29c5.7,6.6,8,20.7,8,20.7c0.3-17-3.8-21.2-5.9-26.2c-1.8-4.1,2.1-4.7,4.9-3.5
		c-1.2-1.6-3.8-3.3-6.6-4.8c-13.1-6.6,3.9-17.7,9.3-4.6c2.7-8.5-10.3-15.4,4.9-23.1c-4.5-3.3-4.5-9.4-2.4-15.6
		c-1.8,0.2-3.7-0.1-5.4-0.5c5.2,5.4,2.1,9-0.4,6.9c-2.2-1.8-3.1-3.9-5.4-4.1c-4.9-0.4-9.8,0.1-11.6,2.1c3.2-0.8,8-1,11.6-0.3
		c1.5,0.3,4.6,3.9,6.5,6.3c2.4,3.1-1.8,6.4-3.4,4.5c-1.4-1.6-5.2-5.6-7.4-5.6c-7-0.2-9.8,0.9-11.6,2.5c10.6-2.5,14.1-0.6,18.1,5
		c2.2,3.1-1.5,6-3.7,3.8c-1.7-1.7-3.9-4.2-5.6-4.2c-6.5-0.1-11.2,1.5-12.8,4c0,0,3.8-3,10.4-2.1c3.4,0.5,3.3,1.1,5.6,3.6
		c3.4,3.8-0.1,5.9-3.2,3.6c-4.1-3.1-5.4-2.4-7.7-1.2c-3.3,1.7-5.8,4.8-4.6,12.7c-2.3-0.9-4.8-4.9-5.5-6.3
		c-2.5-5.1-2.6-13.5,0.7-16.6c12.8-12,7.6-18.6,24.6-17.4c-1.6-1.9-1.3-4.2,0.9-4.4c13.5-1.3,18.8-1.7,22.2,21.1
		C136.7,118.1,129.2,129.9,122.3,133.8z"/>
	<path class="st0" d="M190.5,46.3L157.9,8.7c-1.8-2.1-4.7-3-7.3-2.3l-23.7,6c-1.4,0.4-2.6,1.2-3.4,2.5l-16.3,27.1
		c-1.5,2.3-0.9,5.4,1.3,7.1l15.9,13.7c6.1-4.6,12.3-7.9,12.3-7.9l-9.2,10.6l-8.4,11c0,0,4,0,6.7,2.3c5.3,4.5,3,16,3,16l12.5-17.5
		c9.3,8,3.7,6.9,34.6,2c1.4-0.4,2.5-1.3,3.1-2.6l12.4-24.6C192.2,50.1,191.9,47.8,190.5,46.3z M146.3,44.7c-4.5-5-1.8-4.3-34-0.1
		c30.1-7.3,32.3-12,43.7-28.2c-8,25.4-15.1,17.3,19.1,56.6L146.3,44.7z"/>
	<g>
		<linearGradient id="SVGID_19_" gradientUnits="userSpaceOnUse" x1="195.7393" y1="185.5009" x2="251.7186" y2="185.5009">
			<stop  offset="0" style="stop-color:#C08D54"/>
			<stop  offset="1" style="stop-color:#E2B576"/>
		</linearGradient>
		<path class="st19" d="M223.5,182.7c3.2,9.9-29.3,15.5-27.7,25.4c1.7,10.4,19.1-1.4,31.6-8.7c13.9-8.1,24.3-12.5,24.3-12.5
			s-7.5-3.1-23.4-4.9c0,0,2.7-10.9,13.1-23.1c-7.9,2.5-16.6,7.2-23.4,11.6L223.5,182.7z"/>
		<linearGradient id="SVGID_20_" gradientUnits="userSpaceOnUse" x1="0" y1="185.5009" x2="55.9793" y2="185.5009">
			<stop  offset="0" style="stop-color:#C08D54"/>
			<stop  offset="1" style="stop-color:#E2B576"/>
		</linearGradient>
		<path class="st20" d="M28.2,182.7c-3.2,9.9,29.3,15.5,27.7,25.4c-1.7,10.4-19.1-1.4-31.6-8.7C10.4,191.3,0,186.9,0,186.9
			s7.5-3.1,23.4-4.9c0,0-2.7-10.9-13.1-23.1c7.9,2.5,16.6,7.2,23.4,11.6L28.2,182.7z"/>
		<linearGradient id="SVGID_21_" gradientUnits="userSpaceOnUse" x1="32.8452" y1="174.5008" x2="219.0559" y2="174.5008">
			<stop  offset="0" style="stop-color:#C08D54"/>
			<stop  offset="1" style="stop-color:#E2B576"/>
		</linearGradient>
		<path class="st21" d="M125.9,165c-27.5,0-54.4-5.2-79.8-15.5l-13.3,31.9c29.7,12.1,61,18.2,93.1,18.2c32.1,0,63.4-6.1,93.1-18.2
			l-13.2-31.9C180.3,159.8,153.4,165,125.9,165z"/>
	</g>
	<polygon class="st0" points="78,169.7 70.5,171.4 68.3,164.2 66.2,171.4 58.6,169.7 63.9,175.3 58.6,180.9 66.2,179.4 68.3,186.6 
		70.5,179.4 78,180.9 72.7,175.3 	"/>
	<polygon class="st0" points="106.7,174.6 99.1,176.3 97,169.1 94.8,176.3 87.3,174.6 92.6,180.2 87.3,185.9 94.8,184.3 97,191.5 
		99.1,184.3 106.7,185.9 101.4,180.2 	"/>
	<polygon class="st0" points="135.4,177.1 127.8,178.8 125.7,171.5 123.5,178.8 115.9,177.1 121.2,182.7 115.9,188.3 123.5,186.8 
		125.7,194 127.8,186.8 135.4,188.3 130.1,182.7 	"/>
	<polygon class="st0" points="164.7,174.6 157.1,176.3 154.9,169.1 152.8,176.3 145.2,174.6 150.5,180.2 145.2,185.9 152.8,184.3 
		154.9,191.5 157.1,184.3 164.7,185.9 159.3,180.2 	"/>
	<polygon class="st0" points="193.3,169.7 185.7,171.4 183.6,164.2 181.5,171.4 173.9,169.7 179.2,175.3 173.9,180.9 181.5,179.4 
		183.6,186.6 185.7,179.4 193.3,180.9 188,175.3 	"/>
</g>
</svg>
